<svg width="20" height="17" viewBox="0 0 20 17" fill="none" xmlns="http://www.w3.org/2000/svg">
<g opacity="0.4">
<path d="M17.9732 16.7319H1.9971C1.46746 16.7319 0.959513 16.5215 0.585001 16.147C0.21049 15.7725 9.15527e-05 15.2646 9.15527e-05 14.7349V4.56836C9.15527e-05 4.03872 0.21049 3.53077 0.585001 3.15626C0.959513 2.78175 1.46746 2.57135 1.9971 2.57135H17.9732C18.5028 2.57135 19.0107 2.78175 19.3853 3.15626C19.7598 3.53077 19.9702 4.03872 19.9702 4.56836V14.7349C19.9702 15.2646 19.7598 15.7725 19.3853 16.147C19.0107 16.5215 18.5028 16.7319 17.9732 16.7319ZM1.9971 3.66063C1.75635 3.66063 1.52547 3.75626 1.35524 3.92649C1.185 4.09673 1.08937 4.32761 1.08937 4.56836V14.7349C1.08937 14.9757 1.185 15.2066 1.35524 15.3768C1.52547 15.547 1.75635 15.6427 1.9971 15.6427H17.9732C18.2139 15.6427 18.4448 15.547 18.615 15.3768C18.7852 15.2066 18.8809 14.9757 18.8809 14.7349V4.56836C18.8809 4.32761 18.7852 4.09673 18.615 3.92649C18.4448 3.75626 18.2139 3.66063 17.9732 3.66063H1.9971Z" fill="#041242"/>
<path d="M9.99299 11.2129C9.23475 11.2259 8.48013 11.1054 7.7636 10.8571L0.35652 8.01045C0.287107 7.98491 0.223626 7.94549 0.169946 7.8946C0.116266 7.84372 0.0735141 7.78243 0.0442959 7.71448C0.0150778 7.64653 6.03498e-06 7.57335 1.81202e-09 7.49938C-6.03136e-06 7.42542 0.0150537 7.35222 0.0442608 7.28427C0.0706569 7.21549 0.110556 7.15269 0.161606 7.09958C0.212656 7.04646 0.273824 7.0041 0.341503 6.975C0.409182 6.9459 0.482003 6.93064 0.555672 6.93013C0.629341 6.92961 0.702367 6.94386 0.770445 6.97201L8.17753 9.81865C9.37324 10.1963 10.6563 10.1963 11.852 9.81865L19.2591 6.97927C19.3259 6.95352 19.397 6.94118 19.4686 6.94293C19.5401 6.94469 19.6106 6.96052 19.676 6.98952C19.7414 7.01851 19.8004 7.06011 19.8498 7.11193C19.8991 7.16375 19.9377 7.22478 19.9635 7.29153C19.9892 7.35829 20.0016 7.42946 19.9998 7.50099C19.9981 7.57251 19.9822 7.64299 19.9533 7.7084C19.9243 7.77381 19.8827 7.83287 19.8308 7.8822C19.779 7.93154 19.718 7.97018 19.6512 7.99593L12.2442 10.8353C11.5221 11.0936 10.7598 11.2215 9.99299 11.2129Z" fill="#041242"/>
<path d="M10.7845 12.7743H9.20146C9.05701 12.7743 8.91848 12.7169 8.81634 12.6147C8.7142 12.5126 8.65682 12.3741 8.65682 12.2296V9.12881C8.6587 8.98494 8.71669 8.8475 8.81842 8.74577C8.92016 8.64403 9.0576 8.58605 9.20146 8.58417H10.7845C10.9284 8.58605 11.0658 8.64403 11.1676 8.74577C11.2693 8.8475 11.3273 8.98494 11.3292 9.12881V12.2296C11.3292 12.3741 11.2718 12.5126 11.1697 12.6147C11.0675 12.7169 10.929 12.7743 10.7845 12.7743ZM9.7461 11.685H10.2399V9.65166H9.7461V11.685Z" fill="#041242"/>
<path d="M13.2318 3.55169C13.1053 3.55397 12.982 3.51152 12.8837 3.43181C12.7854 3.35211 12.7183 3.24026 12.6944 3.11598L12.5129 1.88147C12.4346 1.65872 12.286 1.46745 12.0895 1.33648C11.893 1.2055 11.6593 1.14191 11.4236 1.15528H8.54065C8.30491 1.14191 8.07121 1.2055 7.87475 1.33648C7.67829 1.46745 7.5297 1.65872 7.45137 1.88147L7.29161 3.11598C7.28376 3.187 7.26143 3.25566 7.226 3.31771C7.19057 3.37976 7.14281 3.43389 7.08564 3.47677C7.02848 3.51964 6.96314 3.55034 6.89365 3.56697C6.82416 3.58361 6.752 3.58582 6.68162 3.57348C6.61078 3.56456 6.54243 3.54162 6.48056 3.506C6.41869 3.47037 6.36454 3.42277 6.32127 3.36598C6.278 3.30919 6.24649 3.24435 6.22856 3.17524C6.21063 3.10613 6.20665 3.03414 6.21686 2.96348L6.3621 1.69992C6.47277 1.20848 6.75034 0.770581 7.14754 0.460759C7.54475 0.150938 8.03705 -0.0116572 8.54065 0.000650804H11.4454C11.949 -0.0116572 12.4413 0.150938 12.8385 0.460759C13.2357 0.770581 13.5133 1.20848 13.6239 1.69992L13.7982 2.92717C13.819 3.06964 13.7826 3.21455 13.6969 3.33022C13.6111 3.44589 13.4831 3.52291 13.3407 3.54443L13.2318 3.55169Z" fill="#041242"/>
</g>
</svg>
