<?xml version="1.0" encoding="utf-8"?>
<!-- Generator: Adobe Illustrator 17.0.0, SVG Export Plug-In . SVG Version: 6.00 Build 0)  -->
<!DOCTYPE svg PUBLIC "-//W3C//DTD SVG 1.1//EN" "http://www.w3.org/Graphics/SVG/1.1/DTD/svg11.dtd">
<svg version="1.1" xmlns="http://www.w3.org/2000/svg" xmlns:xlink="http://www.w3.org/1999/xlink" x="0px" y="0px"
	 width="461.977px" height="283.486px" viewBox="0 0 461.977 283.486" enable-background="new 0 0 461.977 283.486"
	 xml:space="preserve">
<g id="BACKGROUND">
</g>
<g id="OBJECTS">
	<g>
		<g opacity="0.5">
			<path fill="#0AE2B3" d="M136.404,228.291v-33.693H73.799v-21.521l53.475-86.081h40.432v82.821h16.955v24.781h-16.955v33.693
				H136.404z M136.404,169.817v-31.302c0-8.478,0.435-17.173,1.087-26.303h-0.87c-4.564,9.13-8.26,17.39-13.042,26.303
				l-18.912,30.867v0.435H136.404z"/>
			<path fill="#0AE2B3" d="M302.914,156.991c0,43.693-17.607,73.691-53.692,73.691c-36.519,0-52.604-32.824-52.822-72.822
				c0-40.867,17.391-73.256,53.909-73.256C288.133,84.605,302.914,118.299,302.914,156.991z M229.658,157.861
				c-0.218,32.389,7.608,47.823,20.434,47.823s19.781-16.085,19.781-48.257c0-31.302-6.739-47.823-19.999-47.823
				C237.701,109.604,229.441,125.037,229.658,157.861z"/>
			<path fill="#0AE2B3" d="M377.693,228.291v-33.693h-62.604v-21.521l53.475-86.081h40.432v82.821h16.955v24.781h-16.955v33.693
				H377.693z M377.693,169.817v-31.302c0-8.478,0.435-17.173,1.087-26.303h-0.87c-4.564,9.13-8.26,17.39-13.042,26.303
				l-18.912,30.867v0.435H377.693z"/>
		</g>
		<path fill="#089E81" d="M64.065,157.392c0,0-1.808-5.502-1.222-6.288c0.586-0.787,8.573-4.259,18.767-6.424
			c10.194-2.165,10.677-1.344,11.463-0.758c0.787,0.586,1.745,6.814,1.725,8.096C94.779,153.299,64.065,157.392,64.065,157.392z"/>
		<path fill="#0AE2B3" d="M112.355,199.088l-0.708,1.56l-4.943,10.897l-4.734,10.438c-2.353-1.653-3.084-7.683-2.971-12.277
			c0.113-4.594-0.521-7.644-0.521-7.644c-1.41-0.677-2.586-1.892-3.47-3.065c-0.61-0.807-1.08-1.595-1.396-2.17l0-0.001
			c-0.301-0.549-0.46-0.907-0.46-0.907c-5.528,0.27-9.293-3.313-10.185-3.892c-0.893-0.579-2.563-0.039-4.228,3.702
			c-1.498,3.366-5.295,4.729-6.038,4.969c-0.082,0.026-0.127,0.039-0.127,0.039c-0.161,0.903-0.331,1.717-0.507,2.455
			c-1.412,5.96-3.132,6.753-3.132,6.753c-0.188,1.933,0.963,4.734,1.315,8.337c0.352,3.603-0.014,9.174-0.014,9.174l-4.973-3.088
			l-9.729-6.043c0,0-3.687-8.709-3.458-11.604c0.063-0.799,0.252-1.541,0.492-2.198c0.282-0.771,0.637-1.424,0.941-1.909
			c0,0,0.001-0.001,0.003-0.003c0.373-0.596,0.673-0.94,0.673-0.94s-0.013-0.463,0.009-1.189c0.01-0.324,0.028-0.701,0.056-1.112
			c0.066-0.916,0.19-2.005,0.422-3.066c0.06-0.27,0.133-0.532,0.222-0.784c0.156-0.461,0.353-0.891,0.564-1.282
			c0.212-0.391,0.439-0.744,0.659-1.05l0-0.001c0,0,0-0.001,0.002-0.001c0.003-0.004,0.012-0.017,0.024-0.035
			c0.006-0.008,0.011-0.015,0.017-0.022c0.002-0.003,0.005-0.006,0.007-0.009c0.003-0.003,0.005-0.007,0.008-0.01
			c0.008-0.011,0.016-0.022,0.023-0.034c0.019-0.025,0.036-0.049,0.055-0.073c0.018-0.024,0.035-0.048,0.054-0.071
			c0.065-0.084,0.127-0.165,0.189-0.241c0.409-0.508,0.728-0.805,0.751-0.827c0-0.001,0.001-0.001,0.001-0.001
			c0.001-0.001,0.001-0.001,0.001-0.001s0.219-0.761,0.516-1.853c0.228-0.844,0.504-1.886,0.758-2.927
			c0.584-2.386,0.526-3.236,2.046-4.406c1.495-1.151,1.867-2.121,2.746-2.821c0.001-0.001,0.003-0.001,0.004-0.002
			c0.014-0.012,0.027-0.022,0.041-0.034c0.512-0.394,1.446-0.984,2.168-1.427c0,0,0.003-0.001,0.008-0.004
			c0.561-0.346,0.992-0.599,0.992-0.599c-0.01-1.706,0.533-3.13,0.533-3.13c-0.16-0.23-0.31-0.634-0.426-1.009
			c-0.143-0.455-0.235-0.866-0.235-0.866c-0.247,0.168-0.488,0.318-0.723,0.451l-0.005,0.004c-2.578,1.463-4.402,0.961-4.402,0.961
			c-0.696,0.293-1.376,0.494-2.037,0.618c-0.91,0.173-1.783,0.2-2.607,0.124c-4.298-0.39-7.281-3.556-7.281-3.556l2.244-3.179
			l4.954-7.018c0.888,0.168,1.524,0.435,1.975,0.709c0,0,0.001,0.001,0.004,0.002c0.157,0.097,0.292,0.192,0.406,0.286
			c0.001,0.001,0.002,0.002,0.003,0.003c0.066,0.053,0.123,0.106,0.176,0.155c0.26,0.246,0.377,0.45,0.417,0.527
			c0.001,0.001,0.001,0.001,0.001,0.002c0.01,0.02,0.015,0.031,0.015,0.031c0-0.003,0.001-0.005,0.002-0.009l0-0.001
			c0.014-0.164,0.037-0.316,0.065-0.458c0.067-0.345,0.17-0.623,0.289-0.846c0.026-0.048,0.052-0.093,0.079-0.137
			c0.144-0.233,0.306-0.397,0.457-0.512c0.3-0.231,0.557-0.269,0.557-0.269c0.015-0.144,0.032-0.284,0.051-0.421
			c0.706-5.172,4.039-5.298,4.039-5.298c0.695-3.887,4.638-3.943,4.638-3.943s0.835,0.196,2.15,0.38
			c0.003,0.001,0.006,0.001,0.01,0.001c2.102,0.295,5.427,0.561,8.53-0.044c3.422-0.666,5.54-2.516,6.551-3.64
			c0.482-0.537,0.712-0.908,0.712-0.908c3.255-0.755,5.774,3.34,5.774,3.34c1.866,0.006,3.359,1.245,4.215,2.174
			c0.516,0.558,0.801,1.003,0.801,1.003c0.021-0.027,0.042-0.054,0.064-0.08c0.215-0.27,0.451-0.508,0.698-0.715
			c0.001-0.001,0.002-0.002,0.003-0.003c0.003-0.001,0.005-0.004,0.008-0.006c0.008-0.008,0.013-0.012,0.013-0.012l0-0.001
			c0.043-0.036,0.087-0.072,0.13-0.106l0.001,0c0.396-0.314,0.812-0.561,1.206-0.752c1.013-0.492,1.88-0.624,1.88-0.624l4.39,9.084
			l0.95,1.965c0,0-0.527,2.824-3.594,4.398c-0.272,0.14-0.565,0.27-0.879,0.387c-0.224,0.084-0.452,0.151-0.682,0.204
			c-2.467,0.57-5.177-0.529-6.719-1.332l0-0.001c0,0-0.021-0.009-0.06-0.03c-0.012-0.007-0.024-0.013-0.037-0.019
			c-0.028-0.015-0.061-0.033-0.099-0.055c-0.664-0.356-1.065-0.63-1.065-0.63c0.16,0.421,0.279,0.868,0.366,1.319l0,0.001
			c0.017,0.087,0.032,0.176,0.047,0.263c0.339,2.025,0.077,4.036,0.077,4.036c0.475,1.33,0.687,2.334,0.759,3.083
			c0.122,1.286-0.171,1.822-0.272,1.964c-0.016,0.022-0.026,0.035-0.03,0.04c0.014-0.01,0.097-0.061,0.247-0.131
			c0.003-0.001,0.006-0.003,0.009-0.005c0.188-0.087,0.477-0.201,0.865-0.295c0.057-0.013,0.116-0.026,0.176-0.039
			c0.007-0.002,0.016-0.003,0.023-0.005c0.214-0.042,0.452-0.079,0.716-0.101c0.001,0,0.001,0,0.001,0
			c0.949-0.081,2.22,0.011,3.801,0.559c0.001,0.001,0.002,0.001,0.003,0.001c0.039,0.014,0.08,0.028,0.12,0.043
			c0.075,0.027,0.152,0.055,0.23,0.085c4.052,1.537,5.774,8.033,5.774,8.033c0.454,0.274,1.131,0.942,1.798,1.896
			c0.966,1.383,1.912,3.366,2.129,5.623C111.875,195.174,112.355,199.088,112.355,199.088z"/>
		<path fill="#0CB797" d="M56.627,174.94c-4.298-0.39-7.281-3.556-7.281-3.556l2.244-3.179c0.766,0.98,2.425,2.746,4.807,3.338
			c0.826,0.205,1.576,0.249,2.237,0.197C58.179,172.848,57.532,173.937,56.627,174.94z"/>
		<path fill="#0CB797" d="M93.128,175.225l-3.384,5.121c0,0-2.979,4.806-8.558,4.333c-5.579-0.473-10.62-5.569-14.623-3.269
			c-4.003,2.3-6.317,7.471-6.317,7.471l2.3-0.69c0,0-4.043,2.67-4.767,4.361c-0.169,0.39-0.159,0.728,0.117,0.969l-2.438,0.713
			c0.212-0.391,0.439-0.744,0.659-1.05l0-0.001c0,0,0-0.001,0.002-0.001c0.003-0.004,0.012-0.017,0.024-0.035
			c0.006-0.008,0.011-0.015,0.017-0.022c0.002-0.003,0.005-0.006,0.007-0.009c0.003-0.003,0.005-0.007,0.008-0.01
			c0.008-0.011,0.016-0.022,0.023-0.034c0.019-0.025,0.036-0.049,0.055-0.073c0.018-0.024,0.035-0.048,0.054-0.071
			c0.065-0.084,0.127-0.165,0.189-0.241c0.409-0.508,0.728-0.805,0.751-0.827c0-0.001,0.001-0.001,0.001-0.001
			c0.001-0.001,0.001-0.001,0.001-0.001s0.219-0.761,0.516-1.853c0.228-0.844,0.504-1.886,0.758-2.927
			c0.584-2.386,0.526-3.236,2.046-4.406c1.495-1.151,1.867-2.121,2.746-2.821c0.001-0.001,0.003-0.001,0.004-0.002
			c0.014-0.012,0.027-0.022,0.041-0.034c0.512-0.394,1.446-0.984,2.168-1.427c0,0,0.003-0.001,0.008-0.004
			c0.561-0.346,0.992-0.599,0.992-0.599c-0.01-1.706,0.533-3.13,0.533-3.13c-0.16-0.23-0.31-0.634-0.426-1.009
			c-0.143-0.455-0.235-0.866-0.235-0.866c-0.247,0.168-0.488,0.318-0.723,0.451l-0.005,0.004c-2.578,1.463-4.402,0.961-4.402,0.961
			c-0.696,0.293-1.376,0.494-2.037,0.618c0.427-0.76,0.924-1.907,1.242-3.496c0.899-0.352,1.398-0.79,1.398-0.79
			s0.702,0.912,2.401,0.796c1.699-0.116,5.009-1.622,4.992-3.434c0,0,1.329,6.078,8.132,8.192
			C84.156,178.184,90.319,176.27,93.128,175.225z"/>
		<path fill="#0CB797" d="M68.935,209.942c-0.188,1.933,0.963,4.734,1.315,8.337c0.352,3.603-0.014,9.174-0.014,9.174l-4.973-3.088
			c1.156-3.162-0.345-7.937-0.5-11.472c-0.191-4.36,2.464-4.541,2.464-4.541c-1.239-3.75,0.477-6.706,2.271-8.168
			c1.223,1.124,2.039,2.176,2.57,3.005C70.655,209.149,68.935,209.942,68.935,209.942z"/>
		<path fill="#0CB797" d="M95.701,191.938c-1.291,2.115-1.86,3.947-2.089,4.886c-0.301-0.549-0.46-0.907-0.46-0.907
			c-5.528,0.27-9.293-3.313-10.185-3.892c-0.893-0.579-2.563-0.039-4.228,3.702c-1.498,3.366-5.295,4.729-6.038,4.969
			c-0.316-0.407-0.847-1.069-1.546-1.84c1.305-1.292,2.395-3.135,4.189-5.99c2.309-3.677,5.244-4.421,6.718-4.725
			c2.314-0.478,3.371,0.943,8.648,3.25C92.535,192.189,94.246,192.229,95.701,191.938z"/>
		<path fill="#0CB797" d="M106.704,211.544l-4.734,10.438c-2.353-1.653-3.084-7.683-2.971-12.277
			c0.113-4.594-0.521-7.644-0.521-7.644c-1.41-0.677-2.586-1.892-3.47-3.065c0.732-1.502,2.385-4.663,4.515-7.32
			c-0.757,3.08,0.735,5.465,2.497,7.583c0,0-0.531,4.73,0.389,8.827C103.006,210.749,105.225,211.408,106.704,211.544z"/>
		
			<linearGradient id="SVGID_1_" gradientUnits="userSpaceOnUse" x1="116.114" y1="174.3246" x2="105.58" y2="179.8576" gradientTransform="matrix(0.9977 -0.068 0.068 0.9977 -14.6044 18.1664)">
			<stop  offset="0" style="stop-color:#FFFFFF"/>
			<stop  offset="1" style="stop-color:#FFFFFF;stop-opacity:0"/>
		</linearGradient>
		<path fill="url(#SVGID_1_)" d="M112.355,199.088l-0.708,1.56c-1.339-1.491-2.497-4.644-3.105-8.98
			c-0.83-5.917-4.479-6.737-4.479-6.737c1.447-4.74-1.854-8.537-2.486-9.209c0.075,0.027,0.152,0.055,0.23,0.085
			c4.052,1.537,5.774,8.033,5.774,8.033c0.454,0.274,1.131,0.942,1.798,1.896c0.966,1.383,1.912,3.366,2.129,5.623
			C111.875,195.174,112.355,199.088,112.355,199.088z"/>
		<path fill="#0CB797" d="M67.598,154.353c0.357,2.109,3.883,2.189,3.883,2.189c-2.193,0.683-4.02,0.488-6.286,0.109
			c-2.266-0.379-3.803,3.673-3.189,3.935c0.614,0.261,1.201,1.321,1.201,1.321c-1.764-0.84-2.025,0.031-1.469,1.914
			c0.555,1.882,0.326,4.778,0.326,4.778c-0.346-1.958-1.631-4.603-2.455-6.162c0.067-0.345,0.17-0.623,0.289-0.846
			c0.026-0.048,0.052-0.093,0.079-0.137c0.144-0.233,0.306-0.397,0.457-0.512c0.3-0.231,0.557-0.269,0.557-0.269
			c0.015-0.144,0.032-0.284,0.051-0.421c0.706-5.172,4.039-5.298,4.039-5.298c0.695-3.887,4.638-3.943,4.638-3.943
			s0.835,0.196,2.15,0.38C70.25,151.18,67.241,152.249,67.598,154.353z"/>
		<path fill="#0CB797" d="M98.524,153.235l-0.081,0.401c-2.451-2.5-5.648-2.068-5.648-2.068c-0.408,1.841-3.586,2.165-3.586,2.165
			s2.469-1.342,2.148-2.92s-4.365-3.009-4.365-3.009c-0.013-0.032-0.024-0.066-0.034-0.098c0.482-0.537,0.712-0.908,0.712-0.908
			c3.255-0.755,5.774,3.34,5.774,3.34c1.866,0.006,3.359,1.245,4.215,2.174c0.516,0.558,0.801,1.003,0.801,1.003
			C98.481,153.288,98.502,153.261,98.524,153.235z"/>
		<path fill="#CEC4D6" d="M56.815,196.48c-0.075,0.181-2.49,5.997-4.245,8.039c-0.001,0.001-0.001,0.001-0.002,0.002
			c0.282-0.771,0.637-1.424,0.941-1.909c0,0,0.001-0.001,0.003-0.003c0.373-0.596,0.673-0.94,0.673-0.94s-0.013-0.463,0.009-1.189
			c0.01-0.324,0.028-0.701,0.056-1.112C54.986,198.828,56.194,197.8,56.815,196.48z"/>
		<path fill="#E5DFE9" d="M100.846,164.036c0.475,1.009,1.067,2.022,1.803,3.018c-2.467,0.57-5.177-0.529-6.719-1.332l0-0.001
			c0,0-0.021-0.009-0.06-0.03c-0.012-0.007-0.024-0.013-0.037-0.019c-0.028-0.015-0.061-0.033-0.099-0.055
			c-0.664-0.356-1.065-0.63-1.065-0.63c0.16,0.421,0.279,0.868,0.366,1.319l0,0.001c0.017,0.087,0.032,0.176,0.047,0.263
			c-3.169-4.405-4.577-10.18-4.643-10.458c0.098,0.279,2.126,5.971,7.017,7.511C98.717,164.02,99.845,164.126,100.846,164.036z"/>
		<path fill="#E5DFE9" d="M107.804,162.065c0,0-0.527,2.824-3.594,4.398c-0.481-0.631-1.088-1.544-1.697-2.777
			c2.392-0.815,3.804-2.72,4.341-3.586L107.804,162.065z"/>
		<path fill="#089E81" d="M96.737,175.264l0,0.005c0,0-4.532,2.543-5.26,3.357c-0.728,0.814-1.372,2.059-4.838,3.121
			c-0.836,0.256-1.84,0.508-2.94,0.695c-3.029,0.515-6.803,0.537-9.895-1.207c0,0-1.212-2.104-3.951-3.276
			c0.152,0.032,2.39,0.529,4.091,0.634c0.133,0.008,0.261,0.014,0.385,0.016c0.206,0.005,0.399,0.003,0.575-0.009
			c0,0,0.314-0.42,0.707-0.582c0.371-0.152,1.317-0.14,2.565-0.15c0.16-0.002,0.324-0.004,0.493-0.006
			c0.722-0.011,1.525-0.037,2.364-0.107c0.74-0.062,1.463-0.148,2.117-0.237c0.17-0.022,0.336-0.045,0.496-0.069
			c1.167-0.169,2.036-0.331,2.25-0.345c0.566-0.039,1.034,0.3,1.224,0.464c0.06,0.052,0.093,0.086,0.093,0.086
			s0.118-0.041,0.326-0.116c0.39-0.142,1.101-0.403,1.962-0.742c0.12-0.047,0.243-0.095,0.369-0.146
			c0.249-0.099,0.508-0.203,0.773-0.313c0.09-0.037,0.18-0.074,0.272-0.112l0.001,0c0.655-0.274,1.342-0.573,2.006-0.882
			c0.07-0.033,0.142-0.066,0.211-0.1c1.078-0.511,2.081-1.049,2.785-1.554c0.015,0.158,0.024,0.304,0.027,0.44
			c0.026,0.971-0.211,1.399-0.299,1.524c-0.016,0.022-0.026,0.035-0.03,0.04c0.014-0.01,0.097-0.061,0.247-0.131
			c0.003-0.001,0.006-0.003,0.009-0.005C96.06,175.471,96.349,175.358,96.737,175.264z"/>
		<path fill="#0AE2B3" d="M95.945,174.13c-1.111,0.681-5.139,3.062-8.374,3.875l-0.054,1.422c0.004-0.151-0.038-1.775-3.36-1.243
			c-3.482,0.557-6.894,0.577-6.894,0.577s0.936,4.126,6.437,3.683c-3.029,0.515-6.803,0.537-9.895-1.207
			c0,0-1.212-2.104-3.951-3.276c0.152,0.032,2.39,0.529,4.091,0.634c0.133,0.008,0.261,0.014,0.385,0.016
			c0.206,0.005,0.399,0.003,0.575-0.009c0,0,0.314-0.42,0.707-0.582c0.371-0.152,1.317-0.14,2.565-0.15
			c0.16-0.002,0.324-0.004,0.493-0.006c0.722-0.011,1.525-0.037,2.364-0.107c0.74-0.062,1.463-0.148,2.117-0.237
			c0.17-0.022,0.336-0.045,0.496-0.069c1.167-0.169,2.036-0.331,2.25-0.345c0.566-0.039,1.034,0.3,1.224,0.464
			c0.06,0.052,0.093,0.086,0.093,0.086s0.118-0.041,0.326-0.116c0.39-0.142,1.101-0.403,1.962-0.742
			c0.12-0.047,0.243-0.095,0.369-0.146c0.249-0.099,0.508-0.203,0.773-0.313c0.09-0.037,0.18-0.074,0.272-0.112l0.001,0
			c0.655-0.274,1.342-0.573,2.006-0.882c0.07-0.033,0.142-0.066,0.211-0.1c1.078-0.511,2.081-1.049,2.785-1.554
			C95.933,173.848,95.942,173.995,95.945,174.13z"/>
		<g>
			<path fill="#0AE2B3" d="M78.67,177.864l0.006,4.427l-0.5-4.421C78.336,177.867,78.5,177.866,78.67,177.864z"/>
			<path fill="#0AE2B3" d="M83.646,177.451l-0.192,4.514l-0.303-4.445C83.321,177.497,83.487,177.474,83.646,177.451z"/>
			<path fill="#0AE2B3" d="M74.329,178.611l-0.257,1.861l-0.128-1.877C74.077,178.603,74.205,178.609,74.329,178.611z"/>
			<path fill="#0AE2B3" d="M87.325,180.848c-0.012-1.283-0.134-2.612-0.204-3.279c0.06,0.052,0.093,0.086,0.093,0.086
				s0.118-0.041,0.326-0.116C87.651,179.37,87.325,180.848,87.325,180.848z"/>
			<path fill="#0AE2B3" d="M89.87,176.652l-0.191,2.755l-0.178-2.61C89.621,176.751,89.745,176.702,89.87,176.652z"/>
			<path fill="#0AE2B3" d="M90.916,176.226l-0.14,2.039l-0.131-1.927C90.734,176.302,90.823,176.265,90.916,176.226z"/>
			<path fill="#0AE2B3" d="M93.133,175.244l-0.109,1.588l-0.102-1.489C92.993,175.311,93.064,175.278,93.133,175.244z"/>
		</g>
		<g>
			<g>
				<path fill="#0CB797" d="M77.113,182.824c-2.3,0.69-5.012-4.672-9.464-4.261c-1.534,0.141-3.227,0.792-4.329,1.286
					c0.014-0.012,0.027-0.022,0.041-0.034c0.512-0.394,1.446-0.984,2.168-1.427c0,0,0.003-0.001,0.008-0.004
					c0.116-0.054,1.377-0.608,3.88-0.476C72.628,178.078,74.854,182.552,77.113,182.824z"/>
				<path fill="#0CB797" d="M101.454,175.678c-6.262-0.787-12.19,5.464-12.19,5.464c2.581-3.336,4.854-4.824,6.381-5.488
					c0.075-0.033,0.146-0.062,0.217-0.09c0.003-0.001,0.006-0.003,0.009-0.005c0.412-0.166,0.762-0.269,1.041-0.333
					c0.007-0.002,0.016-0.003,0.023-0.005c0.441-0.1,0.694-0.102,0.716-0.101c0.001,0,0.001,0,0.001,0
					C98.602,175.039,99.873,175.13,101.454,175.678z"/>
				<polygon fill="#0CB797" points="56.117,193.184 56.119,193.183 56.117,193.185 				"/>
				<path fill="#0CB797" d="M62.542,188.192c-3.884,1.665-6.132,4.596-6.399,4.956c0.586-0.812,1.106-1.289,1.106-1.289
					s0.219-0.761,0.516-1.853C59.856,188.89,62.444,188.217,62.542,188.192z"/>
				<path fill="#0CB797" d="M55.503,199.126c-0.88,2.23-1.927,3.41-1.992,3.482c0.373-0.596,0.673-0.94,0.673-0.94
					s-0.013-0.463,0.009-1.189C54.989,199.984,55.482,199.161,55.503,199.126z"/>
				<path fill="#0CB797" d="M99.222,152.52c-0.242,0.221-2.25,2.246-1.635,8.322c0,0-1.283-4.549,0.072-8.53
					c0.516,0.558,0.801,1.003,0.801,1.003C98.692,153.012,98.951,152.748,99.222,152.52z"/>
				<polygon fill="#0CB797" points="99.233,152.51 99.225,152.516 99.229,152.513 				"/>
				<path fill="#0CB797" d="M59.525,162.87c-0.233-0.319-0.433-0.537-0.593-0.683C59.316,162.5,59.478,162.777,59.525,162.87z"/>
				<path fill="#0CB797" d="M62.062,168.597c-0.972-3.129-1.87-4.809-2.52-5.703l0-0.001c0.051-0.566,0.185-0.989,0.354-1.304
					C61.535,164.615,62.062,168.597,62.062,168.597z"/>
				<path fill="#0CB797" d="M63.184,161.588c-1.361-1.187-2.752-0.647-2.752-0.647c0.3-0.231,0.557-0.269,0.557-0.269
					c0.015-0.144,0.032-0.284,0.051-0.421C62.528,160.544,63.184,161.588,63.184,161.588z"/>
				<path fill="#0CB797" d="M69.348,170.663c-0.053,0.069-1.37,1.77-2.712,2.985c-0.143-0.455-0.235-0.866-0.235-0.866
					C66.154,172.95,69.348,170.663,69.348,170.663z"/>
				<path fill="#0CB797" d="M94.67,164.987c0.16,0.421,0.279,0.868,0.366,1.319c-1.34-1.501-1.903-3.429-1.924-3.504
					c0.86,1.682,2.139,2.537,2.623,2.815C95.07,165.261,94.67,164.987,94.67,164.987z"/>
			</g>
		</g>
		<path fill="#089E81" d="M72.445,173.036l1.009,1.505c-1.619,1.284-4.491,2.973-6.076,3.188c-1.585,0.215-2.563-0.039-2.734-0.987
			c-0.13-0.721,1.148-1.957,1.767-2.508c0.195-0.173,0.325-0.279,0.325-0.279l0.325,0.702c0,0-1.872,1.93-0.614,2.159
			c0.04,0.008,0.084,0.013,0.13,0.018c1.509,0.121,5.808-3.927,5.808-3.927"/>
		<path fill="#0AE2B3" d="M66.448,176.816l-0.001,0.001c0,0-1.151,0.093-1.103-0.763c0.027-0.469,0.575-1.227,1.067-1.82
			c0.195-0.173,0.325-0.279,0.325-0.279l0.325,0.702C67.062,174.656,65.191,176.587,66.448,176.816z"/>
		<path fill="#089E81" d="M98.538,171.504c-0.286,0.423-0.801,0.865-1.627,1.33c-2.036,1.146-6.172,0.208-6.172,0.208l-0.471-2.208
			c0,0,2.657,1.419,5.311,1.238c0.597-0.041,1.064-0.14,1.417-0.272c0.911-0.339,1.08-0.901,0.824-1.268
			c-0.355-0.509-2.641-0.108-2.641-0.108l0.054-1.849c0,0,1.063,0.054,1.999,0.326c0.548,0.159,1.053,0.391,1.273,0.731
			C98.875,170.199,99.003,170.824,98.538,171.504z"/>
		<path fill="#0AE2B3" d="M98.538,171.504c-0.621,0.46-1.541,0.296-1.541,0.296c1.736-0.521,0.69-2.263,0.236-2.899
			c0.548,0.159,1.053,0.391,1.273,0.731C98.875,170.199,99.003,170.824,98.538,171.504z"/>
		
			<linearGradient id="SVGID_2_" gradientUnits="userSpaceOnUse" x1="70.3326" y1="138.0822" x2="75.6536" y2="155.6059" gradientTransform="matrix(0.9977 -0.068 0.068 0.9977 -14.6044 18.1664)">
			<stop  offset="0" style="stop-color:#E1DAE5"/>
			<stop  offset="1" style="stop-color:#F7F4F9"/>
		</linearGradient>
		<path fill="url(#SVGID_2_)" d="M68.467,149.259c0,0-3.147,1.409-2.775,8.424c0.372,7.015,6.168,10.673,6.168,10.673l0.101,1.486
			c0,0-4.469-1.402-6.991-7.097c-2.522-5.695-0.55-12.763,3.405-14.206L68.467,149.259z"/>
		
			<linearGradient id="SVGID_3_" gradientUnits="userSpaceOnUse" x1="93.4589" y1="130.1839" x2="96.7224" y2="145.1535" gradientTransform="matrix(0.9977 -0.068 0.068 0.9977 -14.6044 18.1664)">
			<stop  offset="0" style="stop-color:#E1DAE5"/>
			<stop  offset="1" style="stop-color:#F7F4F9"/>
		</linearGradient>
		<path fill="url(#SVGID_3_)" d="M87.519,144.461c0,0,4.042,1.538,5.806,7.071c1.764,5.533-1.387,9.375-4.527,11.829l1.016,2.384
			c0,0,5.531-3.364,6.088-9.269c0.557-5.905-3.55-11.385-7.652-13.665L87.519,144.461z"/>
		
			<linearGradient id="SVGID_4_" gradientUnits="userSpaceOnUse" x1="74.8633" y1="156.2944" x2="90.5423" y2="155.3012" gradientTransform="matrix(0.9977 -0.068 0.068 0.9977 -14.6044 18.1664)">
			<stop  offset="0" style="stop-color:#A193AD"/>
			<stop  offset="0.9961" style="stop-color:#CEC4D6"/>
		</linearGradient>
		<path fill="url(#SVGID_4_)" d="M90.91,173.99c-0.022,0.319-2.805,0.802-3.885,1.001c-4.348,0.799-8.804,1.351-13.359,1.668
			c-0.164,0.011-0.315-0.091-0.364-0.247c-1.118-3.537-1.893-7.169-2.368-10.884c-0.14-1.097-0.253-2.201-0.342-3.312
			c-0.028-0.348,0.195-0.668,0.531-0.762c5.889-1.66,11.737-2.612,17.532-2.607c0.343,0,0.641,0.24,0.716,0.575
			C90.326,163.671,91.069,171.632,90.91,173.99z"/>
		
			<linearGradient id="SVGID_5_" gradientUnits="userSpaceOnUse" x1="86.1695" y1="162.0658" x2="84.0291" y2="145.4935" gradientTransform="matrix(0.9977 -0.068 0.068 0.9977 -14.6044 18.1664)">
			<stop  offset="0" style="stop-color:#E1DAE5"/>
			<stop  offset="1" style="stop-color:#F7F4F9"/>
		</linearGradient>
		<path fill="url(#SVGID_5_)" d="M90.739,173.042c-0.022,0.319-2.805,0.803-3.885,1.001c-4.348,0.799-8.804,1.351-13.359,1.668
			c-0.164,0.011-0.315-0.091-0.364-0.247c-1.118-3.537-1.893-7.169-2.368-10.884c-0.14-1.097-0.254-2.201-0.342-3.312
			c-0.028-0.348,0.195-0.668,0.531-0.762c5.889-1.66,11.737-2.612,17.532-2.607c0.343,0,0.641,0.24,0.716,0.575
			C90.155,162.723,90.898,170.684,90.739,173.042z"/>
		<path fill="#089E81" d="M72.914,163.484c0,0,0.958,6.228,1.947,9.787l1.267-0.193c0,0-1.064-6.221-1.325-10.043L72.914,163.484z"
			/>
		<path fill="#089E81" d="M78.065,162.386c0,0,0.888,6.766,1.75,10.014l1.479-0.208c0,0-1.071-6.327-1.332-10.149L78.065,162.386z"
			/>
		<path fill="#0AE2B3" d="M75.809,163.713c0,0,0.265,2.329,0.586,3.907l1.267-0.193l-0.587-3.907
			C77.076,163.52,76.333,163.571,75.809,163.713z"/>
		<circle fill="#089E81" cx="85.436" cy="163.323" r="1.117"/>
		<circle fill="#089E81" cx="86.187" cy="168.072" r="1.117"/>
		<circle fill="#089E81" cx="87.277" cy="154.344" r="2.288"/>
		<path fill="#089E81" d="M68.467,149.259c0,0,0.499,1.694,1.088,2.507c0,0,10.902,5.016,19.396-4.949c0,0-0.584-2.307-1.293-3.325
			C87.657,143.492,82.557,151.904,68.467,149.259z"/>
		<path fill="#0CB797" d="M64.325,139.216c0,0-2.154,1.218-2.461,1.448c-0.668,0.5,1.925,7.77,2.879,7.804
			c0.573,0.02,2.511-0.678,2.511-0.678L64.325,139.216z"/>
		<circle fill="#C8B8D3" cx="63.196" cy="141.427" r="0.426"/>
		<path fill="#0CB797" d="M86.226,132.236c0,0,2.455-0.311,2.839-0.311c0.835,0.001,3.102,7.38,2.357,7.977
			c-0.447,0.359-2.418,0.958-2.418,0.958L86.226,132.236z"/>
		<circle fill="#C8B8D3" cx="88.452" cy="133.333" r="0.426"/>
		
			<linearGradient id="SVGID_6_" gradientUnits="userSpaceOnUse" x1="76.58" y1="115.1835" x2="83.1779" y2="115.1835" gradientTransform="matrix(0.9977 -0.068 0.068 0.9977 -14.6044 18.1664)">
			<stop  offset="0" style="stop-color:#E1DAE5"/>
			<stop  offset="1" style="stop-color:#F7F4F9"/>
		</linearGradient>
		<path fill="url(#SVGID_6_)" d="M69.915,129.059l-0.262-0.872c1.606-1.251,3.645-1.857,6.057-1.906l0.504,1.139L69.915,129.059z"/>
		<path fill="#0AE2B3" d="M89.276,142.208l-5.334,1.721l-16.062,5.179c-6.218-6.723-4.733-17.697,3.472-21.037
			c0.38-0.155,0.759-0.291,1.137-0.409c0.002-0.001,0.003-0.001,0.005-0.002C81.526,124.819,90.007,131.922,89.276,142.208z"/>
		
			<linearGradient id="SVGID_7_" gradientUnits="userSpaceOnUse" x1="77.9107" y1="137.8087" x2="89.6167" y2="134.8999" gradientTransform="matrix(0.9977 -0.068 0.068 0.9977 -14.6044 18.1664)">
			<stop  offset="0" style="stop-color:#E1DAE5"/>
			<stop  offset="1" style="stop-color:#F7F4F9"/>
		</linearGradient>
		<path fill="url(#SVGID_7_)" d="M89.276,142.208c0,0-1.887,6.742-9.657,8.552c-7.77,1.81-11.739-1.653-11.739-1.653L89.276,142.208
			z"/>
		<path fill="#0CB797" d="M89.276,142.208c0,0-1.452,2.537-4.637,4.721c-3.443,2.359-8.912,4.304-16.759,2.179
			c-3.413-6.414-1.438-12.902,3.384-15.99c0.363-0.233,0.742-0.446,1.135-0.638C78.354,129.572,87.292,131.89,89.276,142.208z"/>
		
			<linearGradient id="SVGID_8_" gradientUnits="userSpaceOnUse" x1="67.3639" y1="129.7688" x2="79.9943" y2="129.0704" gradientTransform="matrix(0.9977 -0.068 0.068 0.9977 -14.6044 18.1664)">
			<stop  offset="0" style="stop-color:#111011"/>
			<stop  offset="1" style="stop-color:#111011;stop-opacity:0"/>
		</linearGradient>
		<path opacity="0.5" fill="url(#SVGID_8_)" d="M84.639,146.929c-3.443,2.359-8.912,4.304-16.759,2.179
			c-3.413-6.414-1.438-12.902,3.384-15.99c-0.616,1.513-1.426,4.554-0.754,9.197c1.009,6.971,5.834,9.055,14.123,4.617
			C84.635,146.93,84.637,146.929,84.639,146.929z"/>
		
			<linearGradient id="SVGID_9_" gradientUnits="userSpaceOnUse" x1="85.9371" y1="118.9106" x2="89.4843" y2="129.3392" gradientTransform="matrix(0.9977 -0.068 0.068 0.9977 -14.6044 18.1664)">
			<stop  offset="0" style="stop-color:#EDE7F2"/>
			<stop  offset="1" style="stop-color:#EDE7F2;stop-opacity:0"/>
		</linearGradient>
		<path opacity="0.5" fill="url(#SVGID_9_)" d="M75.705,132.467c0,0,6.648-1.136,10.36,4.98c0.297,0.489,0.169,1.123-0.297,1.454
			l0,0c-0.524,0.372-1.254,0.209-1.571-0.349C83.212,136.818,80.729,133.517,75.705,132.467z"/>
		
			<linearGradient id="SVGID_10_" gradientUnits="userSpaceOnUse" x1="90.9071" y1="126.9874" x2="94.4544" y2="131.8827" gradientTransform="matrix(0.9977 -0.068 0.068 0.9977 -14.6044 18.1664)">
			<stop  offset="0" style="stop-color:#EDE7F2"/>
			<stop  offset="1" style="stop-color:#EDE7F2;stop-opacity:0"/>
		</linearGradient>
		<circle opacity="0.5" fill="url(#SVGID_10_)" cx="86.427" cy="140.717" r="0.851"/>
		<g>
			<g>
				<path fill="#089E81" d="M100.909,190.001c-0.366,0.7-0.89,1.021-1.386,1.673c0,0,0,0,0,0.001
					c-2.13,2.657-3.783,5.819-4.515,7.32c-0.61-0.807-1.08-1.595-1.396-2.17l0-0.001c0.229-0.939,0.798-2.771,2.089-4.886
					C98.411,191.401,100.852,190.053,100.909,190.001z"/>
				<path fill="#089E81" d="M109.38,185.735c-1.432,0.213-3.759,0.849-6.498,2.692c-1.196,0.805-2.332,1.967-3.358,3.248
					c0.396-0.539,0.822-0.746,1.188-1.446c-0.057,0.052-2.3,1.172-5.01,1.71c0.535-0.877,1.196-1.802,2.007-2.732
					c3.66-4.196,9.874-5.367,9.874-5.367C108.036,184.114,108.713,184.781,109.38,185.735z"/>
				<path fill="#089E81" d="M72.702,200.695c-0.082,0.026-0.127,0.039-0.127,0.039c-0.161,0.903-0.331,1.717-0.507,2.455
					c-0.531-0.829-1.346-1.88-2.57-3.005c0.152-0.123,0.305-0.236,0.456-0.338c0.433-0.292,0.826-0.618,1.202-0.991
					C71.854,199.627,72.386,200.288,72.702,200.695z"/>
				<path fill="#089E81" d="M71.155,198.855c-0.376,0.372-0.768,0.699-1.202,0.991c-0.151,0.102-0.304,0.215-0.456,0.338
					c-1.065-0.98-2.44-2.015-4.206-3.007c-4.442-2.496-8.384-2.127-10.398-1.66c0.156-0.461,0.353-0.891,0.564-1.282
					c0.212-0.391,0.439-0.744,0.659-1.05l0-0.001c0,0,0-0.001,0.002-0.001c0.003-0.004,0.012-0.017,0.024-0.035
					c0.006-0.008,0.011-0.015,0.017-0.022c0.002-0.003,0.005-0.006,0.007-0.009c0.003-0.003,0.005-0.007,0.008-0.01
					c0.008-0.011,0.016-0.022,0.023-0.034c0.019-0.025,0.036-0.049,0.055-0.073c0.018-0.024,0.035-0.048,0.054-0.071
					c0.065-0.084,0.127-0.165,0.189-0.241c0.371-0.054,0.803-0.104,1.283-0.135c1.842-0.122,4.388,0.012,6.85,1.15
					C67.258,194.918,69.613,197.153,71.155,198.855z"/>
				<path fill="#089E81" d="M104.209,166.462c-0.272,0.14-0.565,0.27-0.879,0.387c-0.224,0.084-0.452,0.151-0.682,0.204
					c-0.736-0.996-1.327-2.01-1.803-3.018c0.601-0.053,1.156-0.177,1.667-0.35C103.121,164.918,103.728,165.832,104.209,166.462z"/>
				<path fill="#089E81" d="M102.513,163.685c-0.511,0.173-1.066,0.298-1.667,0.35c-2.237-4.752-1.861-9.396-1.469-11.644l0.001,0
					c0.396-0.314,0.812-0.561,1.206-0.752c-0.422,2.326-0.272,6.564,1.124,10.201C101.969,162.521,102.241,163.135,102.513,163.685z
					"/>
				<path fill="#089E81" d="M60.476,171.32c-0.318,1.589-0.815,2.736-1.242,3.496c-0.91,0.173-1.783,0.2-2.607,0.124
					c0.904-1.004,1.552-2.092,2.007-3.199C59.36,171.685,59.979,171.516,60.476,171.32z"/>
				<path fill="#089E81" d="M60.476,171.32c-0.498,0.196-1.116,0.365-1.842,0.421c1.562-3.804,0.854-7.833,0.474-9.399
					c0.26,0.246,0.377,0.45,0.417,0.527c0.001,0.001,0.001,0.001,0.001,0.002c0.01,0.02,0.015,0.031,0.015,0.031
					c0-0.003,0.001-0.005,0.002-0.009l0-0.001c0.051-0.566,0.185-0.989,0.354-1.304c0.026-0.048,0.052-0.093,0.079-0.137
					C61.023,165.781,60.937,169.016,60.476,171.32z"/>
			</g>
		</g>
		<linearGradient id="SVGID_11_" gradientUnits="userSpaceOnUse" x1="68.9875" y1="157.2268" x2="76.9175" y2="157.2268">
			<stop  offset="0" style="stop-color:#E1DAE5"/>
			<stop  offset="1" style="stop-color:#F7F4F9"/>
		</linearGradient>
		<path opacity="0.5" fill="url(#SVGID_11_)" d="M70.122,159.438c1.045-0.242,3.701-0.847,6.357-1.358
			c0.296-0.057,0.488-0.345,0.427-0.641l-0.417-2.006c-0.059-0.284-0.331-0.47-0.616-0.423c-1.252,0.206-4.515,0.778-6.517,1.447
			c-0.253,0.085-0.405,0.342-0.359,0.604c0.084,0.484,0.243,1.282,0.491,2.021C69.575,159.347,69.85,159.501,70.122,159.438z"/>
		<path fill="#0AE2B3" d="M53.139,170.699c-1.09,0.426-2.123,0.58-3.034,0.586c-2.127,0.015-3.592-0.774-3.592-0.774
			s-0.089,0.19-0.415,0.374c-0.002,0.001-0.004,0.002-0.006,0.004c-0.42,0.236-1.229,0.46-2.735,0.264
			c-2.691-0.35-3.641-1.778-3.607-2.847c0.01-0.305,0.19-0.535,0.458-0.709c0,0,0.001,0,0.003-0.001
			c0.674-0.434,1.908-0.518,2.439-0.555c0.743-0.051,0.941-0.277,0.586-0.787c-0.018-0.025-0.039-0.049-0.062-0.071
			c-0.449-0.439-1.936-0.459-2.778-0.908c-0.886-0.473-1.39-1.612-1.363-2.787c0.014-0.579,0.535-0.908,1.232-1.014
			c0.719-0.111,1.622,0.014,2.349,0.343c1.431,0.649,1.947,0.401,2.003-0.35c0.039-0.532-1.06-1.255-2.068-1.947
			c-0.413-0.284-0.811-0.563-1.108-0.823c-1.021-0.89-0.401-2.746,1.39-3.081c0.189-0.035,0.364-0.033,0.528-0.002l0.001,0
			c1.399,0.27,1.995,2.676,2.83,2.333c0.934-0.384,0.239-1.19-1.023-2.49c-0.165-0.171-0.336-0.357-0.502-0.553
			c-1.1-1.303-2.056-3.078-0.822-3.996c0.283-0.211,0.632-0.269,1.023-0.198c1.566,0.283,3.794,2.64,5.101,5.54
			c0.477,1.058,0.844,1.713,1.126,2.112c0.492,0.696,0.721,0.607,0.811,0.502c0.035-0.04,0.049-0.082,0.049-0.082
			c0.339-0.503,0.547-3.717,0.727-5.756c0.03-0.331,0.068-0.651,0.116-0.956c0.253-1.578,0.78-2.766,1.747-3.011
			c0.172-0.044,0.33-0.067,0.477-0.07c0.84-0.015,1.286,0.661,1.487,2.283c0.05,0.404,0.056,0.787,0.034,1.158
			c-0.083,1.382-0.546,2.613-0.522,4.208c0.031,2.025,1.245,4.182,1.639,6.822S56.775,169.278,53.139,170.699z"/>
		<path fill="#0AE2B3" d="M46.862,153.741c-0.135,1.144-1.379,1.232-2.198,1.162c-0.121-0.142-0.238-0.29-0.352-0.442
			c-0.93-1.238-1.569-2.736-0.47-3.554c0.283-0.211,0.632-0.269,1.023-0.198c0.338,0.413,1.025,0.935,1.5,1.563
			C46.697,152.71,46.926,153.199,46.862,153.741z"/>
		<path fill="#0AE2B3" d="M44.703,158.048c-0.212,0.707-0.893,1.727-2.155,1.472c-0.347-0.239-0.683-0.474-0.957-0.696
			c-0.053-0.042-0.103-0.085-0.15-0.126c-1.021-0.89-0.401-2.746,1.39-3.081c0.189-0.035,0.364-0.033,0.528-0.002l0.001,0
			c0.27,0.29,0.728,0.811,1.038,1.332c0.001,0.001,0.002,0.002,0.002,0.002C44.639,157.349,44.792,157.752,44.703,158.048z"/>
		<path fill="#0AE2B3" d="M43.767,166.219c-0.133,0.024-0.339,0.009-0.593-0.035c-0.36-0.087-0.686-0.164-0.991-0.245
			c-0.656-0.173-1.213-0.357-1.787-0.663c-0.886-0.473-1.39-1.612-1.363-2.787c0.014-0.579,0.535-0.908,1.232-1.014
			c0.474,0.408,1.32,1.083,1.989,1.328c0.195,0.071,0.4,0.154,0.602,0.247c0.823,0.374,1.631,0.901,1.75,1.406
			C44.756,165.084,44.715,166.047,43.767,166.219z"/>
		<path fill="#0AE2B3" d="M46.098,170.885c-0.002,0.001-0.004,0.002-0.006,0.004c-0.383,0.215-1.09,0.421-2.355,0.307
			c-0.121-0.011-0.248-0.025-0.381-0.042c-2.691-0.35-3.641-1.778-3.607-2.847c0.01-0.305,0.19-0.535,0.458-0.709
			c0,0,0.001,0,0.003-0.001c0.064-0.026,1.141-0.426,3.694,0.64c0.077,0.032,0.152,0.064,0.225,0.096
			C46.576,169.379,47.172,170.112,46.098,170.885z"/>
		<path fill="#0CB797" d="M50.193,165.83c-0.069-0.131-2.1-4.06,0.901-7.469c0.492,0.696,0.721,0.607,0.811,0.502l0.063,0.13
			C51.967,158.993,49.151,163.021,50.193,165.83z"/>
		<path fill="#0CB797" d="M53.139,170.699c-1.09,0.426-2.123,0.58-3.034,0.586c6.538-1.491,5.713-7.613,4.932-9.515
			c-0.895-2.179-1.105-5.258,0.065-8.431c0.86-2.332,0.284-3.759-0.081-4.352c0.84-0.015,1.286,0.661,1.487,2.283
			c0.05,0.404,0.056,0.787,0.034,1.158c-0.083,1.382-0.546,2.613-0.522,4.208c0.031,2.025,1.245,4.182,1.639,6.822
			S56.775,169.278,53.139,170.699z"/>
		<path fill="#0CB797" d="M56.541,152.428c-1.592,0.758-3.011,0.117-3.745-0.36c0.253-1.578,0.78-2.766,1.747-3.011
			c1.153-0.292,1.728,0.309,1.964,2.213C56.557,151.674,56.563,152.056,56.541,152.428z"/>
		<path fill="#0CB797" d="M46.862,153.741c-0.135,1.144-2.284,1.702-2.55,0.72c0.215-2.114,1.414-2.265,2.053-2.189
			C46.697,152.71,46.926,153.199,46.862,153.741z"/>
		<path fill="#0CB797" d="M44.703,158.048c-0.047,1.702-2.482,1.929-3.112,0.775c-0.181-0.517-0.212-1.15,0.272-1.755
			c1.058-1.325,2.476-0.172,2.535-0.123c0.001,0.001,0.002,0.002,0.002,0.002C44.639,157.349,44.711,157.739,44.703,158.048z"/>
		<path fill="#0CB797" d="M43.767,166.219c-0.133,0.024-0.339,0.009-0.593-0.035c-0.36-0.087-0.686-0.164-0.991-0.245
			c-0.419-1.452,0.231-2.426,0.673-2.89c0.823,0.374,1.631,0.901,1.75,1.406C44.756,165.084,44.715,166.047,43.767,166.219z"/>
		<path fill="#0CB797" d="M46.098,170.885c-0.002,0.001-0.004,0.002-0.006,0.004c-0.383,0.215-1.09,0.421-2.355,0.307
			c-0.289-0.43-0.453-1.105-0.284-1.756c0.161-0.622,0.472-0.952,0.676-1.108C46.576,169.379,47.172,170.112,46.098,170.885z"/>
		<path fill="#0AE2B3" d="M106.624,163.327c1.15,0.216,2.193,0.175,3.09,0.011c2.093-0.381,3.385-1.428,3.385-1.428
			s0.123,0.17,0.477,0.29c0.002,0.001,0.004,0.002,0.007,0.002c0.457,0.153,1.294,0.224,2.737-0.249
			c2.578-0.844,3.247-2.424,3.015-3.468c-0.067-0.298-0.286-0.49-0.582-0.611c0,0-0.001,0-0.003-0.001
			c-0.743-0.301-1.971-0.155-2.5-0.091c-0.74,0.088-0.976-0.098-0.722-0.664c0.013-0.028,0.029-0.055,0.048-0.082
			c0.36-0.515,1.817-0.811,2.56-1.409c0.782-0.629,1.066-1.842,0.821-2.992c-0.121-0.566-0.695-0.793-1.399-0.767
			c-0.727,0.025-1.591,0.316-2.244,0.774c-1.285,0.904-1.839,0.756-2.033,0.029c-0.138-0.515,0.809-1.43,1.67-2.298
			c0.353-0.356,0.692-0.704,0.936-1.014c0.837-1.065-0.117-2.773-1.939-2.769c-0.192,0-0.363,0.035-0.519,0.096l-0.001,0
			c-1.324,0.526-1.462,3-2.347,2.818c-0.989-0.203-0.456-1.124,0.542-2.637c0.131-0.199,0.264-0.413,0.39-0.637
			c0.839-1.485,1.448-3.407,0.064-4.079c-0.318-0.155-0.671-0.147-1.042-0.004c-1.486,0.569-3.237,3.3-3.982,6.392
			c-0.272,1.128-0.511,1.84-0.714,2.285c-0.354,0.775-0.595,0.73-0.703,0.644c-0.041-0.033-0.063-0.072-0.063-0.072
			c-0.427-0.431-1.228-3.551-1.785-5.521c-0.091-0.319-0.187-0.627-0.292-0.918c-0.542-1.503-1.281-2.572-2.276-2.633
			c-0.177-0.011-0.337-0.005-0.482,0.02c-0.828,0.142-1.14,0.889-1.037,2.519c0.026,0.406,0.091,0.783,0.182,1.144
			c0.338,1.342,1.022,2.466,1.295,4.038c0.346,1.995-0.446,4.34-0.342,7.007C100.941,159.719,102.787,162.607,106.624,163.327z"/>
		<path fill="#0AE2B3" d="M109.638,145.497c0.346,1.099,1.584,0.954,2.376,0.733c0.092-0.162,0.18-0.329,0.264-0.5
			c0.684-1.389,1.033-2.98-0.199-3.579c-0.318-0.155-0.671-0.147-1.042-0.004c-0.255,0.469-0.833,1.109-1.183,1.814
			C109.609,144.454,109.475,144.977,109.638,145.497z"/>
		<path fill="#0AE2B3" d="M112.561,149.328c0.34,0.655,1.199,1.531,2.391,1.045c0.297-0.299,0.583-0.593,0.811-0.862
			c0.044-0.051,0.085-0.102,0.124-0.152c0.837-1.065-0.117-2.773-1.939-2.769c-0.192,0-0.363,0.035-0.519,0.096l-0.001,0
			c-0.212,0.335-0.565,0.932-0.772,1.502c-0.001,0.001-0.002,0.002-0.002,0.002C112.493,148.63,112.419,149.053,112.561,149.328z"/>
		<path fill="#0AE2B3" d="M115,157.182c0.135-0.001,0.334-0.054,0.576-0.145c0.338-0.153,0.644-0.289,0.928-0.425
			c0.612-0.292,1.125-0.576,1.633-0.984c0.782-0.629,1.066-1.842,0.821-2.992c-0.121-0.566-0.695-0.793-1.399-0.767
			c-0.39,0.489-1.095,1.31-1.708,1.675c-0.178,0.106-0.364,0.226-0.546,0.355c-0.739,0.52-1.435,1.189-1.458,1.707
			C113.817,156.251,114.036,157.19,115,157.182z"/>
		<path fill="#0AE2B3" d="M113.577,162.2c0.002,0.001,0.004,0.002,0.007,0.002c0.416,0.14,1.149,0.211,2.371-0.136
			c0.117-0.033,0.239-0.07,0.366-0.112c2.578-0.844,3.247-2.424,3.015-3.468c-0.067-0.298-0.286-0.49-0.582-0.611
			c0,0-0.001,0-0.003-0.001c-0.068-0.013-1.2-0.206-3.51,1.315c-0.07,0.046-0.137,0.091-0.203,0.136
			C112.827,160.81,112.378,161.641,113.577,162.2z"/>
		<path fill="#0CB797" d="M108.614,157.995c0.043-0.141,1.308-4.38-2.274-7.172c-0.354,0.775-0.595,0.73-0.703,0.644l-0.038,0.14
			C105.599,151.607,109.115,155.042,108.614,157.995z"/>
		<path fill="#0CB797" d="M106.624,163.327c1.15,0.216,2.193,0.175,3.09,0.011c-6.702-0.249-7.029-6.418-6.615-8.432
			c0.475-2.307,0.108-5.372-1.632-8.272c-1.278-2.131-0.978-3.641-0.729-4.291c-0.828,0.142-1.14,0.889-1.037,2.519
			c0.026,0.406,0.091,0.783,0.182,1.144c0.338,1.342,1.022,2.466,1.295,4.038c0.346,1.995-0.446,4.34-0.342,7.007
			C100.941,159.719,102.787,162.607,106.624,163.327z"/>
		<path fill="#0CB797" d="M99.884,146.007c1.705,0.449,2.98-0.445,3.613-1.05c-0.542-1.503-1.281-2.572-2.276-2.633
			c-1.188-0.072-1.64,0.625-1.519,2.539C99.728,145.269,99.793,145.646,99.884,146.007z"/>
		<path fill="#0CB797" d="M109.638,145.497c0.346,1.099,2.561,1.248,2.64,0.233c-0.605-2.037-1.81-1.963-2.425-1.769
			C109.609,144.454,109.475,144.977,109.638,145.497z"/>
		<path fill="#0CB797" d="M112.561,149.328c0.363,1.663,2.797,1.434,3.202,0.183c0.082-0.541-0.006-1.17-0.593-1.674
			c-1.286-1.106-2.465,0.291-2.513,0.351c-0.001,0.001-0.002,0.002-0.002,0.002C112.493,148.63,112.495,149.026,112.561,149.328z"/>
		<path fill="#0CB797" d="M115,157.182c0.135-0.001,0.334-0.054,0.576-0.145c0.338-0.153,0.644-0.289,0.928-0.425
			c0.142-1.505-0.678-2.341-1.199-2.714c-0.739,0.52-1.435,1.189-1.458,1.707C113.817,156.251,114.036,157.19,115,157.182z"/>
		<path fill="#0CB797" d="M113.577,162.2c0.002,0.001,0.004,0.002,0.007,0.002c0.416,0.14,1.149,0.211,2.371-0.136
			c0.203-0.477,0.24-1.17-0.047-1.778c-0.274-0.581-0.64-0.847-0.871-0.963C112.827,160.81,112.378,161.641,113.577,162.2z"/>
		<path fill="#0AE2B3" d="M101.059,222.351c0,0-0.927-3.07-0.717-4.684c0.21-1.614,9.449-24.111,21.504-24.08L101.059,222.351z"/>
		
			<linearGradient id="SVGID_12_" gradientUnits="userSpaceOnUse" x1="101.5031" y1="201.8836" x2="126.227" y2="201.8836" gradientTransform="matrix(0.9977 -0.068 0.068 0.9977 -14.6044 18.1664)">
			<stop  offset="0" style="stop-color:#E1DAE5"/>
			<stop  offset="1" style="stop-color:#F7F4F9"/>
		</linearGradient>
		<path fill="url(#SVGID_12_)" d="M103.911,230.119c0,0-2.695-2.151-2.944-9.234c-0.249-7.084,14.176-31.747,22.954-26.586
			L103.911,230.119z"/>
		<path fill="#0CB797" d="M126.185,203.128c-0.003,0.289-0.01,0.583-0.022,0.884c-0.054,1.472-0.196,3.068-0.443,4.761
			c-0.041,0.28-0.084,0.564-0.132,0.851c-0.24,1.471-0.559,3.01-0.967,4.6c-0.071,0.273-0.143,0.547-0.219,0.823
			c-0.484,1.769-1.078,3.596-1.798,5.459c-0.101,0.264-0.206,0.529-0.314,0.795c-0.635,1.576-1.36,3.175-2.184,4.785
			c-0.131,0.256-0.264,0.512-0.4,0.769c-0.733,1.381-1.538,2.768-2.423,4.153c-0.072,0.115-0.146,0.23-0.221,0.345
			c-0.001,0.001-0.001,0.002-0.002,0.002c-0.181,0.109-0.363,0.213-0.546,0.309c-6.389,3.372-14.089-1.005-14.118-4.217
			c0-0.032,0.001-0.067,0.002-0.106c0.01-0.203,0.047-0.493,0.112-0.857c0.183-1.021,0.574-2.623,1.124-4.551
			c0.076-0.266,0.155-0.541,0.237-0.819c0.448-1.527,0.985-3.22,1.583-4.968c0.092-0.267,0.185-0.535,0.279-0.805
			c0.631-1.796,1.324-3.628,2.054-5.381c0.11-0.265,0.222-0.528,0.333-0.789c0.658-1.53,1.343-2.981,2.039-4.272
			c0.14-0.26,0.282-0.514,0.423-0.762c0.17-0.296,0.34-0.583,0.51-0.857c0.724-1.167,1.469-2.237,2.223-3.202
			c0.191-0.245,0.383-0.484,0.575-0.714c1.474-1.776,2.968-3.156,4.393-4.108c0.331-0.221,0.657-0.418,0.979-0.592
			c1.751-0.947,3.356-1.197,4.635-0.684c0.625,0.251,1.186,1.159,1.595,2.592c0.087,0.299,0.165,0.621,0.236,0.964
			C126.043,199.027,126.215,200.923,126.185,203.128z"/>
		<g>
			<path fill="#0AE2B3" d="M125.732,197.536l-7.446-2.28c0.331-0.221,0.657-0.418,0.979-0.592l6.23,1.908
				C125.582,196.871,125.661,197.193,125.732,197.536z"/>
			<path fill="#0AE2B3" d="M126.185,203.128c-0.003,0.289-0.01,0.583-0.022,0.884l-12.845-3.934
				c0.191-0.245,0.383-0.484,0.575-0.714L126.185,203.128z"/>
			<path fill="#0AE2B3" d="M125.72,208.772c-0.041,0.28-0.084,0.564-0.132,0.851l-15.426-4.724c0.14-0.26,0.282-0.514,0.423-0.762
				L125.72,208.772z"/>
			<path fill="#0AE2B3" d="M124.621,214.223c-0.071,0.273-0.143,0.547-0.219,0.823l-16.613-5.087
				c0.11-0.265,0.222-0.528,0.333-0.789L124.621,214.223z"/>
			<path fill="#0AE2B3" d="M122.603,220.506c-0.101,0.264-0.206,0.529-0.314,0.795l-16.834-5.155
				c0.092-0.267,0.185-0.535,0.279-0.805L122.603,220.506z"/>
			<path fill="#0AE2B3" d="M120.106,226.085c-0.131,0.256-0.264,0.512-0.4,0.769l-16.071-4.921c0.076-0.266,0.155-0.541,0.237-0.819
				L120.106,226.085z"/>
			<path fill="#0AE2B3" d="M117.283,231.007c-0.072,0.115-0.146,0.23-0.221,0.345c-0.001,0.001-0.001,0.002-0.002,0.002
				c-0.181,0.109-0.363,0.213-0.546,0.309l-14.116-4.323c0.01-0.203,0.047-0.493,0.112-0.857L117.283,231.007z"/>
		</g>
		<path fill="#0AE2B3" d="M71.798,228.291c0,0-1.208-2.971-2.385-4.095c-1.177-1.124-22.498-12.824-31.859-5.227L71.798,228.291z"/>
		
			<linearGradient id="SVGID_13_" gradientUnits="userSpaceOnUse" x1="-1409.0615" y1="708.1111" x2="-1384.3364" y2="708.1111" gradientTransform="matrix(-0.819 0.5738 0.5738 0.819 -1494.0925 448.9279)">
			<stop  offset="0" style="stop-color:#E1DAE5"/>
			<stop  offset="1" style="stop-color:#F7F4F9"/>
		</linearGradient>
		<path fill="url(#SVGID_13_)" d="M74.458,236.127c0,0,0.746-3.366-3.51-9.034c-4.256-5.668-30.973-15.796-34.561-6.266
			L74.458,236.127z"/>
		<path fill="#0CB797" d="M40.172,229.118c0.184,0.223,0.374,0.447,0.572,0.674c0.967,1.112,2.08,2.264,3.336,3.426
			c0.208,0.192,0.42,0.386,0.637,0.579c1.111,0.994,2.326,1.99,3.642,2.972c0.227,0.167,0.455,0.336,0.688,0.503
			c1.488,1.072,3.098,2.12,4.829,3.118c0.245,0.142,0.493,0.282,0.743,0.421c1.484,0.827,3.053,1.616,4.705,2.351
			c0.263,0.117,0.527,0.233,0.794,0.347c1.437,0.614,2.936,1.188,4.494,1.71c0.128,0.044,0.258,0.087,0.388,0.129
			c0.001,0,0.002,0.001,0.003,0c0.21-0.029,0.416-0.063,0.619-0.103c7.089-1.389,10.331-9.632,8.336-12.15
			c-0.02-0.025-0.043-0.052-0.068-0.081c-0.135-0.152-0.347-0.354-0.626-0.596c-0.784-0.679-2.094-1.68-3.734-2.835
			c-0.226-0.16-0.46-0.323-0.7-0.488c-1.308-0.907-2.789-1.887-4.353-2.871c-0.239-0.15-0.48-0.3-0.723-0.451
			c-1.619-1.001-3.309-1.992-4.979-2.896c-0.252-0.137-0.505-0.271-0.755-0.404c-1.473-0.777-2.918-1.476-4.271-2.043
			c-0.272-0.114-0.542-0.223-0.807-0.327c-0.318-0.124-0.631-0.24-0.935-0.347c-1.296-0.454-2.548-0.818-3.741-1.095
			c-0.302-0.07-0.602-0.136-0.896-0.194c-2.262-0.456-4.292-0.591-5.998-0.436c-0.396,0.036-0.774,0.088-1.134,0.155
			c-1.957,0.363-3.364,1.177-4.036,2.379c-0.329,0.588-0.195,1.647,0.387,3.019c0.121,0.287,0.262,0.587,0.422,0.899
			C37.707,225.838,38.764,227.422,40.172,229.118z"/>
		<g>
			<path fill="#0AE2B3" d="M37.012,224.483l4.361-6.452c-0.396,0.036-0.774,0.088-1.134,0.155l-3.649,5.398
				C36.711,223.872,36.852,224.172,37.012,224.483z"/>
			<path fill="#0AE2B3" d="M40.172,229.118c0.184,0.223,0.374,0.447,0.572,0.674l7.523-11.13c-0.302-0.07-0.602-0.136-0.896-0.194
				L40.172,229.118z"/>
			<path fill="#0AE2B3" d="M44.08,233.218c0.208,0.192,0.42,0.386,0.637,0.579l9.035-13.366c-0.272-0.114-0.542-0.223-0.807-0.327
				L44.08,233.218z"/>
			<path fill="#0AE2B3" d="M48.36,236.769c0.227,0.167,0.455,0.336,0.688,0.503l9.73-14.394c-0.252-0.137-0.505-0.271-0.755-0.404
				L48.36,236.769z"/>
			<path fill="#0AE2B3" d="M53.876,240.39c0.245,0.142,0.493,0.282,0.743,0.421l9.859-14.586c-0.239-0.15-0.48-0.3-0.723-0.451
				L53.876,240.39z"/>
			<path fill="#0AE2B3" d="M59.324,243.162c0.263,0.117,0.527,0.233,0.794,0.347l9.413-13.925c-0.226-0.16-0.46-0.323-0.7-0.488
				L59.324,243.162z"/>
			<path fill="#0AE2B3" d="M64.612,245.218c0.128,0.044,0.258,0.087,0.388,0.129c0.001,0,0.002,0.001,0.003,0
				c0.21-0.029,0.416-0.063,0.619-0.103l8.267-12.231c-0.135-0.152-0.347-0.354-0.626-0.596L64.612,245.218z"/>
		</g>
	</g>
	<!-- <text transform="matrix(1 0 0 1 104.9808 48.5888)" fill="#0AE2B3" font-family="'Poppins-Medium'" font-size="18">Look like you’re lost in space</text> -->
</g>
<g id="DESIGNED_BY_FREEPIK">
</g>
</svg>
