<?xml version="1.0" encoding="utf-8"?>
<!-- Generator: Adobe Illustrator 17.0.0, SVG Export Plug-In . SVG Version: 6.00 Build 0)  -->
<!DOCTYPE svg PUBLIC "-//W3C//DTD SVG 1.1//EN" "http://www.w3.org/Graphics/SVG/1.1/DTD/svg11.dtd">
<svg version="1.1" xmlns="http://www.w3.org/2000/svg" xmlns:xlink="http://www.w3.org/1999/xlink" x="0px" y="0px"
	 width="461.977px" height="283.486px" viewBox="0 0 461.977 283.486" enable-background="new 0 0 461.977 283.486"
	 xml:space="preserve">
<g id="BACKGROUND">
</g>
<g id="OBJECTS">
	<g>
		<g>
			<g opacity="0.5">
				<path fill="#0AE2B3" d="M120.014,147.174c13.582,0,24.396,3.815,32.44,11.44c8.04,7.628,12.063,18.074,12.063,31.339
					c0,15.704-4.842,27.785-14.52,36.243c-9.681,8.461-23.527,12.689-41.539,12.689c-15.641,0-28.271-2.528-37.887-7.589v-25.645
					c5.061,2.688,10.957,4.88,17.685,6.578c6.729,1.697,13.105,2.543,19.127,2.543c18.133,0,27.203-7.423,27.203-22.269
					c0-14.14-9.387-21.213-28.161-21.213c-3.397,0-7.147,0.338-11.247,1.009c-4.1,0.673-7.432,1.394-9.995,2.16l-11.823-6.352
					l5.29-71.819h76.251v25.254h-50.172l-2.593,27.657l3.364-0.673C109.408,147.625,114.247,147.174,120.014,147.174z"/>
				<path fill="#0AE2B3" d="M278.875,166.593c0,24.58-4.023,42.773-12.069,54.581c-8.046,11.808-20.433,17.712-37.163,17.712
					c-16.22,0-28.449-6.097-36.685-18.291c-8.239-12.194-12.357-30.194-12.357-54.003c0-24.836,4.005-43.141,12.019-54.919
					c8.013-11.775,20.356-17.665,37.023-17.665c16.217,0,28.479,6.162,36.78,18.483
					C274.724,124.813,278.875,142.846,278.875,166.593z M210.148,166.637c0,17.264,1.486,29.633,4.465,37.109
					c2.976,7.476,7.987,11.215,15.03,11.215c6.913,0,11.906-3.786,14.98-11.357c3.074-7.571,4.61-19.896,4.61-36.967
					c0-17.261-1.555-29.66-4.658-37.201c-3.106-7.542-8.085-11.313-14.932-11.313c-6.978,0-11.974,3.771-14.983,11.313
					C211.652,136.977,210.148,149.376,210.148,166.637z"/>
				<path fill="#0AE2B3" d="M391.405,166.593c0,24.58-4.023,42.773-12.069,54.581c-8.046,11.808-20.433,17.712-37.163,17.712
					c-16.22,0-28.449-6.097-36.685-18.291c-8.239-12.194-12.357-30.194-12.357-54.003c0-24.836,4.005-43.141,12.019-54.919
					c8.013-11.775,20.356-17.665,37.023-17.665c16.217,0,28.479,6.162,36.78,18.483S391.405,142.846,391.405,166.593z
					 M322.678,166.637c0,17.264,1.486,29.633,4.465,37.109c2.976,7.476,7.987,11.215,15.03,11.215
					c6.913,0,11.906-3.786,14.98-11.357c3.074-7.571,4.611-19.896,4.611-36.967c0-17.261-1.555-29.66-4.658-37.201
					c-3.106-7.542-8.085-11.313-14.932-11.313c-6.978,0-11.974,3.771-14.983,11.313
					C324.182,136.977,322.678,149.376,322.678,166.637z"/>
			</g>
			<g>
				<path fill="#089E81" d="M230.017,223.752c0.125,0.004,0.251,0.035,0.368,0.097c3.323,1.761,6.924,2.708,10.704,2.816
					c0.463,0.013,0.828,0.399,0.815,0.863c-0.013,0.463-0.399,0.828-0.863,0.815c-4.04-0.115-7.889-1.128-11.442-3.011
					c-0.409-0.217-0.565-0.725-0.348-1.134C229.405,223.906,229.708,223.743,230.017,223.752z"/>
				<circle fill="#089E81" cx="330.626" cy="147.177" r="1.69"/>
				<path fill="#0CB797" d="M346.682,173.581c-14.559,8.853-33.606,4.212-42.459-10.347c-8.853-14.559-4.212-33.606,10.347-42.459
					c14.559-8.853,33.606-4.212,42.459,10.347C365.883,145.68,361.241,164.727,346.682,173.581z M316.201,123.456
					c-13.08,7.954-17.25,25.066-9.296,38.146c7.954,13.08,25.066,17.25,38.146,9.296c13.08-7.954,17.25-25.066,9.296-38.146
					C346.393,119.673,329.281,115.502,316.201,123.456z"/>
				<path fill="#089E81" d="M328.81,122.73c-0.107,0.065-0.229,0.107-0.362,0.119c-3.746,0.329-7.284,1.492-10.514,3.457
					c-0.396,0.241-0.912,0.115-1.153-0.281c-0.241-0.396-0.115-0.912,0.281-1.153c3.453-2.1,7.235-3.343,11.24-3.695
					c0.461-0.04,0.869,0.301,0.909,0.763C329.239,122.268,329.074,122.569,328.81,122.73z"/>
				<path fill="#089E81" d="M347.795,175.41c-15.567,9.467-35.934,4.503-45.401-11.064c-9.467-15.567-4.503-35.934,11.064-45.401
					c15.567-9.467,35.934-4.503,45.401,11.064C368.325,145.576,363.362,165.943,347.795,175.41z M315.202,121.813
					c-13.986,8.505-18.445,26.803-9.94,40.789c8.505,13.986,26.803,18.445,40.789,9.94c13.986-8.505,18.445-26.803,9.94-40.789
					C347.486,117.767,329.188,113.308,315.202,121.813z"/>
				<circle fill="#089E81" cx="241.189" cy="204.089" r="1.69"/>
				<path fill="#0CB797" d="M240.951,171.357c17.032,0.486,30.493,14.739,30.007,31.771c-0.487,17.032-14.739,30.493-31.771,30.007
					c-17.032-0.486-30.494-14.739-30.007-31.772C209.666,184.332,223.919,170.871,240.951,171.357z M239.276,229.998
					c15.302,0.437,28.107-11.657,28.544-26.959c0.437-15.302-11.657-28.107-26.959-28.544
					c-15.302-0.437-28.107,11.657-28.544,26.959C211.88,216.756,223.974,229.561,239.276,229.998z"/>
				<path fill="#089E81" d="M241.012,169.217c18.212,0.52,32.606,15.76,32.086,33.972c-0.52,18.212-15.76,32.606-33.972,32.086
					c-18.213-0.52-32.606-15.76-32.086-33.973C207.56,183.091,222.8,168.697,241.012,169.217z M239.221,231.92
					c16.362,0.467,30.054-12.464,30.521-28.826c0.467-16.362-12.464-30.054-28.826-30.521
					c-16.362-0.467-30.054,12.464-30.522,28.826C209.928,217.761,222.859,231.453,239.221,231.92z"/>
				<path fill="#089E81" d="M288.004,121.533c-0.478,0.29-1.106,0.261-1.558-0.117l-8.775-7.327
					c-0.089-0.075-0.249-0.188-0.434-0.333c-1.022-0.807-0.82-2.412,0.37-2.94l18.591-9.061l0.982,2.509l-17.139,8.305l8.069,6.738
					c0.554,0.463,0.707,1.291,0.278,1.872C288.281,121.326,288.149,121.445,288.004,121.533z"/>
				<path fill="#089E81" d="M242.532,155.248c-0.493,0.3-1.143,0.257-1.594-0.148l-12.841-11.493
					c-0.552-0.495-0.598-1.344-0.103-1.896c0.495-0.553,1.344-0.598,1.896-0.103l12.841,11.493c0.552,0.495,0.598,1.344,0.103,1.896
					C242.743,155.097,242.641,155.181,242.532,155.248z"/>
				<path fill="#089E81" d="M330.291,146.565c-7.508-3.091-19.02-8.834-20.258-9.707c-0.98-0.691-23.121-18.518-23.121-18.518
					l-1.689,2.088c0.158,0.128,0.958,0.775,2.17,1.754l-43.702,31.777l-2.738-2.449l-1.79,2.001l3.536,3.164
					c0.001,0.001,0.003,0.003,0.005,0.004l0.708,0.633l-2.326,46.384c-0.012,0.236,0.101,0.461,0.298,0.592
					c0.197,0.131,0.448,0.149,0.662,0.047l35.176-16.79c0.343,0.236,0.78,0.301,1.181,0.168c0.098-0.032,0.19-0.075,0.276-0.127
					c0.315-0.192,0.542-0.508,0.618-0.878l15.278-58.733c6.017,4.846,12.889,10.357,13.912,11.078
					c1.823,1.285,17.887,7.171,21.404,8.523c0.277,0.107,0.586-0.029,0.698-0.304C330.7,146.994,330.569,146.679,330.291,146.565z
					 M244.699,158.464l31.427,28.117l-33.642,16.059L244.699,158.464z M277.134,183.879l-31.399-28.091l43.415-31.566
					c0.135-0.1,0.243-0.222,0.329-0.356c0.839,0.677,1.764,1.424,2.742,2.212L277.134,183.879z"/>
				<path fill="#089E81" d="M239.256,133.654c0.339,0.451-5.974,3.545-6.69,4.649c-0.716,1.104-1.905,3.882-4.531,5.479
					c-2.626,1.597-3.401,1.76-4.932,1.355c-1.531-0.405-6.376,0.332-6.779-0.246c-0.403-0.577,2.064-2.437,3.693-3.222
					c1.629-0.785,7.167-3.532,10.172-5.468C233.196,134.264,236.922,130.553,239.256,133.654z"/>
				<path fill="#089E81" d="M283.159,194.954c-4.063,2.47-9.378,1.175-11.848-2.887c-2.47-4.062-1.175-9.378,2.887-11.848
					c4.063-2.47,9.378-1.175,11.848,2.887C288.517,187.168,287.222,192.483,283.159,194.954z M275.245,181.939
					c-3.114,1.893-4.106,5.967-2.213,9.081c1.893,3.114,5.967,4.106,9.081,2.213s4.106-5.967,2.213-9.081
					S278.359,180.046,275.245,181.939z"/>
				<path fill="#089E81" d="M297.17,186.096c-0.694-0.798-3.034,1.031-3.538,1.162c-0.513,0.132-14.511-1.739-14.511-1.739l0,0.001
					c-0.911-0.26-1.907,0.153-2.351,1.03c-0.503,0.994-0.104,2.208,0.89,2.71c0.287,0.145,0.591,0.213,0.892,0.215l0,0h0.001
					c0.053,0,0.106-0.001,0.159-0.005c1.419-0.045,13.057-1.007,13.107-0.719c0.141,0.822-2.187,1.01-1.469,2.192
					c0.671,1.104,2.976,0.639,4.691-0.496C296.631,189.395,298.047,187.104,297.17,186.096z"/>
				<path fill="#089E81" d="M302.064,112.242c-0.328,0.199-0.672,0.375-1.03,0.526l-1.9,0.797c-0.684,0.287-1.471-0.035-1.758-0.719
					c-0.287-0.684,0.033-1.47,0.719-1.758l1.9-0.797c1.36-0.571,2.4-1.702,2.855-3.104c0.455-1.402,0.276-2.929-0.49-4.189
					l-0.599-0.985l-7.36,3.617l-1.185-2.41l8.461-4.159c0.624-0.307,1.378-0.087,1.74,0.507l1.237,2.034
					c1.173,1.928,1.446,4.266,0.75,6.412C304.828,109.792,303.638,111.285,302.064,112.242z"/>
				<path fill="#089E81" d="M206.029,166.312c-1.856,2.004-9.575,5.196-12.84,6.235c-3.266,1.039-10.02,3.563-12.915,4.602
					c-2.895,1.039-12.618,5.27-14.993,6.457c-2.375,1.188-15.438,7.496-17.962,10.465c-2.524,2.969,6.778,17.272,8.128,17.272
					s9.314-10.741,13.025-13.116c3.711-2.375,9.575-10.836,12.321-11.876c2.746-1.039,11.727-2.391,16.403-6.206
					c4.676-3.814,14.176-8.565,14.919-9.381c0.742-0.816-4.082-4.453-4.082-4.453H206.029z"/>
				<path fill="#F2DAD4" d="M137.307,149.601c0.479-1.289,3.167-6.409,3.941-8.655s5.967-12.744,6.814-14.18
					s2.394-3.794,2.431-4.493c0.037-0.7,0.221-4.42,0-5.12c-0.221-0.7-1.473-2.946-2.099-3.204c0,0,0.184-0.663,1.215-0.368
					c1.031,0.295,1.621,1.547,1.621,1.547s-0.405-4.088-0.405-4.972c0-0.884,0.368-1.547,0.7-1.584
					c0.331-0.037,0.773,3.131,0.663,4.015c-0.111,0.884,0.368,0.994,0.368,0.994s0.884-2.099,1.326-2.799
					c0.442-0.7,1.363-2.136,1.989-1.731c0.626,0.405-1.51,3.941-1.731,4.751s0.184,1.068,0.405,1.142
					c0.221,0.074,2.099-1.657,2.91-2.284c0.81-0.626,1.473-1.436,1.915-0.994c0.442,0.442-0.626,1.436-1.105,1.878
					c-0.479,0.442-2.063,2.247-1.878,2.615c0.184,0.368,2.173-1.031,2.173-1.031s0.994-0.7,1.4-0.331
					c0.405,0.368-1.584,1.952-2.026,2.173c-0.442,0.221-1.4,1.031-1.4,1.915c0,0.884-0.589,3.094-1.215,3.646
					c-0.626,0.552-1.547,2.136-1.657,3.315c-0.111,1.179-2.026,10.644-3.646,13.701c-1.621,3.057-3.388,6.261-3.867,7.845
					c-0.479,1.584-2.799,7.882-4.346,8.582C140.254,156.673,137.307,149.601,137.307,149.601z"/>
				<path fill="#089E81" d="M118.761,166.507c-2.46,3.382-3.821,8.492-2.831,14.294c0.991,5.803,5.307,13.233,8.209,16.347
					c2.901,3.114,9.412,9.058,10.756,10.969c1.345,1.911,2.604,3.765,4.716,3.227c1.779-0.453,8.092-16.672,9.437-18.017
					s2.618-2.972,1.981-3.397c-0.637-0.425-6.864-5.59-7.784-8.35c-0.92-2.76-5.449-15.002-4.812-18.186
					c0.637-3.184,4.169-6.332,4.169-7.677s-0.418-2.23-1.763-3.575s-2.901-3.326-3.68-3.184
					C136.382,149.099,120.46,164.171,118.761,166.507z"/>
				<path fill="#F2DAD4" d="M155.93,154.824c0.539,0.073-0.277,1.012-0.692,1.198c-0.415,0.186-2.132,1.515-2.741,1.515
					s-0.941,0.028-0.997-0.526C151.445,156.457,154.712,154.658,155.93,154.824z"/>
				<path fill="#F2DAD4" d="M151.199,158.561c-0.544,0.7,0.997,0.799,1.602,0.747s1.91-0.526,2.076-0.637
					c0.166-0.111,0.664-0.913,0.415-1.135C155.044,157.315,151.867,157.703,151.199,158.561z"/>
				<path fill="#F2DAD4" d="M151.199,160.527c-0.043,0.896,2.073,1.052,2.488,0.969c0.415-0.083,0.664-0.526,0.692-0.747
					c0.028-0.221-0.554-0.498-1.024-0.581C152.885,160.084,151.23,159.89,151.199,160.527z"/>
				<path fill="#089E81" d="M117.47,154.044c1.176,1.641,3.149,4.237,2.51,5.238c-0.639,1-1.422,4.43,0.142,5.578
					c1.565,1.148,1.364,2.439,1.029,2.977c-0.335,0.538-3.031,0.586-5.404-0.857c-2.373-1.443-5.667-5.087-5.505-7.08
					C110.404,157.906,117.47,154.044,117.47,154.044z"/>
				
					<linearGradient id="SVGID_1_" gradientUnits="userSpaceOnUse" x1="4099.2817" y1="-2030.609" x2="4106.4424" y2="-2024.3632" gradientTransform="matrix(-0.5385 0.8426 0.8426 0.5385 4040.0105 -2201.7087)">
					<stop  offset="0" style="stop-color:#F9CEC5"/>
					<stop  offset="1" style="stop-color:#F2DAD4"/>
				</linearGradient>
				<path fill="url(#SVGID_1_)" d="M126.904,163.174c0.651,1.481,2.401,5.024,2.575,5.374c0.174,0.35-3.509,1.724-5.758,1.724
					c-2.249,0-3.951-1.424-4.122-1.653c-0.172-0.229-0.382-2.611-0.946-3.034c-0.565-0.422-3.143-2.547-3.003-3.014
					C115.788,162.104,126.904,163.174,126.904,163.174z"/>
				<path fill="#F2DAD4" d="M122.557,151.137c0.728-0.084,1.713,0.842,2.265,1.713c0.224,0.353,3.504,2.039,3.348,2.44
					c-0.156,0.401-0.664,1.979-0.303,2.51c0.361,0.531,2.77,3.423,2.027,4.35c-0.743,0.927-3.529,2.701-5.04,2.637
					c-1.511-0.064-4.901-2.281-5.714-1.95c-0.813,0.332-3.361,0.654-4.633-0.214c-1.272-0.868-2.489-1.686-1.518-3.031
					c0.97-1.345,2.673-1.157,3.325-0.879c0.652,0.279,1.408,0.872,1.766,0.354c0.359-0.518-0.039-1.325-0.564-1.716
					C116.991,156.96,116.915,151.791,122.557,151.137z"/>
				<path fill="#0CB797" d="M128.851,145.02c0.319,3.694-10.268,8.558-10.268,8.558l3.958-5.278
					C122.541,148.3,128.78,144.203,128.851,145.02z"/>
				<path fill="#0CB797" d="M109.934,148.14c5.447-5.285,13.075-0.096,13.094,0.16c0.019,0.255-0.487,3.748-5.9,8.315
					c-5.412,4.567-6.466,4.943-6.882,4.738C109.829,161.148,104.25,153.655,109.934,148.14z"/>
				<path fill="#F2DAD4" d="M121.256,176.722c0.671,3.377,3.231,4.615,4.531,4.196s10.825-6.587,12.671-7.72
					c1.846-1.133,7.678-7.175,8.727-7.51c1.049-0.336,4.951-3.357,5.664-3.986c0.713-0.629,1.41-1.461,2.057-1.901
					c0.646-0.44,2.094-1.189,2.12-1.836c0.026-0.646-0.155-0.802-0.543-0.827c-0.388-0.026-2.663,2.327-3.077,2.12
					c-0.414-0.207-1.138-2.508-0.517-3.077s2.585-2.301,2.689-2.922c0.103-0.621,0.155-1.06-0.31-1.06
					c-0.465,0-2.405,2.741-3.439,3.387c-1.034,0.646-3.128,2.741-4.085,3.62c-0.957,0.879-2.892,2.841-4.253,3.404
					c-1.361,0.563-6.381,2.111-8.587,3.285c-2.205,1.173-5.068,3.05-6.147,3.894c-1.079,0.845-3.988,2.487-4.927,2.768
					C122.893,172.839,120.933,175.097,121.256,176.722z"/>
				<path fill="#0CB797" d="M144.523,213.931c6.923,1.42,13.224-3.905,13.402-5.059c0.178-1.154,1.243-11.804,2.751-11.449
					c1.509,0.355,3.129,2.762,4.171,3.106c4.072,1.343,15.976,2.485,17.13,2.751c1.154,0.266,2.308,0.71,2.308,0.71
					s-0.888-3.373-0.888-4.526c0-1.154,0.178-1.615-1.065-2.05c-1.243-0.435-6.213-1.944-7.988-3.098
					c-1.775-1.154-7.012-3.018-8.787-4.615c-1.775-1.598-5.698-4.793-8.529-4.793c-2.831,0-3.275,2.663-4.251,3.018
					s-12.071,9.053-14.644,16.508C135.559,211.89,144.523,213.931,144.523,213.931z"/>
				<path fill="#0CB797" d="M187.035,189.558c0,0-2.065-0.313-3.176,3.327c-1.162,3.807-0.919,10.83,0.313,11.76
					c1.296,0.979,4.181,3.558,4.181,3.558L187.035,189.558z"/>
				<path fill="#089E81" d="M187.035,189.558c-2.344,0.151-3.1,6.2-2.268,9.981c0.832,3.781,1.664,2.873,1.89,4.915
					c0.227,2.042,0.983,4.461,3.327,3.932c2.344-0.529,2.722-4.537,1.966-5.52c-0.756-0.983-1.361-2.117-1.437-3.327
					c-0.076-1.21,1.361-3.403,0.832-4.915C190.815,193.112,189.379,189.407,187.035,189.558z"/>
				<path fill="#0CB797" d="M209.289,151.783c-1.238,0.784,0.245,2.534,0,4.046c-0.245,1.512-1.553,6.58-2.248,7.724
					c-0.695,1.144-1.575,2.045-1.012,2.759c0.563,0.714,1.503,0.183,2.32,0.837c0.817,0.654,2.192,2.313,2.029,3.008
					c-0.163,0.695-1.308,2.329-0.327,2.493c0.981,0.163,4.414,0.695,5.435-0.695c1.022-1.39-1.487-14.595-2.151-16.699
					C212.75,153.405,210.515,151.006,209.289,151.783z"/>
			</g>
		</g>
		<!-- <text transform="matrix(1 0 0 1 141.7095 59.9632)" fill="#0AE2B3" font-family="'Poppins-Medium'" font-size="18">Internal Server Error</text> -->
	</g>
</g>
<g id="DESIGNED_BY_FREEPIK">
</g>
</svg>
