<svg id="Capa_1" enable-background="new 0 0 512 512" height="512" viewBox="0 0 512 512" width="512" xmlns="http://www.w3.org/2000/svg"><g><path d="m45 512c-8.291 0-15-6.709-15-15v-482c0-8.291 6.709-15 15-15s15 6.709 15 15v482c0 8.291-6.709 15-15 15z" fill="#5b5555"/><path d="m165 0h-150c-8.291 0-15 6.709-15 15s6.709 15 15 15h135v45c0 8.291 6.709 15 15 15s15-6.709 15-15v-60c0-8.291-6.709-15-15-15z" fill="#dfe7f4"/><path d="m195 301c-8.291 0-15-6.709-15-15v-30c0-8.291 6.709-15 15-15s15 6.709 15 15v30c0 8.291-6.709 15-15 15z" fill="#d0004f"/><path d="m255 452h-90c-8.276 0-15-6.724-15-15v-181c0-8.291-6.709-15-15-15s-15 6.709-15 15v181c0 24.814 20.186 45 45 45h90c8.291 0 15-6.709 15-15s-6.709-15-15-15z" fill="#ff435b"/><path d="m225 60h-60-60c-8.291 0-15 6.709-15 15v181c0 8.291 6.709 15 15 15h60 60c8.291 0 15-6.709 15-15v-181c0-8.291-6.709-15-15-15z" fill="#f0f7ff"/><path d="m240 256v-181c0-8.291-6.709-15-15-15h-60v211h60c8.291 0 15-6.709 15-15z" fill="#dfe7f4"/><path d="m165 90h-45v60l23.699 31 21.301-5.008 34.501-6.493 10.499-49.199v-30.3z" fill="#dfe7f4"/><path d="m210 120.3v-30.3h-45v85.992l34.501-6.493z" fill="#c7cfe1"/><path d="m169.501 139.499c-1.318 1.262-3.038 1.897-4.501 2.953-6.196 4.468-13.292 7.548-21.301 7.548h-23.699v91h45 45v-120.7c-15.3 1.5-29.7 8.099-40.499 19.199z" fill="#ff7b4a"/><path d="m210 120.3c-15.3 1.5-29.7 8.099-40.499 19.199-1.318 1.262-3.038 1.897-4.501 2.953v98.548h45z" fill="#ff435b"/><path d="m436 362-60 30-60-30c-41.422 0-76 33.578-76 75v60c0 8.284 6.716 15 15 15h121 121c8.284 0 15-6.716 15-15v-60c0-41.422-34.578-75-76-75z" fill="#64e1dc"/><path d="m512 497v-60c0-41.422-34.578-75-76-75l-60 30v120h121c8.284 0 15-6.716 15-15z" fill="#00c8c8"/><path d="m376 362h-60c0 33.091 26.909 60 60 60s60-26.909 60-60z" fill="#f0f7ff"/><path d="m436 362h-60v60c33.091 0 60-26.909 60-60z" fill="#dfe7f4"/><path d="m451 181h-75-76l-30 30v39.141c0 49.94 31.403 93.845 76.062 112.165.174 16.419 13.477 29.694 29.938 29.694 16.463 0 29.769-13.279 29.94-29.7 44.661-18.31 76.06-62.195 76.06-112.159v-39.141z" fill="#ffe1ba"/><path d="m405.94 362.3c44.661-18.31 76.06-62.195 76.06-112.159v-39.141l-31-30h-75v211c16.463 0 29.769-13.279 29.94-29.7z" fill="#ffbfab"/><path d="m406 60h-30-30c-41.422 0-76 33.578-76 75v76h106 106v-76c0-41.422-34.578-75-76-75z" fill="#64e1dc"/><path d="m482 135c0-41.422-34.578-75-76-75h-30v151h106z" fill="#00c8c8"/></g></svg>