<svg viewBox="-103 0 512 512" xmlns="http://www.w3.org/2000/svg"><path d="m260.921875 0h-216.613281c-24.433594 0-44.308594 19.875-44.308594 44.308594v423.382812c0 24.433594 19.875 44.308594 44.308594 44.308594h216.613281c24.433594 0 44.308594-19.875 44.308594-44.308594v-423.382812c0-24.433594-19.875-44.308594-44.308594-44.308594zm0 0" fill="#00796b"/><g fill="#e0f2f1"><path d="m103.289062 189.691406c21.117188 0 48.082032-9.808594 71.480469-23.320312 39.015625-22.527344 74.074219-58.777344 58.851563-85.140625s-64.144532-14.128907-103.160156 8.398437c-39.015626 22.527344-74.074219 58.777344-58.851563 85.140625 6.09375 10.554688 17.582031 14.921875 31.679687 14.921875zm0 0"/><path d="m233.621094 209.230469c-15.222656-26.363281-64.144532-14.128907-103.160156 8.398437-39.015626 22.527344-74.074219 58.777344-58.851563 85.140625 6.09375 10.554688 17.582031 14.921875 31.679687 14.921875 21.117188 0 48.082032-9.808594 71.480469-23.320312 39.015625-22.527344 74.074219-58.777344 58.851563-85.140625zm0 0"/><path d="m233.621094 337.230469c-15.222656-26.363281-64.144532-14.128907-103.160156 8.398437-39.015626 22.527344-74.074219 58.777344-58.851563 85.140625 6.09375 10.554688 17.582031 14.921875 31.679687 14.921875 21.117188 0 48.082032-9.808594 71.480469-23.320312 39.015625-22.527344 74.074219-58.777344 58.851563-85.140625zm0 0"/></g><path d="m260.921875 0h-108.304687v512h108.304687c24.433594 0 44.308594-19.875 44.308594-44.308594v-423.382812c0-24.433594-19.875-44.308594-44.308594-44.308594zm0 0" fill="#00695c"/><path d="m233.621094 81.230469c-12.433594-21.539063-47.363282-17.3125-81.003906-2.761719v99.0625c7.535156-3.261719 15.011718-7.039062 22.152343-11.160156 39.015625-22.527344 74.074219-58.777344 58.851563-85.140625zm0 0" fill="#b2dfdb"/><path d="m233.621094 209.230469c-12.433594-21.539063-47.363282-17.3125-81.003906-2.761719v99.0625c7.535156-3.261719 15.011718-7.039062 22.152343-11.160156 39.015625-22.527344 74.074219-58.777344 58.851563-85.140625zm0 0" fill="#b2dfdb"/><path d="m233.621094 337.230469c-12.433594-21.539063-47.363282-17.3125-81.003906-2.761719v99.0625c7.535156-3.261719 15.011718-7.039062 22.152343-11.160156 39.015625-22.527344 74.074219-58.777344 58.851563-85.140625zm0 0" fill="#b2dfdb"/></svg>