<svg width="8" height="11" viewBox="0 0 8 11" fill="none" xmlns="http://www.w3.org/2000/svg">
<path d="M3.86743 1.05329L1.05494 3.78056C1.00147 3.83277 0.985171 3.91037 1.01428 3.97872C1.04321 4.04673 1.1117 4.09093 1.18749 4.09093H1.56249C1.61229 4.09093 1.65991 4.07175 1.69506 4.03766L3.62499 2.16621L3.62499 9.54547C3.62501 9.64597 3.70886 9.72729 3.8125 9.72729H4.18749C4.29113 9.72729 4.375 9.64597 4.375 9.54547V2.16621L6.30493 4.03766C6.34008 4.07175 6.38769 4.09093 6.4375 4.09093H6.81249C6.88831 4.09093 6.95678 4.04671 6.98571 3.97872C6.99541 3.95617 7 3.93256 7 3.90912C7 3.86189 6.98096 3.81537 6.94507 3.78056L4.13258 1.05329C4.05933 0.982265 3.94068 0.982265 3.86743 1.05329Z" fill="#02F1B8" stroke="#02F1B8"/>
</svg>
