<svg width="8" height="11" viewBox="0 0 8 11" fill="none" xmlns="http://www.w3.org/2000/svg">
<path d="M3.86743 9.67394L1.05494 6.94667C1.00147 6.89446 0.985171 6.81687 1.01428 6.74852C1.04321 6.6805 1.1117 6.63631 1.18749 6.63631H1.56249C1.61229 6.63631 1.65991 6.65548 1.69506 6.68957L3.62499 8.56103L3.62499 1.18176C3.62501 1.08126 3.70886 0.999939 3.8125 0.999939H4.18749C4.29113 0.999939 4.375 1.08126 4.375 1.18176V8.56103L6.30493 6.68957C6.34008 6.65548 6.38769 6.63631 6.4375 6.63631H6.81249C6.88831 6.63631 6.95678 6.68052 6.98571 6.74852C6.99541 6.77107 7 6.79468 7 6.81811C7 6.86535 6.98096 6.91186 6.94507 6.94667L4.13258 9.67394C4.05933 9.74497 3.94068 9.74497 3.86743 9.67394Z" fill="#EB5757" stroke="#EB5757"/>
</svg>
