<svg width="54" height="50" viewBox="0 0 54 50" fill="none" xmlns="http://www.w3.org/2000/svg">
<rect x="1" y="1" width="51.6765" height="48" rx="9" stroke="#FD586B" stroke-width="2"/>
<path d="M38.05 15.7625C37.4116 15.1238 36.6535 14.6171 35.8192 14.2714C34.9849 13.9257 34.0906 13.7477 33.1875 13.7477C32.2844 13.7477 31.3902 13.9257 30.5558 14.2714C29.7215 14.6171 28.9635 15.1238 28.325 15.7625L27 17.0875L25.675 15.7625C24.3854 14.4729 22.6363 13.7484 20.8125 13.7484C18.9887 13.7484 17.2396 14.4729 15.95 15.7625C14.6604 17.0521 13.9359 18.8012 13.9359 20.625C13.9359 22.4488 14.6604 24.1979 15.95 25.4875L17.275 26.8125L27 36.5375L36.725 26.8125L38.05 25.4875C38.6888 24.8491 39.1955 24.091 39.5412 23.2567C39.8869 22.4224 40.0648 21.5281 40.0648 20.625C40.0648 19.7219 39.8869 18.8277 39.5412 17.9933C39.1955 17.159 38.6888 16.401 38.05 15.7625V15.7625Z" stroke="#FD586B" stroke-width="2" stroke-linecap="round" stroke-linejoin="round"/>
</svg>
