<svg width="54" height="50" viewBox="0 0 54 50" fill="none" xmlns="http://www.w3.org/2000/svg">
<rect x="1" y="1" width="51.6765" height="48" rx="9" stroke="#02F1B8" stroke-width="2"/>
<path d="M34.5 33.75C34.5 34.7446 34.1049 35.6984 33.4017 36.4017C32.6984 37.1049 31.7446 37.5 30.75 37.5C29.7555 37.5 28.8016 37.1049 28.0984 36.4017C27.3951 35.6984 27 34.7446 27 33.75V25M40.75 25C40.4235 21.5795 38.8338 18.4034 36.2913 16.0921C33.7488 13.7807 30.4361 12.5 27 12.5C23.5639 12.5 20.2512 13.7807 17.7087 16.0921C15.1662 18.4034 13.5765 21.5795 13.25 25H40.75Z" stroke="#02F1B8" stroke-width="2" stroke-linecap="round" stroke-linejoin="round"/>
</svg>
