<svg width="54" height="50" viewBox="0 0 54 50" fill="none" xmlns="http://www.w3.org/2000/svg">
<rect x="1" y="1" width="51.6765" height="48" rx="9" stroke="#FEAA48" stroke-width="2"/>
<path d="M33.25 36.25V33.75C33.25 32.4239 32.7232 31.1521 31.7855 30.2145C30.8479 29.2768 29.5761 28.75 28.25 28.75H18.25C16.9239 28.75 15.6521 29.2768 14.7145 30.2145C13.7768 31.1521 13.25 32.4239 13.25 33.75V36.25" stroke="#FEAA48" stroke-width="2" stroke-linecap="round" stroke-linejoin="round"/>
<path d="M23.25 23.75C26.0114 23.75 28.25 21.5114 28.25 18.75C28.25 15.9886 26.0114 13.75 23.25 13.75C20.4886 13.75 18.25 15.9886 18.25 18.75C18.25 21.5114 20.4886 23.75 23.25 23.75Z" stroke="#FEAA48" stroke-width="2" stroke-linecap="round" stroke-linejoin="round"/>
<path d="M40.75 36.25V33.75C40.7492 32.6421 40.3804 31.5659 39.7017 30.6904C39.023 29.8148 38.0727 29.1894 37 28.9125" stroke="#FEAA48" stroke-width="2" stroke-linecap="round" stroke-linejoin="round"/>
<path d="M32 13.9125C33.0755 14.1879 34.0288 14.8134 34.7095 15.6904C35.3903 16.5674 35.7598 17.646 35.7598 18.7562C35.7598 19.8664 35.3903 20.9451 34.7095 21.8221C34.0288 22.6991 33.0755 23.3246 32 23.6" stroke="#FEAA48" stroke-width="2" stroke-linecap="round" stroke-linejoin="round"/>
</svg>
