<svg xmlns="http://www.w3.org/2000/svg" xmlns:xlink="http://www.w3.org/1999/xlink" stroke-width="1.0" fill="#041242" version="1.1" x="0px" y="0px" viewBox="0 0 50 62.5" style="enable-background:new 0 0 50 50;" xml:space="preserve">
<g>
<path d="M48.1399994,28.25c-0.0155067-2.84095-1.9539833-5.3103485-4.7099991-6v-2.4500008   c-0.0055084-3.5820427-2.9079552-6.4844923-6.4899979-6.4899998H25.6399994v-2   c1.4188461-0.3589849,2.2780323-1.8002014,1.9190464-3.2190466c-0.358984-1.4188452-1.8001995-2.2780318-3.2190456-1.9190469   s-2.2780323,1.8002009-1.9190464,3.2190461c0.2387314,0.9435577,0.9754887,1.680316,1.9190464,1.9190474v2H13   c-3.5859489-0.0000038-6.494483,2.9040546-6.5,6.4899998v2.4699993c-3.3137078,0.8843651-5.2830791,4.2875767-4.3987141,7.601284   C2.674511,32.0191498,4.3521318,33.6967697,6.5,34.2699966v0.8400002c0.0219941,3.5742226,2.9257116,6.4600716,6.5,6.4600029   h23.9000015c3.5820427-0.0055084,6.4844894-2.9079552,6.4899979-6.4899979v-0.7999992   C46.1706467,33.5999832,48.1300468,31.1125717,48.1399994,28.25z M23.6399994,8.8000002   c0.000021-0.7455845,0.6044521-1.3499837,1.3500366-1.3499637s1.3499832,0.6044517,1.3499641,1.3500361   C26.3399792,9.5417404,25.7416477,10.1445055,25,10.1499996c-0.7455635,0.0055227-1.3544407-0.5943985-1.3599644-1.339962   C23.6400108,8.8066912,23.6399994,8.8033457,23.6399994,8.8000002z M3.29,28.25   c0.0020697-2.0731621,1.3009229-3.9235287,3.25-4.6300011v9.2700005C4.600462,32.1654167,3.3081458,30.3203869,3.29,28.25z    M42.1300011,35.0800018c-0.0055046,2.8640747-2.3259239,5.184494-5.1899986,5.1899986H13   c-2.867979,0.0000038-5.1944838-2.3220253-5.1999998-5.1899986V19.7999992C7.8055158,16.932024,10.13202,14.6099939,13,14.6099997   h23.9000015c2.8640747,0.0055027,5.1844978,2.3259249,5.1899986,5.1899996L42.1300011,35.0800018z M43.4300003,32.9300003   v-9.3600006c2.5846939,0.8383083,4.0004158,3.6131992,3.1621094,6.1978931   C46.1056595,31.2677269,44.9298363,32.4435501,43.4300003,32.9300003z"/><path d="M22,24.3600006c0.0055237-2.1152439-1.7047424-3.834465-3.8199863-3.8399868   c-2.1152439-0.0055237-3.8344641,1.7047424-3.8399878,3.8199863c-0.0055227,2.1152439,1.7047434,3.834465,3.8199873,3.8399868   c0.0033283,0.0000095,0.0066586,0.0000134,0.0099869,0.0000134C20.2813511,28.1800079,21.9944878,26.471344,22,24.3600006z    M15.6499996,24.3600006c0-1.391758,1.1282425-2.5200005,2.5200005-2.5200005   c1.391758,0.0000019,2.5200005,1.1282444,2.5200005,2.5200005c-0.0000019,1.391758-1.1282425,2.5200005-2.5200005,2.5200005   c-1.3816643-0.0163746-2.4946356-1.1382504-2.5-2.5200005H15.6499996z"/>
<path d="M31.7399998,20.5400009c-2.1097279,0-3.8199997,1.7102737-3.8199978,3.8200016   c0,2.1097279,1.7102737,3.8199997,3.8200016,3.8199978c2.1097279,0,3.8199978-1.7102718,3.8199978-3.8199997   C35.5545044,22.252552,33.8474464,20.545496,31.7399998,20.5400009z M31.7399998,26.8800011   c-1.391758,0-2.5200005-1.1282406-2.5200024-2.5199986c0-1.391758,1.1282425-2.5200005,2.5199986-2.5200024   c1.3917599,0,2.5200024,1.1282425,2.5200024,2.5199986c0,0.0000019,0,0.0000019,0,0.0000019   C34.2599983,25.7517567,33.1317558,26.8799992,31.7399998,26.8800011z"/>
<path d="M31.1200008,34c-3.9114895,1.7582893-8.3885117,1.7582893-12.3000011,0   c-0.3258724-0.1484299-0.7104149-0.0053444-0.8600006,0.3199997c-0.1515427,0.3193283-0.0155277,0.7010422,0.3038006,0.8525887   c0.0053654,0.0025444,0.0107651,0.0050163,0.0161991,0.007412c2.0380878,0.9202156,4.2439938,1.4104156,6.4799995,1.4399986H25   c2.3069019,0.0000114,4.5874004-0.49086,6.6900005-1.4399986c0.325407-0.1380081,0.4773235-0.5136795,0.3393154-0.8390846   c-0.0029793-0.0070267-0.0060844-0.0139999-0.0093155-0.020916c-0.148674-0.3328094-0.5389938-0.4820786-0.8718033-0.3334045   C31.1386929,33.9908409,31.1292915,33.9953117,31.1200008,34z"/>
</g>
</svg>

