<svg width="20" height="20" viewBox="0 0 20 20" fill="none" xmlns="http://www.w3.org/2000/svg">
<g clip-path="url(#clip0)">
<path d="M20 11.8314C20 14.0253 19.3018 16.1078 17.9808 17.8542C17.7202 18.1989 17.2301 18.2657 16.8864 18.0058C16.5424 17.7455 16.4745 17.2556 16.7346 16.9115C17.8487 15.4388 18.4375 13.6821 18.4375 11.8314C18.4375 7.16797 14.6608 3.39844 10 3.39844C5.336 3.39844 1.5625 7.17087 1.5625 11.8314C1.5625 13.6821 2.15134 15.4388 3.26523 16.9115C3.52554 17.2556 3.45764 17.7455 3.11356 18.0058C2.76932 18.2661 2.27951 18.1982 2.01904 17.8542C0.698242 16.1078 0 14.0253 0 11.8314C0 6.30402 4.47571 1.83594 10 1.83594C15.5273 1.83594 20 6.30707 20 11.8314ZM14.9501 7.12631C15.2551 7.43134 15.2551 7.92603 14.9501 8.23105L12.4036 10.7776C12.6132 11.1641 12.7325 11.6066 12.7325 12.0763C12.7325 13.5831 11.5067 14.8088 10 14.8088C8.49319 14.8088 7.26746 13.5831 7.26746 12.0763C7.26746 10.5696 8.49319 9.34372 10 9.34372C10.4698 9.34372 10.9122 9.46304 11.2987 9.6727L13.8452 7.12616C14.1504 6.82114 14.6449 6.82114 14.9501 7.12631ZM11.17 12.0764C11.17 11.4313 10.6451 10.9064 10 10.9064C9.35486 10.9064 8.82996 11.4313 8.82996 12.0764C8.82996 12.7216 9.35486 13.2465 10 13.2465C10.6451 13.2465 11.17 12.7216 11.17 12.0764Z" fill="#36DEED"/>
</g>
<defs>
<clipPath id="clip0">
<rect width="20" height="20" fill="white"/>
</clipPath>
</defs>
</svg>
