<svg id="Capa_1" enable-background="new 0 0 512 512" height="512" viewBox="0 0 512 512" width="512" xmlns="http://www.w3.org/2000/svg"><g><path d="m466.18 442.97v54.03c0 8.28-6.72 15-15 15s-15-6.72-15-15v-53.82c9.614 3.837 20.498 3.752 30-.21z" fill="#b0f2ff"/><path d="m466.18 136.05v199.95h-30v-199.95c0-24.84-20.21-45.05-45.05-45.05s-45.05 20.21-45.05 45.05v300.95c0 41.36-33.65 75-75 75h-60c-41.36 0-75-33.64-75-75v-21h30v21c0 24.81 20.19 45 45 45h60c24.81 0 45-20.19 45-45v-300.95c0-41.38 33.67-75.05 75.05-75.05s75.05 33.67 75.05 75.05z" fill="#f4425c"/><path d="m466.18 136.05v199.95h-30v-199.95c0-24.84-20.21-45.05-45.05-45.05s-45.05 20.21-45.05 45.05v300.95c0 41.36-33.65 75-75 75h-60c-24.51 0-46.31-11.82-60-30.05v-65.95h15v21c0 24.81 20.19 45 45 45h60c24.81 0 45-20.19 45-45v-300.95c0-41.38 33.67-75.05 75.05-75.05s75.05 33.67 75.05 75.05z" fill="#dd124c"/><path d="m241.129 0h-180.05c-24.813 0-45 20.187-45 45v222.906c0 43.677 32.76 80.022 76.203 84.544l13.797 1.436v52.114c0 8.284 6.716 15 15 15h60.1c8.284 0 15-6.716 15-15v-52.115l13.752-1.433c43.44-4.522 76.198-40.868 76.198-84.542v-222.91c0-24.813-20.187-45-45-45z" fill="#e6faff"/><path d="m286.13 45v222.91c0 43.67-32.76 80.02-76.2 84.54l-13.75 1.43v52.12c0 8.28-6.72 15-15 15h-30.1v-421h90.05c24.81 0 45 20.19 45 45z" fill="#ccf8ff"/><path d="m16.08 76h270.05v180h-270.05z" fill="#f4425c"/><path d="m151.08 76h135.05v180h-135.05z" fill="#dd124c"/><path d="m181.079 151.05h-15v-15.05c0-8.284-6.716-15-15-15s-15 6.716-15 15v15.05h-15c-8.284 0-15 6.716-15 15s6.716 15 15 15h15v14.95c0 8.284 6.716 15 15 15s15-6.716 15-15v-14.95h15c8.284 0 15-6.716 15-15s-6.716-15-15-15z" fill="#e6faff"/><path d="m196.08 166.05c0 8.28-6.72 15-15 15h-15v14.95c0 8.28-6.72 15-15 15v-90c8.28 0 15 6.72 15 15v15.05h15c8.28 0 15 6.72 15 15z" fill="#ccf8ff"/><path d="m480.921 331h-60c-8.284 0-15 6.716-15 15v60c0 24.813 20.187 45 45 45s45-20.187 45-45v-60c0-8.284-6.716-15-15-15z" fill="#22e0e0"/></g></svg>