<svg xmlns="http://www.w3.org/2000/svg" xmlns:xlink="http://www.w3.org/1999/xlink" width="600" height="900" viewBox="0 0 600 900"><defs><style>.a{fill:#4d7dff;}.b{fill:#5180ff;}.c{fill:#5987ff;}.d{fill:#6490ff;}.e{fill:#80a7ff;}.f{fill:#accaff;}.g{fill:#b5d2ff;}.h{fill:#9dbfff;}.i{fill:#83aaff;}.j{fill:#78a2ff;}.k{fill:#719bff;}.l{fill:#6a95ff;}.m{fill:#86acff;}.n{fill:#608dff;}.o{fill:#5383ff;}.p{fill:#4877ff;}.q{fill:#3f70ff;}.r{fill:#3c6dff;}.s{fill:#3969ff;}.t{fill:#3462ff;}.u{fill:#3766ff;}.v{fill:#4a7aff;}.w{fill:#6692ff;}.x{fill:#749dff;}.y{fill:#bed7ff;}.z{fill:#a9c8ff;}.aa{fill:#e7f7ff;}.ab{fill:#95b8ff;}.ac{fill:#b1ceff;}.ad{fill:#8ab0ff;}.ae{fill:#4474ff;}.af{fill:#fff;}.ag{fill:#f9ffff;}.ah{fill:#edfbff;}.ai{fill:#7ba4ff;}.aj{fill:#6d98ff;}.ak{fill:#4171ff;}.al{fill:#315eff;}.am{fill:#8db3ff;}.an{fill:#cee5ff;}.ao{fill:#c8e1ff;}.ap{fill:#d5ebff;}.aq{fill:#c1dbff;}.ar{fill:#5d8aff;}.as{fill:#a5c5ff;}.at{fill:#a0c1ff;}.au{fill:#dbefff;}.av{fill:#fdffff;}.aw{fill:#b8d4ff;}.ax{fill:#2751f9;}.ay{fill:#5786ff;}.az{fill:#dff1ff;}.ba{fill:#f1ffff;}.bb{fill:#98bcff;}.bc{fill:#e3f5ff;}.bd{fill:#d2e7ff;}.be{fill:#92b6ff;}.bf{fill:#c5ddff;}.bg{fill:#f5ffff;}.bh{mix-blend-mode:color;isolation:isolate;}.bi{fill:url(#a);}.bj{fill:url(#v);}.bk{fill:url(#w);}.bl{fill:url(#ar);}.bm{fill:url(#bm);}.bn{fill:url(#bn);}.bo{fill:url(#ch);}.bp{fill:url(#ci);}.bq{fill:url(#dd);}.br{fill:url(#dy);}.bs{fill:url(#dz);}.bt{fill:url(#ea);}.bu{fill:url(#ev);}.bv{fill:url(#fq);}.bw{fill:url(#fr);}.bx{fill:url(#gn);}.by{fill:url(#hj);}.bz{fill:url(#hk);}.ca{fill:url(#if);}.cb{fill:url(#ja);}.cc{fill:url(#jb);}.cd{fill:url(#jc);}.ce{fill:url(#jx);}.cf{fill:url(#ks);}.cg{fill:url(#kt);}.ch{fill:url(#ku);}.ci{fill:url(#lo);}.cj{fill:url(#lp);}.ck{fill:url(#mk);}.cl{fill:url(#ml);}.cm{fill:url(#nf);}.cn{fill:url(#ng);}</style><linearGradient id="a" x1="-17.001" y1="0.5" x2="-16.001" y2="0.5" gradientUnits="objectBoundingBox"><stop offset="0.637" stop-color="#15e0b1"/><stop offset="0.694" stop-color="#11c49a"/><stop offset="0.782" stop-color="#0ca07c"/><stop offset="0.864" stop-color="#088566"/><stop offset="0.938" stop-color="#067559"/><stop offset="0.995" stop-color="#067055"/></linearGradient><linearGradient id="v" x1="-20.422" x2="-19.422" xlink:href="#a"/><linearGradient id="w" x1="-14.999" x2="-13.999" xlink:href="#a"/><linearGradient id="ar" x1="-13.001" x2="-12.001" xlink:href="#a"/><linearGradient id="bm" x1="-12.49" x2="-11.49" xlink:href="#a"/><linearGradient id="bn" x1="-10.999" x2="-9.999" xlink:href="#a"/><linearGradient id="ch" x1="-12.547" x2="-11.547" xlink:href="#a"/><linearGradient id="ci" x1="-9" x2="-8" xlink:href="#a"/><linearGradient id="dd" x1="-7" x2="-6" xlink:href="#a"/><linearGradient id="dy" x1="-9.867" x2="-8.867" xlink:href="#a"/><linearGradient id="dz" x1="-24.611" x2="-23.611" xlink:href="#a"/><linearGradient id="ea" x1="-5" x2="-4" xlink:href="#a"/><linearGradient id="ev" x1="-3" x2="-2" xlink:href="#a"/><linearGradient id="fq" x1="-5.818" x2="-4.818" xlink:href="#a"/><linearGradient id="fr" x1="-1" x2="0" xlink:href="#a"/><linearGradient id="gn" x1="1" x2="2" xlink:href="#a"/><linearGradient id="hj" x1="7.539" x2="8.539" xlink:href="#a"/><linearGradient id="hk" x1="3" x2="4" xlink:href="#a"/><linearGradient id="if" x1="5" x2="6" xlink:href="#a"/><linearGradient id="ja" x1="14.905" x2="15.905" xlink:href="#a"/><linearGradient id="jb" x1="11.946" x2="12.946" xlink:href="#a"/><linearGradient id="jc" x1="7" x2="8" xlink:href="#a"/><linearGradient id="jx" x1="9" x2="10" xlink:href="#a"/><linearGradient id="ks" x1="58.91" x2="59.91" xlink:href="#a"/><linearGradient id="kt" x1="14.636" x2="15.636" xlink:href="#a"/><linearGradient id="ku" x1="11" x2="12" xlink:href="#a"/><linearGradient id="lo" x1="11.115" x2="12.115" xlink:href="#a"/><linearGradient id="lp" x1="13" x2="14" xlink:href="#a"/><linearGradient id="mk" x1="16.449" x2="17.449" xlink:href="#a"/><linearGradient id="ml" x1="15" x2="16" xlink:href="#a"/><linearGradient id="nf" x1="17.684" x2="18.684" xlink:href="#a"/><linearGradient id="ng" x1="17" x2="18" xlink:href="#a"/></defs><g transform="translate(-1.668 -0.055)"><g transform="translate(1.668 0.055)"><path class="a" d="M35.617.055v37.39L1.668,13.65V.055Z" transform="translate(-1.668 -0.055)"/><path class="b" d="M1.668,57.683V13.65l33.949,23.8V81.478Z" transform="translate(-1.668 -0.055)"/><path class="c" d="M1.668,101.716V57.683l33.949,23.8v44.033Z" transform="translate(-1.668 -0.055)"/><path class="d" d="M1.668,145.749V101.716l33.949,23.8v44.033Z" transform="translate(-1.668 -0.055)"/><path class="e" d="M1.668,189.782V145.749l33.949,23.8v44.033Z" transform="translate(-1.668 0.001)"/><path class="f" d="M1.668,233.815V189.782l33.949,23.8V257.61Z" transform="translate(-1.668 0.018)"/><path class="g" d="M1.668,277.847V233.815l33.949,23.8v44.033Z" transform="translate(-1.668 0.035)"/><path class="h" d="M1.668,321.881V277.847l33.949,23.8v44.033Z" transform="translate(-1.668 0.052)"/><path class="i" d="M1.668,365.914V321.881l33.949,23.8V389.71Z" transform="translate(-1.668 0.069)"/><path class="j" d="M1.668,409.948V365.914l33.949,23.8v44.03Z" transform="translate(-1.668 0.086)"/><path class="k" d="M1.668,453.978v-44.03L35.617,433.74v44.034Z" transform="translate(-1.668 0.103)"/><path class="l" d="M1.668,498.012V453.978l33.949,23.8v44.034Z" transform="translate(-1.668 0.12)"/><path class="m" d="M1.668,542.046V498.012l33.949,23.8v44.034Z" transform="translate(-1.668 0.137)"/><path class="n" d="M1.668,586.079V542.046l33.949,23.8v44.03Z" transform="translate(-1.668 0.154)"/><path class="o" d="M1.668,630.11v-44.03l33.949,23.793v44.034Z" transform="translate(-1.668 0.171)"/><path class="p" d="M1.668,674.143V630.11l33.949,23.8V697.94Z" transform="translate(-1.668 0.188)"/><path class="b" d="M1.668,718.177V674.143l33.949,23.8v44.034Z" transform="translate(-1.668 0.205)"/><path class="q" d="M1.668,762.211V718.177l33.949,23.8V786Z" transform="translate(-1.668 0.266)"/><path class="r" d="M1.668,806.241v-44.03L35.617,786v44.034Z" transform="translate(-1.668 0.266)"/><path class="a" d="M1.668,850.275V806.241l33.949,23.8v44.034Z" transform="translate(-1.668 0.266)"/><path class="s" d="M35.617,874.072v24.634H7.941l-6.273-4.4V850.275Z" transform="translate(-1.668 0.266)"/><path class="t" d="M69.566.055V17.208L45.095.055Z" transform="translate(-1.668 -0.055)"/><path class="u" d="M45.095.055,69.566,17.208V61.241l-33.949-23.8V.055Z" transform="translate(-1.668 -0.055)"/><path class="u" d="M35.617,81.478V37.445l33.949,23.8v44.033Z" transform="translate(-1.668 -0.055)"/><path class="v" d="M35.617,125.511V81.478l33.949,23.8v44.033Z" transform="translate(-1.668 -0.055)"/><path class="w" d="M35.617,169.544V125.511l33.949,23.8v44.033Z" transform="translate(-1.668 -0.055)"/><path class="x" d="M35.617,213.577V169.544l33.949,23.8v44.033Z" transform="translate(-1.668 0.01)"/><path class="h" d="M35.617,257.61V213.577l33.949,23.8v44.033Z" transform="translate(-1.668 0.027)"/><path class="y" d="M35.617,301.643V257.61l33.949,23.8v44.033Z" transform="translate(-1.668 0.044)"/><path class="z" d="M35.617,345.676V301.643l33.949,23.8v44.034Z" transform="translate(-1.668 0.061)"/><path class="aa" d="M35.617,389.71V345.676l33.949,23.8V413.5Z" transform="translate(-1.668 0.078)"/><path class="e" d="M35.617,433.74V389.71L69.566,413.5v44.034Z" transform="translate(-1.668 0.095)"/><path class="m" d="M35.617,477.774V433.74l33.949,23.8V501.57Z" transform="translate(-1.668 0.112)"/><path class="ab" d="M35.617,521.808V477.774l33.949,23.8V545.6Z" transform="translate(-1.668 0.129)"/><path class="ac" d="M35.617,565.842V521.808l33.949,23.8v44.03Z" transform="translate(-1.668 0.146)"/><path class="x" d="M35.617,609.872v-44.03l33.949,23.793v44.034Z" transform="translate(-1.668 0.163)"/><path class="e" d="M35.617,653.906V609.872l33.949,23.8V677.7Z" transform="translate(-1.668 0.18)"/><path class="w" d="M35.617,697.94V653.906l33.949,23.8v44.034Z" transform="translate(-1.668 0.197)"/><path class="z" d="M35.617,741.974V697.94l33.949,23.8v44.03Z" transform="translate(-1.668 0.266)"/><path class="k" d="M35.617,786v-44.03l33.949,23.793V809.8Z" transform="translate(-1.668 0.266)"/><path class="ad" d="M35.617,830.038V786l33.949,23.8v44.034Z" transform="translate(-1.668 0.266)"/><path class="ae" d="M35.617,874.072V830.038l33.949,23.8v44.034Z" transform="translate(-1.668 0.266)"/><path class="u" d="M35.617,898.705V874.072l33.949,23.8v.838Z" transform="translate(-1.668 0.266)"/><path class="t" d="M103.515.055V41l-33.949-23.8V.055Z" transform="translate(-1.668 -0.055)"/><path class="q" d="M69.566,61.241V17.208L103.515,41V85.036Z" transform="translate(-1.668 -0.055)"/><path class="b" d="M69.566,105.274V61.241l33.949,23.8v44.033Z" transform="translate(-1.668 -0.055)"/><path class="v" d="M69.566,149.307V105.274l33.949,23.8V173.1Z" transform="translate(-1.668 -0.055)"/><path class="b" d="M69.566,193.339V149.307l33.949,23.8v44.033Z" transform="translate(-1.668 0.002)"/><path class="c" d="M69.566,237.373V193.339l33.949,23.8v44.033Z" transform="translate(-1.668 0.019)"/><path class="e" d="M69.566,281.405V237.373l33.949,23.8V305.2Z" transform="translate(-1.668 0.036)"/><path class="aa" d="M69.566,325.439V281.405l33.949,23.8v44.033Z" transform="translate(-1.668 0.053)"/><path class="z" d="M69.566,369.472V325.439l33.949,23.8v44.031Z" transform="translate(-1.668 0.07)"/><path class="af" d="M69.566,413.5v-44.03l33.949,23.793V437.3Z" transform="translate(-1.668 0.087)"/><path class="ac" d="M69.566,457.536V413.5l33.949,23.8v44.034Z" transform="translate(-1.668 0.104)"/><path class="af" d="M69.566,501.57V457.536l33.949,23.8v44.034Z" transform="translate(-1.668 0.121)"/><path class="ag" d="M69.566,545.6V501.57l33.949,23.8V569.4Z" transform="translate(-1.668 0.138)"/><path class="ah" d="M69.566,589.634V545.6L103.515,569.4v44.034Z" transform="translate(-1.668 0.155)"/><path class="ad" d="M69.566,633.668V589.634l33.949,23.8v44.034Z" transform="translate(-1.668 0.172)"/><path class="ai" d="M69.566,677.7V633.668l33.949,23.8V701.5Z" transform="translate(-1.668 0.189)"/><path class="ai" d="M69.566,721.736V677.7l33.949,23.8v44.03Z" transform="translate(-1.668 0.206)"/><path class="l" d="M69.566,765.766v-44.03l33.949,23.793v44.034Z" transform="translate(-1.668 0.266)"/><path class="d" d="M69.566,809.8V765.766l33.949,23.8V833.6Z" transform="translate(-1.668 0.266)"/><path class="aj" d="M69.566,853.834V809.8l33.949,23.8V877.63Z" transform="translate(-1.668 0.266)"/><path class="ak" d="M103.515,877.63v21.075H70.763l-1.2-.838V853.834Z" transform="translate(-1.668 0.266)"/><path class="al" d="M137.464.055v20.71L107.917.055Z" transform="translate(-3.693 -0.055)"/><path class="q" d="M107.917.055l29.548,20.71V64.8L103.515,41V.055Z" transform="translate(-3.624 -0.055)"/><path class="r" d="M103.515,85.036V41l33.949,23.8v44.033Z" transform="translate(-3.624 -0.055)"/><path class="ae" d="M103.515,129.069V85.036l33.949,23.8v44.033Z" transform="translate(-3.624 -0.055)"/><path class="ak" d="M103.515,173.1V129.069l33.949,23.8V196.9Z" transform="translate(-3.624 -0.055)"/><path class="l" d="M103.515,217.135V173.1l33.949,23.8V240.93Z" transform="translate(-3.624 0.012)"/><path class="am" d="M103.515,261.168V217.135l33.949,23.8v44.033Z" transform="translate(-3.624 0.029)"/><path class="e" d="M103.515,305.2V261.168l33.949,23.8V329Z" transform="translate(-3.624 0.046)"/><path class="an" d="M103.515,349.234V305.2L137.464,329v44.031Z" transform="translate(-3.624 0.063)"/><path class="ao" d="M103.515,393.265V349.234l33.949,23.794v44.034Z" transform="translate(-3.624 0.08)"/><path class="g" d="M103.515,437.3V393.265l33.949,23.8V461.1Z" transform="translate(-3.624 0.097)"/><path class="aa" d="M103.515,481.333V437.3l33.949,23.8v44.034Z" transform="translate(-3.624 0.114)"/><path class="ah" d="M103.515,525.367V481.333l33.949,23.8v44.03Z" transform="translate(-3.624 0.131)"/><path class="af" d="M103.515,569.4v-44.03l33.949,23.793v44.034Z" transform="translate(-3.624 0.148)"/><path class="ap" d="M103.515,613.431V569.4l33.949,23.8v44.034Z" transform="translate(-3.624 0.165)"/><path class="aq" d="M103.515,657.465V613.431l33.949,23.8v44.034Z" transform="translate(-3.624 0.182)"/><path class="ar" d="M103.515,701.5V657.465l33.949,23.8v44.03Z" transform="translate(-3.624 0.199)"/><path class="z" d="M103.515,745.529V701.5l33.949,23.793v44.034Z" transform="translate(-3.624 0.266)"/><path class="ap" d="M103.515,789.563V745.529l33.949,23.8v44.034Z" transform="translate(-3.624 0.266)"/><path class="as" d="M103.515,833.6V789.563l33.949,23.8v44.034Z" transform="translate(-3.624 0.266)"/><path class="l" d="M137.464,857.393v41.313h-3.879l-30.07-21.075V833.6Z" transform="translate(-3.624 0.266)"/><path class="p" d="M133.585,898.705h-30.07V877.63Z" transform="translate(-3.611 0.266)"/><path class="al" d="M170.739.055l.674.473V44.561l-33.949-23.8V.055Z" transform="translate(-4.276 -0.055)"/><path class="t" d="M137.464,64.8V20.766l33.949,23.8V88.594Z" transform="translate(-4.276 -0.055)"/><path class="t" d="M137.464,108.832V64.8l33.949,23.8v44.033Z" transform="translate(-4.276 -0.055)"/><path class="b" d="M137.464,152.864V108.832l33.949,23.8V176.66Z" transform="translate(-4.276 -0.055)"/><path class="c" d="M137.464,196.9V152.864l33.949,23.8v44.033Z" transform="translate(-4.276 0.004)"/><path class="h" d="M137.464,240.93V196.9l33.949,23.8v44.033Z" transform="translate(-4.276 0.021)"/><path class="as" d="M137.464,284.963V240.93l33.949,23.8v44.033Z" transform="translate(-4.276 0.038)"/><path class="m" d="M137.464,329V284.963l33.949,23.8v44.033Z" transform="translate(-4.276 0.055)"/><path class="at" d="M137.464,373.027V329l33.949,23.8v44.032Z" transform="translate(-4.276 0.072)"/><path class="h" d="M137.464,417.061V373.027l33.949,23.8v44.034Z" transform="translate(-4.276 0.089)"/><path class="g" d="M137.464,461.1V417.061l33.949,23.8v44.034Z" transform="translate(-4.276 0.106)"/><path class="ao" d="M137.464,505.129V461.1l33.949,23.8v44.03Z" transform="translate(-4.276 0.123)"/><path class="au" d="M137.464,549.159v-44.03l33.949,23.793v44.034Z" transform="translate(-4.276 0.14)"/><path class="av" d="M137.464,593.193V549.159l33.949,23.8v44.034Z" transform="translate(-4.276 0.157)"/><path class="af" d="M137.464,637.227V593.193l33.949,23.8v44.034Z" transform="translate(-4.276 0.174)"/><path class="z" d="M137.464,681.261V637.227l33.949,23.8v44.03Z" transform="translate(-4.276 0.191)"/><path class="i" d="M137.464,725.291v-44.03l33.949,23.793v44.034Z" transform="translate(-4.276 0.208)"/><path class="aw" d="M137.464,769.325V725.291l33.949,23.8v44.034Z" transform="translate(-4.276 0.266)"/><path class="ag" d="M137.464,813.359V769.325l33.949,23.8v44.034Z" transform="translate(-4.276 0.266)"/><path class="af" d="M137.464,857.393V813.359l33.949,23.8v44.03Z" transform="translate(-4.276 0.266)"/><path class="an" d="M137.464,898.705V857.393l33.949,23.793v17.52Z" transform="translate(-4.276 0.266)"/><path class="ax" d="M205.362.055V24.324L171.413.528V.055Z" transform="translate(-4.928 -0.055)"/><path class="r" d="M171.413,44.561V.528l33.949,23.8V68.356Z" transform="translate(-4.928 -0.055)"/><path class="ae" d="M171.413,88.594V44.561l33.949,23.8v44.033Z" transform="translate(-4.928 -0.055)"/><path class="v" d="M171.413,132.627V88.594l33.949,23.8v44.033Z" transform="translate(-4.928 -0.055)"/><path class="w" d="M171.413,176.66V132.627l33.949,23.8v44.033Z" transform="translate(-4.928 -0.055)"/><path class="ay" d="M171.413,220.693V176.66l33.949,23.8v44.033Z" transform="translate(-4.928 0.013)"/><path class="n" d="M171.413,264.726V220.693l33.949,23.8v44.033Z" transform="translate(-4.928 0.03)"/><path class="i" d="M171.413,308.758V264.726l33.949,23.8v44.033Z" transform="translate(-4.928 0.047)"/><path class="m" d="M171.413,352.792V308.758l33.949,23.8v44.032Z" transform="translate(-4.928 0.064)"/><path class="f" d="M171.413,396.824V352.792l33.949,23.794V420.62Z" transform="translate(-4.928 0.081)"/><path class="ap" d="M171.413,440.858V396.824l33.949,23.8v44.034Z" transform="translate(-4.928 0.098)"/><path class="am" d="M171.413,484.891V440.858l33.949,23.8v44.03Z" transform="translate(-4.928 0.115)"/><path class="az" d="M171.413,528.922v-44.03l33.949,23.793v44.034Z" transform="translate(-4.928 0.132)"/><path class="az" d="M171.413,572.956V528.922l33.949,23.8v44.034Z" transform="translate(-4.928 0.149)"/><path class="af" d="M171.413,616.989V572.956l33.949,23.8v44.034Z" transform="translate(-4.928 0.166)"/><path class="ba" d="M171.413,661.023V616.989l33.949,23.8v44.03Z" transform="translate(-4.928 0.183)"/><path class="av" d="M171.413,705.053v-44.03l33.949,23.793V728.85Z" transform="translate(-4.928 0.2)"/><path class="az" d="M171.413,749.087V705.053l33.949,23.8v44.034Z" transform="translate(-4.928 0.266)"/><path class="aa" d="M171.413,793.121V749.087l33.949,23.8v44.034Z" transform="translate(-4.928 0.266)"/><path class="af" d="M171.413,837.155V793.121l33.949,23.8v44.03Z" transform="translate(-4.928 0.266)"/><path class="ah" d="M205.362,860.948v37.758h-8.955l-24.994-17.52v-44.03Z" transform="translate(-4.928 0.266)"/><path class="af" d="M196.407,898.705H171.413v-17.52Z" transform="translate(-4.878 0.266)"/><path class="p" d="M239.311.055V4.086L233.561.055Z" transform="translate(-5.914 -0.055)"/><path class="p" d="M233.561.055l5.75,4.031V48.119l-33.949-23.8V.055Z" transform="translate(-5.579 -0.055)"/><path class="q" d="M205.362,68.356V24.324l33.949,23.8V92.152Z" transform="translate(-5.579 -0.055)"/><path class="ak" d="M205.362,112.389V68.356l33.949,23.8v44.033Z" transform="translate(-5.579 -0.055)"/><path class="a" d="M205.362,156.422V112.389l33.949,23.8v44.033Z" transform="translate(-5.579 -0.055)"/><path class="n" d="M205.362,200.455V156.422l33.949,23.8v44.033Z" transform="translate(-5.579 0.005)"/><path class="ay" d="M205.362,244.488V200.455l33.949,23.8v44.033Z" transform="translate(-5.579 0.022)"/><path class="i" d="M205.362,288.521V244.488l33.949,23.8v44.033Z" transform="translate(-5.579 0.039)"/><path class="ad" d="M205.362,332.554V288.521l33.949,23.8V356.35Z" transform="translate(-5.579 0.056)"/><path class="k" d="M205.362,376.586V332.554l33.949,23.8v44.033Z" transform="translate(-5.579 0.073)"/><path class="bb" d="M205.362,420.62V376.586l33.949,23.8v44.034Z" transform="translate(-5.579 0.09)"/><path class="aq" d="M205.362,464.654V420.62l33.949,23.8v44.03Z" transform="translate(-5.579 0.107)"/><path class="y" d="M205.362,508.684v-44.03l33.949,23.793V532.48Z" transform="translate(-5.579 0.124)"/><path class="aq" d="M205.362,552.718V508.684l33.949,23.8v44.034Z" transform="translate(-5.579 0.141)"/><path class="af" d="M205.362,596.752V552.718l33.949,23.8v44.034Z" transform="translate(-5.579 0.158)"/><path class="ap" d="M205.362,640.786V596.752l33.949,23.8v44.03Z" transform="translate(-5.579 0.175)"/><path class="af" d="M205.362,684.816v-44.03l33.949,23.793v44.034Z" transform="translate(-5.579 0.192)"/><path class="af" d="M205.362,728.85V684.816l33.949,23.8v44.034Z" transform="translate(-5.579 0.209)"/><path class="ah" d="M205.362,772.884V728.85l33.949,23.8V796.68Z" transform="translate(-5.579 0.266)"/><path class="af" d="M205.362,816.917V772.884l33.949,23.8v44.03Z" transform="translate(-5.579 0.266)"/><path class="af" d="M205.362,860.948v-44.03l33.949,23.793v44.034Z" transform="translate(-5.579 0.266)"/><path class="bc" d="M205.362,898.705V860.948l33.949,23.8v13.961Z" transform="translate(-5.579 0.266)"/><path class="b" d="M273.26.055V27.881l-33.949-23.8V.055Z" transform="translate(-6.231 -0.055)"/><path class="ak" d="M239.311,48.119V4.086l33.949,23.8V71.914Z" transform="translate(-6.231 -0.055)"/><path class="a" d="M239.311,92.152V48.119l33.949,23.8v44.033Z" transform="translate(-6.231 -0.055)"/><path class="b" d="M239.311,136.185V92.152l33.949,23.8V159.98Z" transform="translate(-6.231 -0.055)"/><path class="l" d="M239.311,180.218V136.185l33.949,23.8v44.033Z" transform="translate(-6.231 -0.003)"/><path class="ai" d="M239.311,224.251V180.218l33.949,23.8v44.033Z" transform="translate(-6.231 0.014)"/><path class="c" d="M239.311,268.284V224.251l33.949,23.8v44.033Z" transform="translate(-6.231 0.031)"/><path class="e" d="M239.311,312.316V268.284l33.949,23.8v44.033Z" transform="translate(-6.231 0.048)"/><path class="at" d="M239.311,356.35V312.316l33.949,23.8v44.033Z" transform="translate(-6.231 0.065)"/><path class="i" d="M239.311,400.382V356.35l33.949,23.8v44.034Z" transform="translate(-6.231 0.082)"/><path class="g" d="M239.311,444.416V400.382l33.949,23.8v44.034Z" transform="translate(-6.231 0.099)"/><path class="bd" d="M239.311,488.446v-44.03l33.949,23.8v44.03Z" transform="translate(-6.231 0.116)"/><path class="at" d="M239.311,532.48V488.446l33.949,23.8v44.034Z" transform="translate(-6.231 0.133)"/><path class="bc" d="M239.311,576.514V532.48l33.949,23.8V600.31Z" transform="translate(-6.231 0.15)"/><path class="af" d="M239.311,620.548V576.514l33.949,23.8v44.03Z" transform="translate(-6.231 0.167)"/><path class="af" d="M239.311,664.578v-44.03l33.949,23.793v44.034Z" transform="translate(-6.231 0.184)"/><path class="af" d="M239.311,708.612V664.578l33.949,23.8v44.034Z" transform="translate(-6.231 0.201)"/><path class="af" d="M239.311,752.646V708.612l33.949,23.8v44.034Z" transform="translate(-6.231 0.266)"/><path class="af" d="M239.311,796.68V752.646l33.949,23.8v44.03Z" transform="translate(-6.231 0.266)"/><path class="af" d="M239.311,840.71V796.68l33.949,23.793v44.034Z" transform="translate(-6.231 0.266)"/><path class="af" d="M273.26,864.506v34.2H259.229l-19.918-13.961V840.71Z" transform="translate(-6.231 0.266)"/><path class="af" d="M259.229,898.705H239.311V884.744Z" transform="translate(-6.123 0.266)"/><path class="p" d="M307.209.055V7.644L296.383.055Z" transform="translate(-7.109 -0.055)"/><path class="p" d="M296.383.055l10.827,7.588V51.677l-33.949-23.8V.055Z" transform="translate(-6.883 -0.055)"/><path class="n" d="M273.26,71.914V27.881l33.949,23.8V95.71Z" transform="translate(-6.883 -0.055)"/><path class="p" d="M273.26,115.947V71.914l33.949,23.8v44.033Z" transform="translate(-6.883 -0.055)"/><path class="ar" d="M273.26,159.98V115.947l33.949,23.8v44.033Z" transform="translate(-6.883 -0.055)"/><path class="n" d="M273.26,204.013V159.98l33.949,23.8v44.033Z" transform="translate(-6.883 0.006)"/><path class="ai" d="M273.26,248.046V204.013l33.949,23.8v44.033Z" transform="translate(-6.883 0.023)"/><path class="ai" d="M273.26,292.079V248.046l33.949,23.8v44.033Z" transform="translate(-6.883 0.04)"/><path class="bb" d="M273.26,336.112V292.079l33.949,23.8v44.033Z" transform="translate(-6.883 0.058)"/><path class="l" d="M273.26,380.145V336.112l33.949,23.8v44.034Z" transform="translate(-6.883 0.075)"/><path class="ad" d="M273.26,424.179V380.145l33.949,23.8v44.034Z" transform="translate(-6.883 0.092)"/><path class="ao" d="M273.26,468.212V424.179l33.949,23.8v44.03Z" transform="translate(-6.883 0.109)"/><path class="an" d="M273.26,512.243v-44.03l33.949,23.793v44.034Z" transform="translate(-6.883 0.126)"/><path class="af" d="M273.26,556.277V512.243l33.949,23.8v44.034Z" transform="translate(-6.883 0.143)"/><path class="ag" d="M273.26,600.31V556.277l33.949,23.8v44.034Z" transform="translate(-6.883 0.16)"/><path class="af" d="M273.26,644.341V600.31l33.949,23.8v44.03Z" transform="translate(-6.883 0.177)"/><path class="av" d="M273.26,688.375V644.341l33.949,23.8v44.034Z" transform="translate(-6.883 0.194)"/><path class="af" d="M273.26,732.408V688.375l33.949,23.8V756.2Z" transform="translate(-6.883 0.211)"/><path class="af" d="M273.26,776.442V732.408l33.949,23.8v44.03Z" transform="translate(-6.883 0.266)"/><path class="af" d="M273.26,820.472v-44.03l33.949,23.793v44.034Z" transform="translate(-6.883 0.266)"/><path class="af" d="M273.26,864.506V820.472l33.949,23.8V888.3Z" transform="translate(-6.883 0.266)"/><path class="af" d="M273.26,898.705v-34.2l33.949,23.8v10.4Z" transform="translate(-6.883 0.266)"/><path class="ar" d="M341.158.055V31.439l-33.949-23.8V.055Z" transform="translate(-7.535 -0.055)"/><path class="n" d="M307.209,51.677V7.644l33.949,23.8V75.472Z" transform="translate(-7.535 -0.055)"/><path class="v" d="M307.209,95.71V51.677l33.949,23.8V119.5Z" transform="translate(-7.535 -0.055)"/><path class="ay" d="M307.209,139.743V95.71l33.949,23.8v44.033Z" transform="translate(-7.535 -0.055)"/><path class="c" d="M307.209,183.776V139.743l33.949,23.8v44.033Z" transform="translate(-7.535 -0.001)"/><path class="at" d="M307.209,227.808V183.776l33.949,23.8V251.6Z" transform="translate(-7.535 0.016)"/><path class="am" d="M307.209,271.841V227.808l33.949,23.8v44.033Z" transform="translate(-7.535 0.033)"/><path class="k" d="M307.209,315.874V271.841l33.949,23.8V339.67Z" transform="translate(-7.535 0.05)"/><path class="be" d="M307.209,359.907V315.874l33.949,23.8V383.7Z" transform="translate(-7.535 0.067)"/><path class="x" d="M307.209,403.941V359.907l33.949,23.8v44.034Z" transform="translate(-7.535 0.084)"/><path class="am" d="M307.209,447.975V403.941l33.949,23.8v44.03Z" transform="translate(-7.535 0.101)"/><path class="ao" d="M307.209,492.005v-44.03l33.949,23.793V515.8Z" transform="translate(-7.535 0.118)"/><path class="ap" d="M307.209,536.039V492.005l33.949,23.8v44.034Z" transform="translate(-7.535 0.135)"/><path class="bc" d="M307.209,580.073V536.039l33.949,23.8v44.034Z" transform="translate(-7.535 0.152)"/><path class="be" d="M307.209,624.107V580.073l33.949,23.8V647.9Z" transform="translate(-7.535 0.169)"/><path class="af" d="M307.209,668.137v-44.03L341.158,647.9v44.034Z" transform="translate(-7.535 0.186)"/><path class="af" d="M307.209,712.171V668.137l33.949,23.8v44.034Z" transform="translate(-7.535 0.203)"/><path class="af" d="M307.209,756.2V712.171l33.949,23.8V780Z" transform="translate(-7.535 0.266)"/><path class="af" d="M307.209,800.235V756.2L341.158,780v44.03Z" transform="translate(-7.535 0.266)"/><path class="af" d="M307.209,844.269V800.235l33.949,23.8v44.034Z" transform="translate(-7.535 0.266)"/><path class="af" d="M341.158,868.065v30.64H322.051l-14.842-10.4V844.269Z" transform="translate(-7.535 0.266)"/><path class="af" d="M322.051,898.705H307.209V888.3Z" transform="translate(-7.347 0.266)"/><path class="ak" d="M375.108.055V11.2L359.2.055Z" transform="translate(-8.325 -0.055)"/><path class="ay" d="M359.2.055l15.9,11.146V55.235l-33.95-23.8V.055Z" transform="translate(-8.187 -0.055)"/><path class="w" d="M341.158,75.472V31.439l33.95,23.8V99.267Z" transform="translate(-8.187 -0.055)"/><path class="d" d="M341.158,119.5V75.472l33.95,23.8V143.3Z" transform="translate(-8.187 -0.055)"/><path class="p" d="M341.158,163.538V119.5l33.95,23.8v44.033Z" transform="translate(-8.187 -0.055)"/><path class="n" d="M341.158,207.571V163.538l33.95,23.8v44.033Z" transform="translate(-8.187 0.008)"/><path class="l" d="M341.158,251.6V207.571l33.95,23.8V275.4Z" transform="translate(-8.187 0.025)"/><path class="m" d="M341.158,295.637V251.6l33.95,23.8v44.033Z" transform="translate(-8.187 0.042)"/><path class="be" d="M341.158,339.67V295.637l33.95,23.8v44.034Z" transform="translate(-8.187 0.059)"/><path class="f" d="M341.158,383.7V339.67l33.95,23.8V407.5Z" transform="translate(-8.187 0.076)"/><path class="x" d="M341.158,427.737V383.7l33.95,23.8v44.03Z" transform="translate(-8.187 0.093)"/><path class="at" d="M341.158,471.767v-44.03l33.95,23.793v44.034Z" transform="translate(-8.187 0.11)"/><path class="aq" d="M341.158,515.8V471.767l33.95,23.8V539.6Z" transform="translate(-8.187 0.127)"/><path class="au" d="M341.158,559.835V515.8l33.95,23.8v44.034Z" transform="translate(-8.187 0.144)"/><path class="ap" d="M341.158,603.869V559.835l33.95,23.8v44.03Z" transform="translate(-8.187 0.161)"/><path class="ap" d="M341.158,647.9v-44.03l33.95,23.793V671.7Z" transform="translate(-8.187 0.178)"/><path class="af" d="M341.158,691.933V647.9l33.95,23.8v44.034Z" transform="translate(-8.187 0.195)"/><path class="af" d="M341.158,735.967V691.933l33.95,23.8v44.034Z" transform="translate(-8.187 0.212)"/><path class="af" d="M341.158,780V735.967l33.95,23.8v44.03Z" transform="translate(-8.187 0.266)"/><path class="af" d="M341.158,824.031V780l33.95,23.793v44.034Z" transform="translate(-8.187 0.266)"/><path class="af" d="M341.158,868.065V824.031l33.95,23.8v44.034Z" transform="translate(-8.187 0.266)"/><path class="af" d="M341.158,898.705v-30.64l33.95,23.8v6.844Z" transform="translate(-8.187 0.266)"/><path class="p" d="M409.055.055V35L375.108,11.2V.055Z" transform="translate(-8.839 -0.055)"/><path class="ay" d="M375.108,55.235V11.2L409.055,35V79.03Z" transform="translate(-8.839 -0.055)"/><path class="n" d="M375.108,99.267V55.235l33.947,23.8v44.033Z" transform="translate(-8.839 -0.055)"/><path class="ar" d="M375.108,143.3V99.267l33.947,23.8V167.1Z" transform="translate(-8.839 -0.055)"/><path class="ar" d="M375.108,187.333V143.3l33.947,23.8v44.033Z" transform="translate(-8.839 0)"/><path class="m" d="M375.108,231.366V187.333l33.947,23.8v44.033Z" transform="translate(-8.839 0.017)"/><path class="aj" d="M375.108,275.4V231.366l33.947,23.8v44.033Z" transform="translate(-8.839 0.034)"/><path class="au" d="M375.108,319.432V275.4l33.947,23.8v44.033Z" transform="translate(-8.839 0.051)"/><path class="f" d="M375.108,363.466V319.432l33.947,23.8v44.035Z" transform="translate(-8.839 0.068)"/><path class="bb" d="M375.108,407.5V363.466l33.947,23.8v44.03Z" transform="translate(-8.839 0.085)"/><path class="aw" d="M375.108,451.53V407.5l33.947,23.793v44.034Z" transform="translate(-8.839 0.102)"/><path class="y" d="M375.108,495.564V451.53l33.947,23.8V519.36Z" transform="translate(-8.839 0.119)"/><path class="aw" d="M375.108,539.6V495.564l33.947,23.8v44.034Z" transform="translate(-8.839 0.136)"/><path class="aw" d="M375.108,583.631V539.6l33.947,23.8v44.03Z" transform="translate(-8.839 0.153)"/><path class="af" d="M375.108,627.662v-44.03l33.947,23.793v44.034Z" transform="translate(-8.839 0.17)"/><path class="bd" d="M375.108,671.7V627.662l33.947,23.8v44.034Z" transform="translate(-8.839 0.187)"/><path class="af" d="M375.108,715.729V671.7l33.947,23.8v44.034Z" transform="translate(-8.839 0.204)"/><path class="af" d="M375.108,759.763V715.729l33.947,23.8v44.03Z" transform="translate(-8.839 0.266)"/><path class="af" d="M375.108,803.794v-44.03l33.947,23.793V827.59Z" transform="translate(-8.839 0.266)"/><path class="af" d="M375.108,847.827V803.794l33.947,23.8v44.034Z" transform="translate(-8.839 0.266)"/><path class="af" d="M409.055,871.624v27.082H384.874l-9.767-6.844V847.827Z" transform="translate(-8.839 0.266)"/><path class="af" d="M384.874,898.705h-9.767v-6.844Z" transform="translate(-8.551 0.266)"/><path class="o" d="M443.006.055v14.7L422.028.055Z" transform="translate(-9.562 -0.055)"/><path class="p" d="M422.028.055l20.978,14.7V58.793L409.055,35V.055Z" transform="translate(-9.491 -0.055)"/><path class="o" d="M409.055,79.03V35l33.951,23.8v44.033Z" transform="translate(-9.491 -0.055)"/><path class="l" d="M409.055,123.063V79.03l33.951,23.8v44.033Z" transform="translate(-9.491 -0.055)"/><path class="w" d="M409.055,167.1V123.063l33.951,23.8v44.033Z" transform="translate(-9.491 -0.055)"/><path class="n" d="M409.055,211.129V167.1l33.951,23.8v44.033Z" transform="translate(-9.491 0.009)"/><path class="n" d="M409.055,255.162V211.129l33.951,23.8v44.033Z" transform="translate(-9.491 0.026)"/><path class="am" d="M409.055,299.195V255.162l33.951,23.8V322.99Z" transform="translate(-9.491 0.043)"/><path class="af" d="M409.055,343.227V299.195l33.951,23.8v44.035Z" transform="translate(-9.491 0.06)"/><path class="at" d="M409.055,387.262V343.227l33.951,23.8v44.03Z" transform="translate(-9.491 0.077)"/><path class="g" d="M409.055,431.292v-44.03l33.951,23.793v44.034Z" transform="translate(-9.491 0.094)"/><path class="bb" d="M409.055,475.326V431.292l33.951,23.8v44.034Z" transform="translate(-9.491 0.111)"/><path class="ap" d="M409.055,519.36V475.326l33.951,23.8v44.034Z" transform="translate(-9.491 0.128)"/><path class="bf" d="M409.055,563.394V519.36l33.951,23.8v44.03Z" transform="translate(-9.491 0.145)"/><path class="y" d="M409.055,607.424v-44.03l33.951,23.793V631.22Z" transform="translate(-9.491 0.162)"/><path class="bc" d="M409.055,651.458V607.424l33.951,23.8v44.034Z" transform="translate(-9.491 0.179)"/><path class="af" d="M409.055,695.492V651.458l33.951,23.8v44.034Z" transform="translate(-9.491 0.196)"/><path class="af" d="M409.055,739.526V695.492l33.951,23.8v44.03Z" transform="translate(-9.491 0.213)"/><path class="af" d="M409.055,783.556v-44.03l33.951,23.793v44.034Z" transform="translate(-9.491 0.266)"/><path class="af" d="M409.055,827.59V783.556l33.951,23.8v44.034Z" transform="translate(-9.491 0.266)"/><path class="af" d="M409.055,871.624V827.59l33.951,23.8V895.42Z" transform="translate(-9.491 0.266)"/><path class="af" d="M409.055,898.705V871.624l33.951,23.8v3.285Z" transform="translate(-9.491 0.266)"/><path class="ay" d="M476.953.055v38.5l-33.947-23.8V.055Z" transform="translate(-10.143 -0.055)"/><path class="v" d="M443.006,58.793V14.759l33.947,23.8V82.588Z" transform="translate(-10.143 -0.055)"/><path class="v" d="M443.006,102.825V58.793l33.947,23.8v44.033Z" transform="translate(-10.143 -0.055)"/><path class="c" d="M443.006,146.858V102.825l33.947,23.8v44.033Z" transform="translate(-10.143 -0.055)"/><path class="x" d="M443.006,190.891V146.858l33.947,23.8v44.033Z" transform="translate(-10.143 0.001)"/><path class="k" d="M443.006,234.924V190.891l33.947,23.8V258.72Z" transform="translate(-10.143 0.018)"/><path class="ac" d="M443.006,278.957V234.924l33.947,23.8v44.033Z" transform="translate(-10.143 0.035)"/><path class="ac" d="M443.006,322.99V278.957l33.947,23.8v44.033Z" transform="translate(-10.143 0.052)"/><path class="f" d="M443.006,367.024V322.99l33.947,23.8v44.032Z" transform="translate(-10.143 0.069)"/><path class="an" d="M443.006,411.055v-44.03l33.947,23.793v44.034Z" transform="translate(-10.143 0.086)"/><path class="ba" d="M443.006,455.089V411.055l33.947,23.8v44.034Z" transform="translate(-10.143 0.103)"/><path class="ah" d="M443.006,499.122V455.089l33.947,23.8v44.034Z" transform="translate(-10.143 0.12)"/><path class="av" d="M443.006,543.156V499.122l33.947,23.8v44.03Z" transform="translate(-10.143 0.137)"/><path class="aq" d="M443.006,587.187v-44.03l33.947,23.793v44.034Z" transform="translate(-10.143 0.155)"/><path class="au" d="M443.006,631.22V587.187l33.947,23.8v44.034Z" transform="translate(-10.143 0.172)"/><path class="aa" d="M443.006,675.254V631.22l33.947,23.8V699.05Z" transform="translate(-10.143 0.189)"/><path class="af" d="M443.006,719.288V675.254l33.947,23.8v44.03Z" transform="translate(-10.143 0.206)"/><path class="af" d="M443.006,763.318v-44.03l33.947,23.793v44.034Z" transform="translate(-10.143 0.266)"/><path class="af" d="M443.006,807.352V763.318l33.947,23.8v44.034Z" transform="translate(-10.143 0.266)"/><path class="af" d="M443.006,851.386V807.352l33.947,23.8v44.034Z" transform="translate(-10.143 0.266)"/><path class="af" d="M476.953,875.182v23.523h-29.26l-4.687-3.285V851.386Z" transform="translate(-10.143 0.266)"/><path class="af" d="M447.693,898.705h-4.687V895.42Z" transform="translate(-9.734 0.266)"/><path class="v" d="M510.9.055V18.317L484.847.055Z" transform="translate(-10.821 -0.055)"/><path class="o" d="M484.847.055,510.9,18.317V62.35l-33.951-23.8V.055Z" transform="translate(-10.795 -0.055)"/><path class="v" d="M476.953,82.588V38.555L510.9,62.35v44.033Z" transform="translate(-10.795 -0.055)"/><path class="r" d="M476.953,126.621V82.588l33.951,23.8v44.033Z" transform="translate(-10.795 -0.055)"/><path class="ar" d="M476.953,170.654V126.621l33.951,23.8v44.033Z" transform="translate(-10.795 -0.055)"/><path class="i" d="M476.953,214.687V170.654l33.951,23.8v44.033Z" transform="translate(-10.795 0.011)"/><path class="at" d="M476.953,258.72V214.687l33.951,23.8v44.033Z" transform="translate(-10.795 0.028)"/><path class="bd" d="M476.953,302.753V258.72l33.951,23.8v44.033Z" transform="translate(-10.795 0.045)"/><path class="bd" d="M476.953,346.785V302.753l33.951,23.8v44.032Z" transform="translate(-10.795 0.062)"/><path class="bf" d="M476.953,390.817V346.785L510.9,370.579v44.034Z" transform="translate(-10.795 0.079)"/><path class="af" d="M476.953,434.851V390.817l33.951,23.8v44.034Z" transform="translate(-10.795 0.096)"/><path class="ac" d="M476.953,478.885V434.851l33.951,23.8v44.034Z" transform="translate(-10.795 0.113)"/><path class="af" d="M476.953,522.919V478.885l33.951,23.8v44.03Z" transform="translate(-10.795 0.13)"/><path class="af" d="M476.953,566.949v-44.03L510.9,546.711v44.034Z" transform="translate(-10.795 0.147)"/><path class="af" d="M476.953,610.983V566.949l33.951,23.8v44.034Z" transform="translate(-10.795 0.164)"/><path class="af" d="M476.953,655.017V610.983l33.951,23.8v44.034Z" transform="translate(-10.795 0.181)"/><path class="af" d="M476.953,699.05V655.017l33.951,23.8v44.03Z" transform="translate(-10.795 0.198)"/><path class="af" d="M476.953,743.081V699.05L510.9,722.843v44.034Z" transform="translate(-10.795 0.266)"/><path class="af" d="M476.953,787.115V743.081l33.951,23.8v44.034Z" transform="translate(-10.795 0.266)"/><path class="af" d="M476.953,831.148V787.115l33.951,23.8v44.034Z" transform="translate(-10.795 0.266)"/><path class="af" d="M510.9,854.945v43.761h-.388l-33.563-23.523V831.148Z" transform="translate(-10.795 0.266)"/><path class="af" d="M510.516,898.705H476.953V875.182Z" transform="translate(-10.788 0.266)"/><path class="x" d="M544.852.055V42.113L510.9,18.317V.055Z" transform="translate(-12.75 -0.055)"/><path class="ay" d="M510.9,62.35V18.317l33.947,23.8V86.146Z" transform="translate(-12.75 -0.055)"/><path class="p" d="M510.9,106.383V62.35l33.947,23.8v44.033Z" transform="translate(-12.75 -0.055)"/><path class="u" d="M510.9,150.416V106.383l33.947,23.8v44.033Z" transform="translate(-12.75 -0.055)"/><path class="ay" d="M510.9,194.449V150.416l33.947,23.8v44.033Z" transform="translate(-12.75 0.003)"/><path class="ar" d="M510.9,238.482V194.449l33.947,23.8v44.033Z" transform="translate(-12.75 0.02)"/><path class="be" d="M510.9,282.515V238.482l33.947,23.8V306.31Z" transform="translate(-12.75 0.037)"/><path class="h" d="M510.9,326.548V282.515l33.947,23.8v44.033Z" transform="translate(-12.75 0.054)"/><path class="bg" d="M510.9,370.579V326.548l33.947,23.8v44.032Z" transform="translate(-12.75 0.071)"/><path class="ba" d="M510.9,414.613V370.579l33.947,23.8V438.41Z" transform="translate(-12.75 0.088)"/><path class="af" d="M510.9,458.647V414.613l33.947,23.8v44.034Z" transform="translate(-12.75 0.105)"/><path class="af" d="M510.9,502.681V458.647l33.947,23.8v44.03Z" transform="translate(-12.75 0.122)"/><path class="af" d="M510.9,546.711v-44.03l33.947,23.793v44.034Z" transform="translate(-12.75 0.139)"/><path class="af" d="M510.9,590.745V546.711l33.947,23.8v44.034Z" transform="translate(-12.75 0.156)"/><path class="af" d="M510.9,634.779V590.745l33.947,23.8v44.034Z" transform="translate(-12.75 0.173)"/><path class="af" d="M510.9,678.813V634.779l33.947,23.8v44.03Z" transform="translate(-12.75 0.19)"/><path class="af" d="M510.9,722.843v-44.03l33.947,23.793v44.034Z" transform="translate(-12.75 0.207)"/><path class="af" d="M510.9,766.877V722.843l33.947,23.8v44.034Z" transform="translate(-12.75 0.266)"/><path class="af" d="M510.9,810.911V766.877l33.947,23.8v44.034Z" transform="translate(-12.75 0.266)"/><path class="af" d="M510.9,854.945V810.911l33.947,23.8v44.03Z" transform="translate(-12.75 0.266)"/><path class="af" d="M510.9,898.705V854.945l33.947,23.793v19.968Z" transform="translate(-12.75 0.266)"/><path class="x" d="M578.8.055v21.82L547.67.055Z" transform="translate(-12.75 -0.055)"/><path class="k" d="M547.67.055,578.8,21.875V65.908l-33.951-23.8V.055Z" transform="translate(-12.75 -0.055)"/><path class="ak" d="M544.852,86.146V42.113l33.951,23.8v44.033Z" transform="translate(-12.75 -0.055)"/><path class="b" d="M544.852,130.179V86.146l33.951,23.8v44.033Z" transform="translate(-12.75 -0.055)"/><path class="ae" d="M544.852,174.212V130.179l33.951,23.8v44.033Z" transform="translate(-12.75 -0.055)"/><path class="w" d="M544.852,218.244V174.212l33.951,23.8V242.04Z" transform="translate(-12.75 0.012)"/><path class="b" d="M544.852,262.277V218.244l33.951,23.8v44.033Z" transform="translate(-12.75 0.029)"/><path class="be" d="M544.852,306.31V262.277l33.951,23.8v44.033Z" transform="translate(-12.75 0.046)"/><path class="aa" d="M544.852,350.343V306.31l33.951,23.8v44.032Z" transform="translate(-12.75 0.063)"/><path class="bc" d="M544.852,394.376V350.343L578.8,374.138v44.034Z" transform="translate(-12.75 0.08)"/><path class="af" d="M544.852,438.41V394.376l33.951,23.8v44.034Z" transform="translate(-12.75 0.097)"/><path class="af" d="M544.852,482.443V438.41l33.951,23.8v44.03Z" transform="translate(-12.75 0.114)"/><path class="af" d="M544.852,526.474v-44.03L578.8,506.236V550.27Z" transform="translate(-12.75 0.131)"/><path class="af" d="M544.852,570.508V526.474l33.951,23.8V594.3Z" transform="translate(-12.75 0.148)"/><path class="af" d="M544.852,614.541V570.508L578.8,594.3v44.034Z" transform="translate(-12.75 0.165)"/><path class="bc" d="M544.852,658.575V614.541l33.951,23.8v44.03Z" transform="translate(-12.75 0.182)"/><path class="aa" d="M544.852,702.606v-44.03L578.8,682.368V726.4Z" transform="translate(-12.75 0.199)"/><path class="af" d="M544.852,746.639V702.606L578.8,726.4v44.034Z" transform="translate(-12.75 0.266)"/><path class="af" d="M544.852,790.673V746.639l33.951,23.8v44.034Z" transform="translate(-12.75 0.266)"/><path class="af" d="M544.852,834.707V790.673l33.951,23.8V858.5Z" transform="translate(-12.75 0.266)"/><path class="af" d="M578.8,858.5v40.206h-5.464l-28.487-19.968v-44.03Z" transform="translate(-12.75 0.266)"/><path class="af" d="M573.339,898.705H544.852V878.737Z" transform="translate(-12.75 0.266)"/><path class="at" d="M610.493.055l2.257,1.582V45.67L578.8,21.875V.055Z" transform="translate(-12.75 -0.055)"/><path class="i" d="M578.8,65.908V21.875l33.947,23.8V89.7Z" transform="translate(-12.75 -0.055)"/><path class="n" d="M578.8,109.941V65.908L612.75,89.7v44.033Z" transform="translate(-12.75 -0.055)"/><path class="v" d="M578.8,153.974V109.941l33.947,23.8v44.033Z" transform="translate(-12.75 -0.055)"/><path class="l" d="M578.8,198.007V153.974l33.947,23.8V221.8Z" transform="translate(-12.75 0.004)"/><path class="o" d="M578.8,242.04V198.007l33.947,23.8v44.033Z" transform="translate(-12.75 0.021)"/><path class="a" d="M578.8,286.073V242.04l33.947,23.8v44.033Z" transform="translate(-12.75 0.038)"/><path class="bf" d="M578.8,330.106V286.073l33.947,23.8V353.9Z" transform="translate(-12.75 0.055)"/><path class="af" d="M578.8,374.138V330.106l33.947,23.8v44.033Z" transform="translate(-12.75 0.072)"/><path class="af" d="M578.8,418.172V374.138l33.947,23.8v44.034Z" transform="translate(-12.75 0.089)"/><path class="af" d="M578.8,462.206V418.172l33.947,23.8V486Z" transform="translate(-12.75 0.106)"/><path class="af" d="M578.8,506.236v-44.03L612.75,486v44.034Z" transform="translate(-12.75 0.123)"/><path class="af" d="M578.8,550.27V506.236l33.947,23.8v44.034Z" transform="translate(-12.75 0.14)"/><path class="af" d="M578.8,594.3V550.27l33.947,23.8V618.1Z" transform="translate(-12.75 0.157)"/><path class="af" d="M578.8,638.338V594.3l33.947,23.8v44.03Z" transform="translate(-12.75 0.174)"/><path class="bg" d="M578.8,682.368v-44.03L612.75,662.13v44.034Z" transform="translate(-12.75 0.191)"/><path class="bg" d="M578.8,726.4V682.368l33.947,23.8V750.2Z" transform="translate(-12.75 0.208)"/><path class="af" d="M578.8,770.436V726.4l33.947,23.8v44.034Z" transform="translate(-12.75 0.266)"/><path class="af" d="M578.8,814.469V770.436l33.947,23.8v44.03Z" transform="translate(-12.75 0.266)"/><path class="af" d="M578.8,858.5v-44.03l33.947,23.793V882.3Z" transform="translate(-12.75 0.266)"/><path class="af" d="M578.8,898.705V858.5l33.947,23.8v16.409Z" transform="translate(-12.75 0.266)"/></g><g class="bh" transform="translate(1.668 0.055)"><path class="bi" d="M612.75,1.084V14.679L578.8,38.474V1.084Z" transform="translate(-12.75 -1.084)"/><path class="bi" d="M612.75,58.712V14.679L578.8,38.474V82.507Z" transform="translate(-12.75 -1.084)"/><path class="bi" d="M612.75,102.745V58.712L578.8,82.507V126.54Z" transform="translate(-12.75 -1.084)"/><path class="bi" d="M612.75,146.778V102.745L578.8,126.54v44.033Z" transform="translate(-12.75 -1.084)"/><path class="bi" d="M612.75,190.811V146.778l-33.947,23.8v44.033Z" transform="translate(-12.75 -0.848)"/><path class="bi" d="M612.75,234.844V190.811l-33.947,23.8v44.033Z" transform="translate(-12.75 -0.776)"/><path class="bi" d="M612.75,278.876V234.844l-33.947,23.8v44.033Z" transform="translate(-12.75 -0.705)"/><path class="bi" d="M612.75,322.91V278.876l-33.947,23.8V346.7Z" transform="translate(-12.75 -0.633)"/><path class="bi" d="M612.75,366.943V322.91L578.8,346.7v44.034Z" transform="translate(-12.75 -0.561)"/><path class="bi" d="M612.75,410.977V366.943l-33.947,23.8v44.03Z" transform="translate(-12.75 -0.49)"/><path class="bi" d="M612.75,455.007v-44.03L578.8,434.769V478.8Z" transform="translate(-12.75 -0.418)"/><path class="bi" d="M612.75,499.041V455.007L578.8,478.8v44.034Z" transform="translate(-12.75 -0.347)"/><path class="bi" d="M612.75,543.074V499.041l-33.947,23.8v44.034Z" transform="translate(-12.75 -0.275)"/><path class="bi" d="M612.75,587.108V543.074l-33.947,23.8V610.9Z" transform="translate(-12.75 -0.204)"/><path class="bi" d="M612.75,631.139v-44.03L578.8,610.9v44.034Z" transform="translate(-12.75 -0.132)"/><path class="bi" d="M612.75,675.172V631.139l-33.947,23.8v44.034Z" transform="translate(-12.75 -0.061)"/><path class="bi" d="M612.75,719.206V675.172l-33.947,23.8V743Z" transform="translate(-12.75 0.011)"/><path class="bi" d="M612.75,763.24V719.206L578.8,743v44.03Z" transform="translate(-12.75 0.266)"/><path class="bi" d="M612.75,807.27V763.24L578.8,787.033v44.034Z" transform="translate(-12.75 0.266)"/><path class="bi" d="M612.75,851.3V807.27l-33.947,23.8V875.1Z" transform="translate(-12.75 0.266)"/><path class="bi" d="M612.75,895.338l-6.273,4.4H578.8V875.1l33.947-23.8Z" transform="translate(-12.75 0.266)"/><path class="bj" d="M569.324,1.084,544.852,18.237V1.084Z" transform="translate(-12.75 -1.084)"/><path class="bk" d="M578.8,1.084v37.39l-33.951,23.8V18.237L569.324,1.084Z" transform="translate(-12.75 -1.084)"/><path class="bk" d="M578.8,82.507V38.474l-33.951,23.8V106.3Z" transform="translate(-12.75 -1.084)"/><path class="bk" d="M578.8,126.54V82.507l-33.951,23.8v44.033Z" transform="translate(-12.75 -1.084)"/><path class="bk" d="M578.8,170.573V126.54l-33.951,23.8v44.033Z" transform="translate(-12.75 -1.084)"/><path class="bk" d="M578.8,214.606V170.573l-33.951,23.8V238.4Z" transform="translate(-12.75 -0.809)"/><path class="bk" d="M578.8,258.639V214.606l-33.951,23.8v44.033Z" transform="translate(-12.75 -0.737)"/><path class="bk" d="M578.8,302.672V258.639l-33.951,23.8v44.033Z" transform="translate(-12.75 -0.666)"/><path class="bk" d="M578.8,346.7V302.672l-33.951,23.8V370.5Z" transform="translate(-12.75 -0.594)"/><path class="bk" d="M578.8,390.739V346.7l-33.951,23.8v44.03Z" transform="translate(-12.75 -0.523)"/><path class="bk" d="M578.8,434.769v-44.03l-33.951,23.793v44.034Z" transform="translate(-12.75 -0.451)"/><path class="bk" d="M578.8,478.8V434.769l-33.951,23.8V502.6Z" transform="translate(-12.75 -0.38)"/><path class="bk" d="M578.8,522.837V478.8l-33.951,23.8v44.034Z" transform="translate(-12.75 -0.308)"/><path class="bk" d="M578.8,566.871V522.837l-33.951,23.8v44.03Z" transform="translate(-12.75 -0.237)"/><path class="bk" d="M578.8,610.9v-44.03l-33.951,23.793V634.7Z" transform="translate(-12.75 -0.165)"/><path class="bk" d="M578.8,654.935V610.9l-33.951,23.8v44.034Z" transform="translate(-12.75 -0.094)"/><path class="bk" d="M578.8,698.969V654.935l-33.951,23.8v44.034Z" transform="translate(-12.75 -0.022)"/><path class="bk" d="M578.8,743V698.969l-33.951,23.8V766.8Z" transform="translate(-12.75 0.266)"/><path class="bk" d="M578.8,787.033V743L544.852,766.8v44.034Z" transform="translate(-12.75 0.266)"/><path class="bk" d="M578.8,831.067V787.033l-33.951,23.8v44.034Z" transform="translate(-12.75 0.266)"/><path class="bk" d="M578.8,875.1V831.067l-33.951,23.8V898.9Z" transform="translate(-12.75 0.266)"/><path class="bk" d="M578.8,899.734H544.852V898.9L578.8,875.1Z" transform="translate(-12.75 0.266)"/><path class="bl" d="M544.852,1.084V18.237L510.9,42.032V1.084Z" transform="translate(-12.75 -1.084)"/><path class="bl" d="M544.852,62.27V18.237L510.9,42.032V86.065Z" transform="translate(-12.75 -1.084)"/><path class="bl" d="M544.852,106.3V62.27L510.9,86.065V130.1Z" transform="translate(-12.75 -1.084)"/><path class="bl" d="M544.852,150.336V106.3L510.9,130.1v44.033Z" transform="translate(-12.75 -1.084)"/><path class="bl" d="M544.852,194.368V150.336l-33.947,23.8v44.033Z" transform="translate(-12.75 -0.842)"/><path class="bl" d="M544.852,238.4V194.368l-33.947,23.8V262.2Z" transform="translate(-12.75 -0.77)"/><path class="bl" d="M544.852,282.434V238.4L510.9,262.2V306.23Z" transform="translate(-12.75 -0.699)"/><path class="bl" d="M544.852,326.467V282.434L510.9,306.23v44.033Z" transform="translate(-12.75 -0.627)"/><path class="bl" d="M544.852,370.5V326.467l-33.947,23.8v44.031Z" transform="translate(-12.75 -0.556)"/><path class="bl" d="M544.852,414.532V370.5L510.9,394.294v44.034Z" transform="translate(-12.75 -0.484)"/><path class="bl" d="M544.852,458.565V414.532l-33.947,23.8v44.034Z" transform="translate(-12.75 -0.413)"/><path class="bl" d="M544.852,502.6V458.565l-33.947,23.8V526.4Z" transform="translate(-12.75 -0.341)"/><path class="bl" d="M544.852,546.633V502.6L510.9,526.4v44.03Z" transform="translate(-12.75 -0.269)"/><path class="bl" d="M544.852,590.663v-44.03L510.9,570.426V614.46Z" transform="translate(-12.75 -0.198)"/><path class="bl" d="M544.852,634.7V590.663L510.9,614.46v44.034Z" transform="translate(-12.75 -0.126)"/><path class="bl" d="M544.852,678.731V634.7l-33.947,23.8v44.034Z" transform="translate(-12.75 -0.055)"/><path class="bl" d="M544.852,722.765V678.731l-33.947,23.8v44.03Z" transform="translate(-12.75 0.017)"/><path class="bl" d="M544.852,766.8v-44.03L510.9,746.558v44.034Z" transform="translate(-12.75 0.266)"/><path class="bl" d="M544.852,810.829V766.8l-33.947,23.8v44.034Z" transform="translate(-12.75 0.266)"/><path class="bl" d="M544.852,854.863V810.829l-33.947,23.8v44.034Z" transform="translate(-12.75 0.266)"/><path class="bl" d="M544.852,898.9l-1.2.838H510.9V878.659l33.947-23.8Z" transform="translate(-12.75 0.266)"/><path class="bm" d="M506.5,1.084l-29.548,20.71V1.084Z" transform="translate(-10.725 -1.084)"/><path class="bn" d="M510.9,1.084V42.032l-33.951,23.8V21.795L506.5,1.084Z" transform="translate(-10.795 -1.084)"/><path class="bn" d="M510.9,86.065V42.032l-33.951,23.8V109.86Z" transform="translate(-10.795 -1.084)"/><path class="bn" d="M510.9,130.1V86.065l-33.951,23.8v44.033Z" transform="translate(-10.795 -1.084)"/><path class="bn" d="M510.9,174.131V130.1l-33.951,23.8v44.033Z" transform="translate(-10.795 -1.084)"/><path class="bn" d="M510.9,218.164V174.131l-33.951,23.8v44.033Z" transform="translate(-10.795 -0.803)"/><path class="bn" d="M510.9,262.2V218.164l-33.951,23.8v44.033Z" transform="translate(-10.795 -0.732)"/><path class="bn" d="M510.9,306.23V262.2l-33.951,23.8v44.033Z" transform="translate(-10.795 -0.66)"/><path class="bn" d="M510.9,350.263V306.23l-33.951,23.8v44.031Z" transform="translate(-10.795 -0.589)"/><path class="bn" d="M510.9,394.294V350.263l-33.951,23.794V418.09Z" transform="translate(-10.795 -0.517)"/><path class="bn" d="M510.9,438.328V394.294l-33.951,23.8v44.034Z" transform="translate(-10.795 -0.445)"/><path class="bn" d="M510.9,482.362V438.328l-33.951,23.8v44.034Z" transform="translate(-10.795 -0.374)"/><path class="bn" d="M510.9,526.4V482.362l-33.951,23.8v44.03Z" transform="translate(-10.795 -0.302)"/><path class="bn" d="M510.9,570.426V526.4l-33.951,23.793v44.034Z" transform="translate(-10.795 -0.231)"/><path class="bn" d="M510.9,614.46V570.426l-33.951,23.8v44.034Z" transform="translate(-10.795 -0.159)"/><path class="bn" d="M510.9,658.493V614.46l-33.951,23.8V682.29Z" transform="translate(-10.795 -0.088)"/><path class="bn" d="M510.9,702.527V658.493l-33.951,23.8v44.03Z" transform="translate(-10.795 -0.016)"/><path class="bn" d="M510.9,746.558v-44.03L476.953,726.32v44.034Z" transform="translate(-10.795 0.266)"/><path class="bn" d="M510.9,790.591V746.558l-33.951,23.8v44.034Z" transform="translate(-10.795 0.266)"/><path class="bn" d="M510.9,834.625V790.591l-33.951,23.8v44.034Z" transform="translate(-10.795 0.266)"/><path class="bn" d="M510.9,878.659l-30.072,21.075h-3.879V858.422l33.951-23.8Z" transform="translate(-10.795 0.266)"/><path class="bo" d="M510.9,899.734H480.832L510.9,878.659Z" transform="translate(-10.808 0.266)"/><path class="bp" d="M476.953,1.084v20.71l-33.947,23.8V1.557l.672-.473Z" transform="translate(-10.143 -1.084)"/><path class="bp" d="M476.953,65.828V21.795l-33.947,23.8V89.623Z" transform="translate(-10.143 -1.084)"/><path class="bp" d="M476.953,109.86V65.828l-33.947,23.8v44.033Z" transform="translate(-10.143 -1.084)"/><path class="bp" d="M476.953,153.893V109.86l-33.947,23.8v44.033Z" transform="translate(-10.143 -1.084)"/><path class="bp" d="M476.953,197.926V153.893l-33.947,23.8v44.033Z" transform="translate(-10.143 -0.836)"/><path class="bp" d="M476.953,241.959V197.926l-33.947,23.8v44.033Z" transform="translate(-10.143 -0.764)"/><path class="bp" d="M476.953,285.992V241.959l-33.947,23.8v44.033Z" transform="translate(-10.143 -0.693)"/><path class="bp" d="M476.953,330.025V285.992l-33.947,23.8v44.033Z" transform="translate(-10.143 -0.621)"/><path class="bp" d="M476.953,374.056V330.025l-33.947,23.8v44.032Z" transform="translate(-10.143 -0.55)"/><path class="bp" d="M476.953,418.09V374.056l-33.947,23.8v44.034Z" transform="translate(-10.143 -0.478)"/><path class="bp" d="M476.953,462.124V418.09l-33.947,23.8V485.92Z" transform="translate(-10.143 -0.407)"/><path class="bp" d="M476.953,506.158V462.124l-33.947,23.8v44.03Z" transform="translate(-10.143 -0.335)"/><path class="bp" d="M476.953,550.188v-44.03l-33.947,23.793v44.034Z" transform="translate(-10.143 -0.264)"/><path class="bp" d="M476.953,594.222V550.188l-33.947,23.8v44.034Z" transform="translate(-10.143 -0.192)"/><path class="bp" d="M476.953,638.256V594.222l-33.947,23.8v44.034Z" transform="translate(-10.143 -0.121)"/><path class="bp" d="M476.953,682.29V638.256l-33.947,23.8v44.03Z" transform="translate(-10.143 -0.049)"/><path class="bp" d="M476.953,726.32V682.29l-33.947,23.793v44.034Z" transform="translate(-10.143 0.022)"/><path class="bp" d="M476.953,770.354V726.32l-33.947,23.8V794.15Z" transform="translate(-10.143 0.266)"/><path class="bp" d="M476.953,814.388V770.354l-33.947,23.8v44.034Z" transform="translate(-10.143 0.266)"/><path class="bp" d="M476.953,858.422V814.388l-33.947,23.8v44.03Z" transform="translate(-10.143 0.266)"/><path class="bp" d="M476.953,899.734H443.006v-17.52l33.947-23.793Z" transform="translate(-10.143 0.266)"/><path class="bq" d="M443.006,1.084v.473l-33.951,23.8V1.084Z" transform="translate(-9.491 -1.084)"/><path class="bq" d="M443.006,45.59V1.557l-33.951,23.8V69.385Z" transform="translate(-9.491 -1.084)"/><path class="bq" d="M443.006,89.623V45.59l-33.951,23.8v44.033Z" transform="translate(-9.491 -1.084)"/><path class="bq" d="M443.006,133.656V89.623l-33.951,23.8v44.033Z" transform="translate(-9.491 -1.084)"/><path class="bq" d="M443.006,177.689V133.656l-33.951,23.8v44.033Z" transform="translate(-9.491 -1.084)"/><path class="bq" d="M443.006,221.722V177.689l-33.951,23.8v44.033Z" transform="translate(-9.491 -0.797)"/><path class="bq" d="M443.006,265.755V221.722l-33.951,23.8V289.55Z" transform="translate(-9.491 -0.726)"/><path class="bq" d="M443.006,309.787V265.755l-33.951,23.8v44.033Z" transform="translate(-9.491 -0.654)"/><path class="bq" d="M443.006,353.821V309.787l-33.951,23.8v44.032Z" transform="translate(-9.491 -0.583)"/><path class="bq" d="M443.006,397.853V353.821l-33.951,23.794v44.034Z" transform="translate(-9.491 -0.511)"/><path class="bq" d="M443.006,441.886V397.853l-33.951,23.8v44.034Z" transform="translate(-9.491 -0.44)"/><path class="bq" d="M443.006,485.92V441.886l-33.951,23.8v44.03Z" transform="translate(-9.491 -0.368)"/><path class="bq" d="M443.006,529.951V485.92l-33.951,23.793v44.034Z" transform="translate(-9.491 -0.297)"/><path class="bq" d="M443.006,573.984V529.951l-33.951,23.8v44.034Z" transform="translate(-9.491 -0.225)"/><path class="bq" d="M443.006,618.018V573.984l-33.951,23.8v44.034Z" transform="translate(-9.491 -0.154)"/><path class="bq" d="M443.006,662.052V618.018l-33.951,23.8v44.03Z" transform="translate(-9.491 -0.082)"/><path class="bq" d="M443.006,706.082v-44.03l-33.951,23.793v44.034Z" transform="translate(-9.491 -0.01)"/><path class="bq" d="M443.006,750.116V706.082l-33.951,23.8v44.034Z" transform="translate(-9.491 0.266)"/><path class="bq" d="M443.006,794.15V750.116l-33.951,23.8v44.034Z" transform="translate(-9.491 0.266)"/><path class="bq" d="M443.006,838.184V794.15l-33.951,23.8v44.03Z" transform="translate(-9.491 0.266)"/><path class="bq" d="M443.006,882.214l-24.993,17.52h-8.958V861.977l33.951-23.793Z" transform="translate(-9.491 0.266)"/><path class="br" d="M443.006,899.734H418.013l24.993-17.52Z" transform="translate(-9.541 0.266)"/><path class="bs" d="M380.859,1.084l-5.751,4.031V1.084Z" transform="translate(-8.505 -1.084)"/><path class="bt" d="M409.055,1.084V25.352l-33.947,23.8V5.115l5.751-4.031Z" transform="translate(-8.839 -1.084)"/><path class="bt" d="M409.055,69.385V25.352l-33.947,23.8V93.181Z" transform="translate(-8.839 -1.084)"/><path class="bt" d="M409.055,113.418V69.385l-33.947,23.8v44.033Z" transform="translate(-8.839 -1.084)"/><path class="bt" d="M409.055,157.451V113.418l-33.947,23.8v44.033Z" transform="translate(-8.839 -1.084)"/><path class="bt" d="M409.055,201.484V157.451l-33.947,23.8v44.033Z" transform="translate(-8.839 -0.83)"/><path class="bt" d="M409.055,245.517V201.484l-33.947,23.8v44.033Z" transform="translate(-8.839 -0.759)"/><path class="bt" d="M409.055,289.55V245.517l-33.947,23.8v44.033Z" transform="translate(-8.839 -0.687)"/><path class="bt" d="M409.055,333.583V289.55l-33.947,23.8v44.033Z" transform="translate(-8.839 -0.616)"/><path class="bt" d="M409.055,377.615V333.583l-33.947,23.8v44.033Z" transform="translate(-8.839 -0.544)"/><path class="bt" d="M409.055,421.649V377.615l-33.947,23.8v44.034Z" transform="translate(-8.839 -0.473)"/><path class="bt" d="M409.055,465.683V421.649l-33.947,23.8v44.03Z" transform="translate(-8.839 -0.401)"/><path class="bt" d="M409.055,509.713v-44.03l-33.947,23.793v44.034Z" transform="translate(-8.839 -0.329)"/><path class="bt" d="M409.055,553.747V509.713l-33.947,23.8v44.034Z" transform="translate(-8.839 -0.258)"/><path class="bt" d="M409.055,597.781V553.747l-33.947,23.8v44.034Z" transform="translate(-8.839 -0.186)"/><path class="bt" d="M409.055,641.815V597.781l-33.947,23.8v44.03Z" transform="translate(-8.839 -0.115)"/><path class="bt" d="M409.055,685.845v-44.03l-33.947,23.793v44.034Z" transform="translate(-8.839 -0.043)"/><path class="bt" d="M409.055,729.879V685.845l-33.947,23.8v44.034Z" transform="translate(-8.839 0.028)"/><path class="bt" d="M409.055,773.912V729.879l-33.947,23.8v44.034Z" transform="translate(-8.839 0.266)"/><path class="bt" d="M409.055,817.946V773.912l-33.947,23.8v44.03Z" transform="translate(-8.839 0.266)"/><path class="bt" d="M409.055,861.977v-44.03l-33.947,23.793v44.034Z" transform="translate(-8.839 0.266)"/><path class="bt" d="M409.055,899.734H375.108V885.773l33.947-23.8Z" transform="translate(-8.839 0.266)"/><path class="bu" d="M375.108,1.084V5.115l-33.95,23.8V1.084Z" transform="translate(-8.187 -1.084)"/><path class="bu" d="M375.108,49.148V5.115l-33.95,23.8V72.943Z" transform="translate(-8.187 -1.084)"/><path class="bu" d="M375.108,93.181V49.148l-33.95,23.8v44.033Z" transform="translate(-8.187 -1.084)"/><path class="bu" d="M375.108,137.214V93.181l-33.95,23.8v44.033Z" transform="translate(-8.187 -1.084)"/><path class="bu" d="M375.108,181.247V137.214l-33.95,23.8v44.033Z" transform="translate(-8.187 -0.863)"/><path class="bu" d="M375.108,225.279V181.247l-33.95,23.8v44.033Z" transform="translate(-8.187 -0.792)"/><path class="bu" d="M375.108,269.313V225.279l-33.95,23.8v44.033Z" transform="translate(-8.187 -0.72)"/><path class="bu" d="M375.108,313.345V269.313l-33.95,23.8v44.033Z" transform="translate(-8.187 -0.649)"/><path class="bu" d="M375.108,357.379V313.345l-33.95,23.8v44.033Z" transform="translate(-8.187 -0.577)"/><path class="bu" d="M375.108,401.411V357.379l-33.95,23.8v44.034Z" transform="translate(-8.187 -0.505)"/><path class="bu" d="M375.108,445.445V401.411l-33.95,23.8v44.034Z" transform="translate(-8.187 -0.434)"/><path class="bu" d="M375.108,489.475v-44.03l-33.95,23.8v44.03Z" transform="translate(-8.187 -0.362)"/><path class="bu" d="M375.108,533.509V489.475l-33.95,23.8v44.034Z" transform="translate(-8.187 -0.291)"/><path class="bu" d="M375.108,577.543V533.509l-33.95,23.8v44.034Z" transform="translate(-8.187 -0.219)"/><path class="bu" d="M375.108,621.577V577.543l-33.95,23.8v44.03Z" transform="translate(-8.187 -0.148)"/><path class="bu" d="M375.108,665.607v-44.03l-33.95,23.793V689.4Z" transform="translate(-8.187 -0.076)"/><path class="bu" d="M375.108,709.641V665.607l-33.95,23.8v44.034Z" transform="translate(-8.187 -0.005)"/><path class="bu" d="M375.108,753.675V709.641l-33.95,23.8v44.034Z" transform="translate(-8.187 0.266)"/><path class="bu" d="M375.108,797.709V753.675l-33.95,23.8V821.5Z" transform="translate(-8.187 0.266)"/><path class="bu" d="M375.108,841.739v-44.03L341.158,821.5v44.034Z" transform="translate(-8.187 0.266)"/><path class="bu" d="M375.108,885.773l-19.918,13.961H341.158v-34.2l33.95-23.8Z" transform="translate(-8.187 0.266)"/><path class="bv" d="M375.108,899.734H355.189l19.918-13.961Z" transform="translate(-8.295 0.266)"/><path class="bw" d="M318.036,1.084,307.209,8.673V1.084Z" transform="translate(-7.309 -1.084)"/><path class="bw" d="M341.158,1.084V28.91l-33.949,23.8V8.673l10.827-7.588Z" transform="translate(-7.535 -1.084)"/><path class="bw" d="M341.158,72.943V28.91l-33.949,23.8V96.739Z" transform="translate(-7.535 -1.084)"/><path class="bw" d="M341.158,116.976V72.943l-33.949,23.8v44.033Z" transform="translate(-7.535 -1.084)"/><path class="bw" d="M341.158,161.009V116.976l-33.949,23.8V184.8Z" transform="translate(-7.535 -1.084)"/><path class="bw" d="M341.158,205.042V161.009l-33.949,23.8v44.033Z" transform="translate(-7.535 -0.824)"/><path class="bw" d="M341.158,249.075V205.042l-33.949,23.8V272.87Z" transform="translate(-7.535 -0.753)"/><path class="bw" d="M341.158,293.108V249.075l-33.949,23.8V316.9Z" transform="translate(-7.535 -0.681)"/><path class="bw" d="M341.158,337.141V293.108l-33.949,23.8v44.033Z" transform="translate(-7.535 -0.61)"/><path class="bw" d="M341.158,381.174V337.141l-33.949,23.8V404.97Z" transform="translate(-7.535 -0.538)"/><path class="bw" d="M341.158,425.208V381.174l-33.949,23.8V449Z" transform="translate(-7.535 -0.467)"/><path class="bw" d="M341.158,469.241V425.208L307.209,449v44.03Z" transform="translate(-7.535 -0.395)"/><path class="bw" d="M341.158,513.272v-44.03l-33.949,23.793v44.034Z" transform="translate(-7.535 -0.324)"/><path class="bw" d="M341.158,557.305V513.272l-33.949,23.8V581.1Z" transform="translate(-7.535 -0.252)"/><path class="bw" d="M341.158,601.339V557.305l-33.949,23.8v44.034Z" transform="translate(-7.535 -0.181)"/><path class="bw" d="M341.158,645.37v-44.03l-33.949,23.8v44.03Z" transform="translate(-7.535 -0.109)"/><path class="bw" d="M341.158,689.4V645.37l-33.949,23.8V713.2Z" transform="translate(-7.535 -0.038)"/><path class="bw" d="M341.158,733.437V689.4l-33.949,23.8v44.034Z" transform="translate(-7.535 0.034)"/><path class="bw" d="M341.158,777.471V733.437l-33.949,23.8v44.03Z" transform="translate(-7.535 0.266)"/><path class="bw" d="M341.158,821.5v-44.03l-33.949,23.793V845.3Z" transform="translate(-7.535 0.266)"/><path class="bw" d="M341.158,865.535V821.5l-33.949,23.8v44.034Z" transform="translate(-7.535 0.266)"/><path class="bw" d="M341.158,899.734H307.209v-10.4l33.949-23.8Z" transform="translate(-7.535 0.266)"/><path class="bx" d="M307.209,1.084V8.673l-33.949,23.8V1.084Z" transform="translate(-6.883 -1.084)"/><path class="bx" d="M307.209,52.706V8.673l-33.949,23.8V76.5Z" transform="translate(-6.883 -1.084)"/><path class="bx" d="M307.209,96.739V52.706L273.26,76.5v44.033Z" transform="translate(-6.883 -1.084)"/><path class="bx" d="M307.209,140.772V96.739l-33.949,23.8v44.033Z" transform="translate(-6.883 -1.084)"/><path class="bx" d="M307.209,184.8V140.772l-33.949,23.8V208.6Z" transform="translate(-6.883 -0.857)"/><path class="bx" d="M307.209,228.837V184.8L273.26,208.6v44.033Z" transform="translate(-6.883 -0.786)"/><path class="bx" d="M307.209,272.87V228.837l-33.949,23.8v44.033Z" transform="translate(-6.883 -0.714)"/><path class="bx" d="M307.209,316.9V272.87l-33.949,23.8V340.7Z" transform="translate(-6.883 -0.643)"/><path class="bx" d="M307.209,360.936V316.9L273.26,340.7v44.033Z" transform="translate(-6.883 -0.571)"/><path class="bx" d="M307.209,404.97V360.936l-33.949,23.8v44.034Z" transform="translate(-6.883 -0.5)"/><path class="bx" d="M307.209,449V404.97l-33.949,23.8V472.8Z" transform="translate(-6.883 -0.428)"/><path class="bx" d="M307.209,493.034V449L273.26,472.8V516.83Z" transform="translate(-6.883 -0.357)"/><path class="bx" d="M307.209,537.068V493.034l-33.949,23.8v44.034Z" transform="translate(-6.883 -0.285)"/><path class="bx" d="M307.209,581.1V537.068l-33.949,23.8V604.9Z" transform="translate(-6.883 -0.213)"/><path class="bx" d="M307.209,625.136V581.1L273.26,604.9v44.03Z" transform="translate(-6.883 -0.142)"/><path class="bx" d="M307.209,669.166v-44.03L273.26,648.928v44.034Z" transform="translate(-6.883 -0.07)"/><path class="bx" d="M307.209,713.2V669.166l-33.949,23.8V737Z" transform="translate(-6.883 0.001)"/><path class="bx" d="M307.209,757.234V713.2L273.26,737V781.03Z" transform="translate(-6.883 0.266)"/><path class="bx" d="M307.209,801.264v-44.03l-33.949,23.8v44.03Z" transform="translate(-6.883 0.266)"/><path class="bx" d="M307.209,845.3V801.264l-33.949,23.8v44.034Z" transform="translate(-6.883 0.266)"/><path class="bx" d="M307.209,889.331l-14.842,10.4H273.26v-30.64l33.949-23.8Z" transform="translate(-6.883 0.266)"/><path class="bx" d="M307.209,899.734H292.367l14.842-10.4Z" transform="translate(-7.071 0.266)"/><path class="by" d="M255.214,1.084l-15.9,11.146V1.084Z" transform="translate(-6.093 -1.084)"/><path class="bz" d="M273.26,1.084V32.468l-33.949,23.8V12.231l15.9-11.146Z" transform="translate(-6.231 -1.084)"/><path class="bz" d="M273.26,76.5V32.468l-33.949,23.8V100.3Z" transform="translate(-6.231 -1.084)"/><path class="bz" d="M273.26,120.534V76.5l-33.949,23.8v44.033Z" transform="translate(-6.231 -1.084)"/><path class="bz" d="M273.26,164.567V120.534l-33.949,23.8v44.033Z" transform="translate(-6.231 -1.084)"/><path class="bz" d="M273.26,208.6V164.567l-33.949,23.8V232.4Z" transform="translate(-6.231 -0.819)"/><path class="bz" d="M273.26,252.633V208.6l-33.949,23.8v44.033Z" transform="translate(-6.231 -0.747)"/><path class="bz" d="M273.26,296.666V252.633l-33.949,23.8v44.033Z" transform="translate(-6.231 -0.676)"/><path class="bz" d="M273.26,340.7V296.666l-33.949,23.8v44.034Z" transform="translate(-6.231 -0.604)"/><path class="bz" d="M273.26,384.732V340.7l-33.949,23.8v44.034Z" transform="translate(-6.231 -0.533)"/><path class="bz" d="M273.26,428.766V384.732l-33.949,23.8v44.03Z" transform="translate(-6.231 -0.461)"/><path class="bz" d="M273.26,472.8v-44.03l-33.949,23.793v44.034Z" transform="translate(-6.231 -0.389)"/><path class="bz" d="M273.26,516.83V472.8l-33.949,23.8v44.034Z" transform="translate(-6.231 -0.318)"/><path class="bz" d="M273.26,560.864V516.83l-33.949,23.8V584.66Z" transform="translate(-6.231 -0.246)"/><path class="bz" d="M273.26,604.9V560.864l-33.949,23.8v44.03Z" transform="translate(-6.231 -0.175)"/><path class="bz" d="M273.26,648.928V604.9l-33.949,23.793v44.034Z" transform="translate(-6.231 -0.103)"/><path class="bz" d="M273.26,692.962V648.928l-33.949,23.8v44.034Z" transform="translate(-6.231 -0.032)"/><path class="bz" d="M273.26,737V692.962l-33.949,23.8v44.034Z" transform="translate(-6.231 0.04)"/><path class="bz" d="M273.26,781.03V737l-33.949,23.8v44.03Z" transform="translate(-6.231 0.266)"/><path class="bz" d="M273.26,825.06V781.03l-33.949,23.793v44.034Z" transform="translate(-6.231 0.266)"/><path class="bz" d="M273.26,869.094V825.06l-33.949,23.8V892.89Z" transform="translate(-6.231 0.266)"/><path class="bz" d="M273.26,899.734H239.311V892.89l33.949-23.8Z" transform="translate(-6.231 0.266)"/><path class="ca" d="M239.311,1.084V12.231l-33.949,23.8V1.084Z" transform="translate(-5.579 -1.084)"/><path class="ca" d="M239.311,56.264V12.231l-33.949,23.8V80.059Z" transform="translate(-5.579 -1.084)"/><path class="ca" d="M239.311,100.3V56.264l-33.949,23.8v44.033Z" transform="translate(-5.579 -1.084)"/><path class="ca" d="M239.311,144.329V100.3l-33.949,23.8v44.033Z" transform="translate(-5.579 -1.084)"/><path class="ca" d="M239.311,188.362V144.329l-33.949,23.8v44.033Z" transform="translate(-5.579 -0.852)"/><path class="ca" d="M239.311,232.4V188.362l-33.949,23.8v44.033Z" transform="translate(-5.579 -0.78)"/><path class="ca" d="M239.311,276.428V232.4l-33.949,23.8v44.033Z" transform="translate(-5.579 -0.708)"/><path class="ca" d="M239.311,320.461V276.428l-33.949,23.8v44.033Z" transform="translate(-5.579 -0.637)"/><path class="ca" d="M239.311,364.495V320.461l-33.949,23.8v44.035Z" transform="translate(-5.579 -0.565)"/><path class="ca" d="M239.311,408.529V364.495l-33.949,23.8v44.03Z" transform="translate(-5.579 -0.494)"/><path class="ca" d="M239.311,452.559v-44.03l-33.949,23.793v44.034Z" transform="translate(-5.579 -0.422)"/><path class="ca" d="M239.311,496.593V452.559l-33.949,23.8v44.034Z" transform="translate(-5.579 -0.351)"/><path class="ca" d="M239.311,540.627V496.593l-33.949,23.8v44.034Z" transform="translate(-5.579 -0.279)"/><path class="ca" d="M239.311,584.66V540.627l-33.949,23.8v44.03Z" transform="translate(-5.579 -0.208)"/><path class="ca" d="M239.311,628.691V584.66l-33.949,23.793v44.034Z" transform="translate(-5.579 -0.136)"/><path class="ca" d="M239.311,672.724V628.691l-33.949,23.8v44.034Z" transform="translate(-5.579 -0.065)"/><path class="ca" d="M239.311,716.758V672.724l-33.949,23.8v44.034Z" transform="translate(-5.579 0.007)"/><path class="ca" d="M239.311,760.792V716.758l-33.949,23.8v44.03Z" transform="translate(-5.579 0.266)"/><path class="ca" d="M239.311,804.822v-44.03l-33.949,23.793v44.034Z" transform="translate(-5.579 0.266)"/><path class="ca" d="M239.311,848.856V804.822l-33.949,23.8v44.034Z" transform="translate(-5.579 0.266)"/><path class="ca" d="M239.311,892.89l-9.766,6.844H205.362V872.653l33.949-23.8Z" transform="translate(-5.579 0.266)"/><path class="cb" d="M239.311,899.734h-9.766l9.766-6.844Z" transform="translate(-5.868 0.266)"/><path class="cc" d="M192.392,1.084l-20.979,14.7V1.084Z" transform="translate(-4.856 -1.084)"/><path class="cd" d="M205.362,1.084V36.026l-33.949,23.8V15.788l20.979-14.7Z" transform="translate(-4.928 -1.084)"/><path class="cd" d="M205.362,80.059V36.026l-33.949,23.8v44.033Z" transform="translate(-4.928 -1.084)"/><path class="cd" d="M205.362,124.092V80.059l-33.949,23.8v44.033Z" transform="translate(-4.928 -1.084)"/><path class="cd" d="M205.362,168.125V124.092l-33.949,23.8V191.92Z" transform="translate(-4.928 -1.084)"/><path class="cd" d="M205.362,212.158V168.125l-33.949,23.8v44.033Z" transform="translate(-4.928 -0.813)"/><path class="cd" d="M205.362,256.191V212.158l-33.949,23.8v44.033Z" transform="translate(-4.928 -0.741)"/><path class="cd" d="M205.362,300.224V256.191l-33.949,23.8v44.033Z" transform="translate(-4.928 -0.67)"/><path class="cd" d="M205.362,344.256V300.224l-33.949,23.8v44.035Z" transform="translate(-4.928 -0.598)"/><path class="cd" d="M205.362,388.291V344.256l-33.949,23.8v44.03Z" transform="translate(-4.928 -0.527)"/><path class="cd" d="M205.362,432.321v-44.03l-33.949,23.793v44.034Z" transform="translate(-4.928 -0.455)"/><path class="cd" d="M205.362,476.355V432.321l-33.949,23.8v44.034Z" transform="translate(-4.928 -0.384)"/><path class="cd" d="M205.362,520.389V476.355l-33.949,23.8v44.034Z" transform="translate(-4.928 -0.312)"/><path class="cd" d="M205.362,564.423V520.389l-33.949,23.8v44.03Z" transform="translate(-4.928 -0.241)"/><path class="cd" d="M205.362,608.453v-44.03l-33.949,23.793v44.034Z" transform="translate(-4.928 -0.169)"/><path class="cd" d="M205.362,652.487V608.453l-33.949,23.8v44.034Z" transform="translate(-4.928 -0.098)"/><path class="cd" d="M205.362,696.521V652.487l-33.949,23.8v44.034Z" transform="translate(-4.928 -0.026)"/><path class="cd" d="M205.362,740.555V696.521l-33.949,23.8v44.03Z" transform="translate(-4.928 0.046)"/><path class="cd" d="M205.362,784.585v-44.03l-33.949,23.793v44.034Z" transform="translate(-4.928 0.266)"/><path class="cd" d="M205.362,828.619V784.585l-33.949,23.8v44.034Z" transform="translate(-4.928 0.266)"/><path class="cd" d="M205.362,872.653V828.619l-33.949,23.8v44.034Z" transform="translate(-4.928 0.266)"/><path class="cd" d="M205.362,899.734H171.413v-3.286l33.949-23.8Z" transform="translate(-4.928 0.266)"/><path class="ce" d="M171.413,1.084v14.7l-33.949,23.8V1.084Z" transform="translate(-4.276 -1.084)"/><path class="ce" d="M171.413,59.821V15.788l-33.949,23.8V83.617Z" transform="translate(-4.276 -1.084)"/><path class="ce" d="M171.413,103.854V59.821l-33.949,23.8V127.65Z" transform="translate(-4.276 -1.084)"/><path class="ce" d="M171.413,147.887V103.854l-33.949,23.8v44.033Z" transform="translate(-4.276 -1.084)"/><path class="ce" d="M171.413,191.92V147.887l-33.949,23.8v44.033Z" transform="translate(-4.276 -0.846)"/><path class="ce" d="M171.413,235.953V191.92l-33.949,23.8v44.033Z" transform="translate(-4.276 -0.774)"/><path class="ce" d="M171.413,279.986V235.953l-33.949,23.8v44.033Z" transform="translate(-4.276 -0.703)"/><path class="ce" d="M171.413,324.019V279.986l-33.949,23.8v44.033Z" transform="translate(-4.276 -0.631)"/><path class="ce" d="M171.413,368.053V324.019l-33.949,23.8v44.032Z" transform="translate(-4.276 -0.56)"/><path class="ce" d="M171.413,412.084v-44.03l-33.949,23.793V435.88Z" transform="translate(-4.276 -0.488)"/><path class="ce" d="M171.413,456.117V412.084l-33.949,23.8v44.034Z" transform="translate(-4.276 -0.417)"/><path class="ce" d="M171.413,500.151V456.117l-33.949,23.8v44.034Z" transform="translate(-4.276 -0.345)"/><path class="ce" d="M171.413,544.185V500.151l-33.949,23.8v44.03Z" transform="translate(-4.276 -0.273)"/><path class="ce" d="M171.413,588.215v-44.03l-33.949,23.793v44.034Z" transform="translate(-4.276 -0.202)"/><path class="ce" d="M171.413,632.249V588.215l-33.949,23.8v44.034Z" transform="translate(-4.276 -0.13)"/><path class="ce" d="M171.413,676.283V632.249l-33.949,23.8v44.034Z" transform="translate(-4.276 -0.059)"/><path class="ce" d="M171.413,720.317V676.283l-33.949,23.8v44.03Z" transform="translate(-4.276 0.013)"/><path class="ce" d="M171.413,764.347v-44.03L137.464,744.11v44.034Z" transform="translate(-4.276 0.266)"/><path class="ce" d="M171.413,808.381V764.347l-33.949,23.8v44.034Z" transform="translate(-4.276 0.266)"/><path class="ce" d="M171.413,852.415V808.381l-33.949,23.8v44.034Z" transform="translate(-4.276 0.266)"/><path class="ce" d="M171.413,896.449l-4.69,3.286H137.464V876.211l33.949-23.8Z" transform="translate(-4.276 0.266)"/><path class="cf" d="M171.413,899.734h-4.69l4.69-3.286Z" transform="translate(-4.685 0.266)"/><path class="cg" d="M129.57,1.084,103.515,19.346V1.084Z" transform="translate(-3.597 -1.084)"/><path class="ch" d="M137.464,1.084v38.5l-33.949,23.8V19.346L129.57,1.084Z" transform="translate(-3.624 -1.084)"/><path class="ch" d="M137.464,83.617V39.584l-33.949,23.8v44.033Z" transform="translate(-3.624 -1.084)"/><path class="ch" d="M137.464,127.65V83.617l-33.949,23.8v44.033Z" transform="translate(-3.624 -1.084)"/><path class="ch" d="M137.464,171.683V127.65l-33.949,23.8v44.033Z" transform="translate(-3.624 -1.084)"/><path class="ch" d="M137.464,215.716V171.683l-33.949,23.8v44.033Z" transform="translate(-3.624 -0.807)"/><path class="ch" d="M137.464,259.748V215.716l-33.949,23.8v44.033Z" transform="translate(-3.624 -0.736)"/><path class="ch" d="M137.464,303.782V259.748l-33.949,23.8v44.033Z" transform="translate(-3.624 -0.664)"/><path class="ch" d="M137.464,347.814V303.782l-33.949,23.8v44.032Z" transform="translate(-3.624 -0.593)"/><path class="ch" d="M137.464,391.846V347.814l-33.949,23.794v44.034Z" transform="translate(-3.624 -0.521)"/><path class="ch" d="M137.464,435.88V391.846l-33.949,23.8v44.034Z" transform="translate(-3.624 -0.449)"/><path class="ch" d="M137.464,479.914V435.88l-33.949,23.8V503.71Z" transform="translate(-3.624 -0.378)"/><path class="ch" d="M137.464,523.948V479.914l-33.949,23.8v44.03Z" transform="translate(-3.624 -0.306)"/><path class="ch" d="M137.464,567.978v-44.03L103.515,547.74v44.034Z" transform="translate(-3.624 -0.235)"/><path class="ch" d="M137.464,612.012V567.978l-33.949,23.8v44.034Z" transform="translate(-3.624 -0.163)"/><path class="ch" d="M137.464,656.046V612.012l-33.949,23.8v44.034Z" transform="translate(-3.624 -0.092)"/><path class="ch" d="M137.464,700.079V656.046l-33.949,23.8v44.03Z" transform="translate(-3.624 -0.02)"/><path class="ch" d="M137.464,744.11v-44.03l-33.949,23.793v44.034Z" transform="translate(-3.624 0.266)"/><path class="ch" d="M137.464,788.143V744.11l-33.949,23.8V811.94Z" transform="translate(-3.624 0.266)"/><path class="ch" d="M137.464,832.177V788.143l-33.949,23.8v44.034Z" transform="translate(-3.624 0.266)"/><path class="ch" d="M137.464,876.211,103.9,899.734h-.386V855.974l33.949-23.8Z" transform="translate(-3.624 0.266)"/><path class="ci" d="M137.464,899.734H103.9l33.563-23.523Z" transform="translate(-3.63 0.266)"/><path class="cj" d="M103.515,1.084V19.346l-33.949,23.8V1.084Z" transform="translate(-1.668 -1.084)"/><path class="cj" d="M103.515,63.379V19.346l-33.949,23.8V87.175Z" transform="translate(-1.668 -1.084)"/><path class="cj" d="M103.515,107.412V63.379l-33.949,23.8v44.033Z" transform="translate(-1.668 -1.084)"/><path class="cj" d="M103.515,151.445V107.412l-33.949,23.8V175.24Z" transform="translate(-1.668 -1.084)"/><path class="cj" d="M103.515,195.478V151.445l-33.949,23.8v44.033Z" transform="translate(-1.668 -0.84)"/><path class="cj" d="M103.515,239.511V195.478l-33.949,23.8v44.033Z" transform="translate(-1.668 -0.768)"/><path class="cj" d="M103.515,283.544V239.511l-33.949,23.8v44.033Z" transform="translate(-1.668 -0.697)"/><path class="cj" d="M103.515,327.577V283.544l-33.949,23.8v44.033Z" transform="translate(-1.668 -0.625)"/><path class="cj" d="M103.515,371.608V327.577l-33.949,23.8V395.4Z" transform="translate(-1.668 -0.554)"/><path class="cj" d="M103.515,415.642V371.608L69.566,395.4v44.034Z" transform="translate(-1.668 -0.482)"/><path class="cj" d="M103.515,459.676V415.642l-33.949,23.8v44.034Z" transform="translate(-1.668 -0.411)"/><path class="cj" d="M103.515,503.71V459.676l-33.949,23.8V527.5Z" transform="translate(-1.668 -0.339)"/><path class="cj" d="M103.515,547.74V503.71L69.566,527.5v44.034Z" transform="translate(-1.668 -0.268)"/><path class="cj" d="M103.515,591.774V547.74l-33.949,23.8V615.57Z" transform="translate(-1.668 -0.196)"/><path class="cj" d="M103.515,635.808V591.774l-33.949,23.8V659.6Z" transform="translate(-1.668 -0.125)"/><path class="cj" d="M103.515,679.842V635.808L69.566,659.6v44.03Z" transform="translate(-1.668 -0.053)"/><path class="cj" d="M103.515,723.872v-44.03L69.566,703.634v44.034Z" transform="translate(-1.668 0.018)"/><path class="cj" d="M103.515,767.906V723.872l-33.949,23.8V791.7Z" transform="translate(-1.668 0.266)"/><path class="cj" d="M103.515,811.94V767.906L69.566,791.7v44.034Z" transform="translate(-1.668 0.266)"/><path class="cj" d="M103.515,855.974V811.94l-33.949,23.8v44.03Z" transform="translate(-1.668 0.266)"/><path class="cj" d="M103.515,899.734H69.566V879.766l33.949-23.793Z" transform="translate(-1.668 0.266)"/><path class="ck" d="M66.748,1.084,35.617,22.9V1.084Z" transform="translate(-1.668 -1.084)"/><path class="cl" d="M69.566,1.084V43.142l-33.949,23.8V22.9l31.13-21.82Z" transform="translate(-1.668 -1.084)"/><path class="cl" d="M69.566,87.175V43.142l-33.949,23.8V110.97Z" transform="translate(-1.668 -1.084)"/><path class="cl" d="M69.566,131.208V87.175l-33.949,23.8V155Z" transform="translate(-1.668 -1.084)"/><path class="cl" d="M69.566,175.24V131.208L35.617,155v44.033Z" transform="translate(-1.668 -1.084)"/><path class="cl" d="M69.566,219.273V175.24l-33.949,23.8v44.033Z" transform="translate(-1.668 -0.801)"/><path class="cl" d="M69.566,263.306V219.273l-33.949,23.8V287.1Z" transform="translate(-1.668 -0.73)"/><path class="cl" d="M69.566,307.339V263.306L35.617,287.1v44.033Z" transform="translate(-1.668 -0.658)"/><path class="cl" d="M69.566,351.372V307.339l-33.949,23.8v44.032Z" transform="translate(-1.668 -0.587)"/><path class="cl" d="M69.566,395.4V351.372L35.617,375.167V419.2Z" transform="translate(-1.668 -0.515)"/><path class="cl" d="M69.566,439.439V395.4L35.617,419.2v44.034Z" transform="translate(-1.668 -0.444)"/><path class="cl" d="M69.566,483.472V439.439l-33.949,23.8v44.03Z" transform="translate(-1.668 -0.372)"/><path class="cl" d="M69.566,527.5v-44.03L35.617,507.265V551.3Z" transform="translate(-1.668 -0.301)"/><path class="cl" d="M69.566,571.536V527.5L35.617,551.3v44.034Z" transform="translate(-1.668 -0.229)"/><path class="cl" d="M69.566,615.57V571.536l-33.949,23.8v44.034Z" transform="translate(-1.668 -0.157)"/><path class="cl" d="M69.566,659.6V615.57l-33.949,23.8V683.4Z" transform="translate(-1.668 -0.086)"/><path class="cl" d="M69.566,703.634V659.6L35.617,683.4v44.034Z" transform="translate(-1.668 -0.014)"/><path class="cl" d="M69.566,747.668V703.634l-33.949,23.8v44.034Z" transform="translate(-1.668 0.266)"/><path class="cl" d="M69.566,791.7V747.668l-33.949,23.8V815.5Z" transform="translate(-1.668 0.266)"/><path class="cl" d="M69.566,835.736V791.7L35.617,815.5v44.03Z" transform="translate(-1.668 0.266)"/><path class="cl" d="M69.566,879.766,41.079,899.734H35.617V859.529l33.949-23.793Z" transform="translate(-1.668 0.266)"/><path class="cm" d="M69.566,899.734H41.079l28.487-19.968Z" transform="translate(-1.668 0.266)"/><path class="cn" d="M35.617,1.084V22.9L1.668,46.7V2.667L3.926,1.084Z" transform="translate(-1.668 -1.084)"/><path class="cn" d="M35.617,66.937V22.9L1.668,46.7V90.733Z" transform="translate(-1.668 -1.084)"/><path class="cn" d="M35.617,110.97V66.937L1.668,90.733v44.033Z" transform="translate(-1.668 -1.084)"/><path class="cn" d="M35.617,155V110.97l-33.949,23.8V178.8Z" transform="translate(-1.668 -1.084)"/><path class="cn" d="M35.617,199.036V155L1.668,178.8v44.033Z" transform="translate(-1.668 -0.834)"/><path class="cn" d="M35.617,243.069V199.036l-33.949,23.8v44.033Z" transform="translate(-1.668 -0.763)"/><path class="cn" d="M35.617,287.1V243.069l-33.949,23.8V310.9Z" transform="translate(-1.668 -0.691)"/><path class="cn" d="M35.617,331.135V287.1L1.668,310.9V354.93Z" transform="translate(-1.668 -0.62)"/><path class="cn" d="M35.617,375.167V331.135L1.668,354.93v44.033Z" transform="translate(-1.668 -0.548)"/><path class="cn" d="M35.617,419.2V375.167l-33.949,23.8V443Z" transform="translate(-1.668 -0.477)"/><path class="cn" d="M35.617,463.235V419.2L1.668,443v44.03Z" transform="translate(-1.668 -0.405)"/><path class="cn" d="M35.617,507.265v-44.03L1.668,487.027v44.034Z" transform="translate(-1.668 -0.333)"/><path class="cn" d="M35.617,551.3V507.265l-33.949,23.8V575.1Z" transform="translate(-1.668 -0.262)"/><path class="cn" d="M35.617,595.333V551.3L1.668,575.1v44.034Z" transform="translate(-1.668 -0.19)"/><path class="cn" d="M35.617,639.367V595.333l-33.949,23.8v44.03Z" transform="translate(-1.668 -0.119)"/><path class="cn" d="M35.617,683.4v-44.03L1.668,663.159v44.034Z" transform="translate(-1.668 -0.047)"/><path class="cn" d="M35.617,727.431V683.4l-33.949,23.8v44.034Z" transform="translate(-1.668 0.024)"/><path class="cn" d="M35.617,771.465V727.431l-33.949,23.8v44.034Z" transform="translate(-1.668 0.266)"/><path class="cn" d="M35.617,815.5V771.465l-33.949,23.8v44.03Z" transform="translate(-1.668 0.266)"/><path class="cn" d="M35.617,859.529V815.5L1.668,839.291v44.034Z" transform="translate(-1.668 0.266)"/><path class="cn" d="M35.617,899.734H1.668V883.325l33.949-23.8Z" transform="translate(-1.668 0.266)"/></g></g></svg>