<svg xmlns="http://www.w3.org/2000/svg" width="260" height="51.331" viewBox="0 0 260 51.331"><defs><style>.a{fill:#0ae2b3;}.a,.b,.c,.d,.e,.f,.g{fill-rule:evenodd;}.b{fill:#068a6b;}.c{fill:#067055;}.d{fill:#07a784;}.e{fill:#08c69f;}.f{fill:#33f7cc;}.g{fill:#4c4c4c;}</style></defs><path class="a" d="M169,431.133l4.713,2.764,4.32,2.369V426l-4.32,2.764Z" transform="translate(-169 -390.068)"/><path class="b" d="M178.033,392.133l-4.32-2.764L169,387v10.266l4.713-2.369Z" transform="translate(-169 -366.468)"/><path class="c" d="M169,405.133l4.713-2.369,4.32-2.764v10.266l-4.32-2.369Z" transform="translate(-169 -374.335)"/><path class="d" d="M169,379.133l4.713,2.369,4.32,2.764V374l-4.32,2.369Z" transform="translate(-169 -358.601)"/><path class="e" d="M178.033,366.133l-4.32,2.369L169,371.266V361l4.713,2.369Z" transform="translate(-169 -350.734)"/><path class="f" d="M178.033,340.133l-4.32-2.764L169,335v10.266l4.713-2.764Z" transform="translate(-169 -335)"/><path class="a" d="M169,353.133l4.713-2.764,4.32-2.369v10.266l-4.32-2.764Z" transform="translate(-169 -342.867)"/><path class="e" d="M192,426v10.266l4.32-2.369,4.713-2.764-4.713-2.369Z" transform="translate(-182.967 -390.068)"/><path class="b" d="M215,413l4.32,2.764,4.32,2.369-4.32,2.764L215,423.266V413Z" transform="translate(-196.934 -382.201)"/><path class="d" d="M201.033,423.266V413l-4.713,2.764L192,418.133l4.32,2.764Z" transform="translate(-182.967 -382.201)"/><path class="c" d="M223.64,410.266l-4.32-2.369L215,405.133l4.32-2.369L223.64,400v10.266Z" transform="translate(-196.934 -374.335)"/><path class="f" d="M260,387l4.32,2.369,4.32,2.764-4.32,2.764L260,397.266V387Z" transform="translate(-224.26 -366.468)"/><path class="a" d="M246.033,397.266V387l-4.32,2.369L237,392.133l4.713,2.764Z" transform="translate(-210.293 -366.468)"/><path class="d" d="M223.64,374l-4.32,2.369L215,379.133l4.32,2.369,4.32,2.764V374Z" transform="translate(-196.934 -358.601)"/><path class="e" d="M237,384.266V374l4.713,2.369,4.32,2.764-4.32,2.369Z" transform="translate(-210.293 -358.601)"/><path class="b" d="M215,371.266l4.32-2.764,4.32-2.369-4.32-2.764L215,361v10.266Z" transform="translate(-196.934 -350.734)"/><path class="c" d="M201.033,361v10.266L196.32,368.5,192,366.133l4.32-2.764Z" transform="translate(-182.967 -350.734)"/><path class="f" d="M169,439l4.713,2.764,4.32,2.369-4.32,2.764L169,449.266V439Z" transform="translate(-169 -397.935)"/><g transform="translate(58.127 3.949)"><path class="g" d="M375.248,382.554l-3.928,8.687h0l-1.964,3.949H367L374.462,379h1.964l7.462,16.189h-2.749Z" transform="translate(-347.363 -365.575)"/><path class="g" d="M317,395.794V380h5.5c4.713,0,8.248,3.159,8.248,7.9s-3.535,7.9-8.248,7.9Zm2.357-2.369H322.5c3.142,0,5.891-1.974,5.891-5.528s-2.749-5.528-5.891-5.528h-3.142Z" transform="translate(-317 -366.18)"/><path class="g" d="M426.106,382.369H421V380h12.568v2.369h-5.106v13.425h-2.357Z" transform="translate(-380.154 -366.18)"/><path class="g" d="M472.248,382.554l-3.927,8.687h0l-1.964,3.949H464L471.462,379h1.964l7.069,16.189h-2.357Z" transform="translate(-406.266 -365.575)"/><path class="g" d="M540.64,389.477l5.106,6.318H542.6l-4.713-5.923h-3.535v5.923H532V380h6.677a6.834,6.834,0,0,1,4.713,1.579,4.5,4.5,0,0,1,1.178,3.159C544.568,387.107,543,388.687,540.64,389.477Zm-6.284-1.974h4.32c1.571,0,3.535-.79,3.535-2.764s-1.964-2.369-3.535-2.369h-4.32Z" transform="translate(-447.559 -366.18)"/><path class="g" d="M591.248,395.584a8.292,8.292,0,0,1,0-16.584c4.713,0,7.855,3.554,7.855,8.292S595.961,395.584,591.248,395.584Zm0-2.369a5.939,5.939,0,0,0,0-11.846c-3.535,0-5.5,2.764-5.5,5.923S587.713,393.215,591.248,393.215Z" transform="translate(-478.529 -365.575)"/><path class="g" d="M646.855,371.06,658.245,345H660.6l-5.891,14.215-6.677,15.794H646.07L639,358.82h2.749Z" transform="translate(-512.535 -345)"/><path class="g" d="M698,382.369V380h11.782v2.369H698Zm2.749,4.343h9.033v2.369H698v-2.369Zm-.393,6.713h9.426v2.369H698v-2.369Z" transform="translate(-548.362 -366.18)"/><path class="g" d="M758.033,389.477l4.713,6.318H760l-4.713-5.923h-3.927v5.923H749V380h6.677a6.833,6.833,0,0,1,4.713,1.579,4.5,4.5,0,0,1,1.178,3.159A5.1,5.1,0,0,1,758.033,389.477Zm-6.677-1.974h4.32c1.571,0,3.535-.79,3.535-2.764s-1.964-2.369-3.535-2.369h-4.32Z" transform="translate(-579.332 -366.18)"/><path class="g" d="M806.07,395.584a9.878,9.878,0,0,1-6.677-2.369l-.393-.79,1.571-1.579.785.395a6.487,6.487,0,0,0,4.713,1.974c1.178,0,3.142-.79,3.142-2.369,0-1.974-2.356-1.974-3.927-2.369-2.749-.79-5.5-1.579-5.5-4.738s2.749-4.738,5.5-4.738a8.486,8.486,0,0,1,5.5,1.974l.393.395-1.571,1.974-.393-.395a5.028,5.028,0,0,0-3.927-1.579c-1.178,0-2.749.79-2.749,1.974,0,1.974,1.964,2.369,3.535,2.764,2.749.395,5.5,1.579,5.5,4.738S808.819,395.584,806.07,395.584Z" transform="translate(-609.695 -365.575)"/></g></svg>