<svg id="Layer_1" enable-background="new 0 0 511.999 511.999" height="512" viewBox="0 0 511.999 511.999" width="512" xmlns="http://www.w3.org/2000/svg"><g id="XMLID_987_"><g id="XMLID_1951_"><g id="XMLID_1963_"><path id="XMLID_1965_" d="m39.763 348.795c39.754 39.754 104.208 39.754 143.963 0l-143.963-143.963c-39.754 39.754-39.754 104.209 0 143.963z" fill="#ffbecb"/><path id="XMLID_1964_" d="m183.726 204.832c-39.754-39.754-104.208-39.754-143.963 0l143.963 143.963c39.754-39.754 39.754-104.209 0-143.963z" fill="#ff9eb1"/></g><g id="XMLID_1957_"><path id="XMLID_1959_" d="m221.393 370.573c-30.07 30.07-30.07 78.824 0 108.894 30.07 30.07 78.824 30.07 108.894 0l74.69-74.69-108.895-108.894z" fill="#fff"/><path id="XMLID_1958_" d="m479.487 221.373c-30.07-30.07-78.824-30.07-108.894 0l-74.51 74.51 108.894 108.894 74.51-74.51c30.07-30.07 30.07-78.824 0-108.894z" fill="#80b6ff"/></g><ellipse id="XMLID_1953_" cx="293.185" cy="94.02" fill="#ffda8f" rx="112" ry="84"/></g><g id="XMLID_488_"><path id="XMLID_504_" d="m190.797 197.761c-43.59-43.589-114.516-43.589-158.105 0-43.589 43.589-43.589 114.515 0 158.104 21.116 21.116 49.191 32.745 79.053 32.745s57.937-11.629 79.053-32.745c43.588-43.589 43.588-114.515-.001-158.104zm-14.142 14.143c33.402 33.401 35.62 86.344 6.679 122.356l-129.036-129.036c36.012-28.941 88.956-26.722 122.357 6.68zm-129.821 129.819c-33.402-33.401-35.62-86.345-6.679-122.356l129.035 129.036c-36.011 28.941-88.955 26.722-122.356-6.68z"/><path id="XMLID_950_" d="m486.558 214.302c-20.472-20.47-49.679-29.403-78.137-23.887-5.422 1.05-8.966 6.297-7.915 11.719 1.05 5.422 6.294 8.966 11.72 7.916 21.926-4.246 44.424 2.63 60.189 18.395 26.123 26.124 26.123 68.629 0 94.752l-67.528 67.529-94.752-94.752 35.709-35.709c3.905-3.905 3.905-10.237 0-14.143-3.906-3.904-10.236-3.904-14.143 0l-117.38 117.38c-33.921 33.921-33.921 89.116 0 123.037 16.96 16.96 39.239 25.44 61.518 25.44s44.559-8.48 61.52-25.441l149.199-149.199c33.921-33.922 33.921-89.116 0-123.037zm-163.342 258.094c-26.124 26.123-68.63 26.123-94.752 0-26.124-26.123-26.124-68.629 0-94.752l67.529-67.528 94.752 94.752z"/><path id="XMLID_1162_" d="m207.989 161.417c22.874 17.155 53.131 26.603 85.196 26.603s62.322-9.448 85.195-26.603c23.734-17.8 36.805-41.735 36.805-67.397s-13.07-49.597-36.805-67.397c-22.873-17.155-53.13-26.603-85.195-26.603s-62.322 9.448-85.196 26.603c-23.733 17.8-36.804 41.735-36.804 67.397s13.07 49.597 36.804 67.397zm85.196-141.397c56.243 0 102 33.196 102 74s-45.757 74-102 74-102-33.196-102-74 45.757-74 102-74z"/><path id="XMLID_1221_" d="m370.593 211.369c-2.63 0-5.21 1.07-7.069 2.93-1.86 1.86-2.931 4.44-2.931 7.07s1.07 5.21 2.931 7.07c1.859 1.87 4.439 2.93 7.069 2.93s5.21-1.06 7.07-2.93c1.86-1.86 2.93-4.44 2.93-7.07s-1.069-5.21-2.93-7.07-4.44-2.93-7.07-2.93z"/></g></g></svg>