<svg xmlns="http://www.w3.org/2000/svg" width="222.476" height="141.652" viewBox="0 0 222.476 141.652"><defs><style>.a,.b{fill:#e6e6e6;}.a{opacity:0.3;}.c{fill:#24285b;}.d{opacity:0.12;}.e{fill:#ccc;}.f{fill:#a8a8a8;}.g{fill:none;stroke:#fff;stroke-linecap:round;stroke-linejoin:round;stroke-width:2px;}.h,.i{fill:#fff;}.i,.l,.n{stroke:#231f20;stroke-width:0.5px;}.j{fill:#ffd200;}.k{fill:#68e1fd;}.l{fill:#5ff0d1;}.m{fill:#231f20;}.n{fill:#0ae2b3;}.o{opacity:0.08;}.p{fill:#707070;font-size:9px;font-family:Montserrat-Regular, Montserrat;}</style></defs><g transform="translate(-40.293 -48.313)"><path class="a" d="M216.645,57.943c23.27,7.864,45.433,29.469,46.088,57.378s-7.07,56.347-49.452,67.393c-39.84,10.371-134.425,14.174-159.6-20.5C29.9,129.523,37.477,76.422,79.03,59.42,108.158,47.5,171.191,42.579,216.645,57.943Z"/><rect class="b" width="41.609" height="32.178" transform="translate(60.831 60.994)"/><rect class="c" width="41.609" height="6.234" transform="translate(60.831 54.76)"/><g class="d" transform="translate(70.582 66.155)"><path d="M93.225,93.871a9.438,9.438,0,0,1-3.719-1.546c-.369.383-.738.759-1.093,1.149-.181.2-.306.181-.488,0-.592-.606-1.2-1.2-1.811-1.8-.174-.174-.153-.279,0-.439.376-.369.738-.759,1.087-1.114-.306-.606-.655-1.2-.926-1.832a11.842,11.842,0,0,1-.495-1.6c-.049-.2-.125-.258-.313-.251H84.073c-.223,0-.293-.084-.293-.3V83.556c0-.223.084-.3.3-.293h1.393a.313.313,0,0,0,.251-.16,9.438,9.438,0,0,1,1.511-3.483c-.383-.383-.759-.766-1.156-1.128-.174-.167-.167-.272,0-.439.62-.6,1.226-1.2,1.832-1.818.167-.167.286-.16.446,0,.355.39.7.766,1.1,1.156.279-.174.515-.32.759-.46a8.727,8.727,0,0,1,2.772-1.024c.2,0,.279-.1.272-.327V74.229c0-.216.07-.3.3-.3h2.6c.244,0,.313.1.313.32v1.595a9.5,9.5,0,0,1,3.726,1.546c.376-.39.745-.766,1.107-1.156.167-.188.293-.174.467,0,.592.606,1.2,1.212,1.811,1.8.188.181.167.293,0,.46-.376.362-.738.738-1.128,1.128.1.153.209.32.306.488a8.491,8.491,0,0,1,1.149,2.884c.049.251.153.293.376.286h1.3c.237,0,.341.07.334.32v2.521c0,.251-.077.341-.327.334H104.2a.32.32,0,0,0-.237.181,9.34,9.34,0,0,1-1.5,3.482c.376.376.738.759,1.121,1.121.188.174.209.293,0,.481-.613.585-1.212,1.191-1.811,1.79-.16.167-.279.181-.439,0-.362-.39-.7-.766-1.114-1.163A9.654,9.654,0,0,1,96.5,93.885v1.581c0,.237-.063.341-.32.341H93.594c-.258,0-.32-.1-.313-.334C93.232,94.93,93.225,94.414,93.225,93.871ZM94.854,79.5a5.377,5.377,0,1,0,3.809,1.567A5.363,5.363,0,0,0,94.854,79.5Z" transform="translate(-83.78 -73.93)"/></g><rect class="b" width="63.096" height="63.096" transform="translate(171.338 52.796)"/><rect class="e" width="60.77" height="26.746" transform="translate(192.177 59.587)"/><rect class="b" width="36.608" height="39.854" transform="translate(60.698 144.31)"/><rect class="f" width="6.366" height="6.366" transform="translate(66.326 149.276)"/><path class="g" d="M80.33,197.453l.912,1.365,1.651-2.459" transform="translate(-12.151 -44.932)"/><rect class="h" width="14.745" height="2.528" transform="translate(76.161 151.358)"/><rect class="f" width="6.366" height="6.366" transform="translate(66.326 160.845)"/><path class="g" d="M80.33,214.067l.912,1.372,1.651-2.459" transform="translate(-12.151 -49.976)"/><rect class="h" width="14.745" height="2.528" transform="translate(76.161 162.934)"/><rect class="f" width="6.366" height="6.366" transform="translate(66.326 171.661)"/><path class="g" d="M80.33,229.594l.912,1.372,1.651-2.466" transform="translate(-12.151 -54.687)"/><rect class="h" width="14.745" height="2.528" transform="translate(76.161 173.744)"/><path class="i" d="M257.1,77.433a16.346,16.346,0,0,0,2.563-1.8c.432-.55,1.156-3.483,1.734-4.081s1.748-.557,1.894-.056a4.6,4.6,0,0,1,.049,1.393s.648-.787.7-.432a8.9,8.9,0,0,1-1.8,4.242c-1.393,1.755-3.768,4.179-3.768,4.179Z" transform="translate(-65.801 -6.918)"/><rect class="j" width="25.61" height="16.89" transform="translate(86.087 110.563) rotate(19.19)"/><path class="k" d="M191.32,82.083s32.931,5.509,46.742-3.483l2.041,3.232s-5.663,8.651-21.787,12.446-25.471,1.894-25.471,1.894Z" transform="translate(-45.836 -9.192)"/><path class="l" d="M191.32,82.083s32.931,5.509,46.742-3.483l2.041,3.232s-5.663,8.651-21.787,12.446-25.471,1.894-25.471,1.894Z" transform="translate(-45.836 -9.192)"/><path class="k" d="M146.3,205.92a3.121,3.121,0,0,0,.341,3.079c1.128,1.254.327,2.786-1.073,2.041s-2.918-4.827-2.918-4.827l2.215-2.152Z" transform="translate(-31.065 -47.269)"/><path class="k" d="M218.783,180.755a3.1,3.1,0,0,0,3.1,0c1.386-.989,2.786,0,1.895,1.3s-5.126,2.34-5.126,2.34l-1.881-2.452Z" transform="translate(-53.56 -40.074)"/><path class="i" d="M-8408.467-5090.032l4.283-10.315,0,0-.058-.609a3.059,3.059,0,0,1,2.089-2.864c2.174-.83,4.736,1.3,4.326,3.351q-.161,1.061-.428,2.1l.616,1.488a.543.543,0,0,1-.058.521.543.543,0,0,1-.473.23l-.78-.04q-.215.573-.465,1.133a1.713,1.713,0,0,1-1.015.832,1.708,1.708,0,0,1-.492.072,1.7,1.7,0,0,1-.812-.207c-.1-.045-.2-.1-.292-.148l-.588,6.4Z" transform="translate(8541.865 5159.007)"/><path class="c" d="M185.1,60.77A13.881,13.881,0,0,1,182.1,59.8a2.835,2.835,0,0,1-.731,3.03,2.319,2.319,0,0,1-2.932.244l1.087-4.242a3.482,3.482,0,0,1,2.438-2.6,11.465,11.465,0,0,1,1.588-.355c1.337-.2,2.939,1.052,4.235.488a.822.822,0,0,1,1.142.829c-.118,1.337-.836,3.322-2.786,3.608A3.176,3.176,0,0,1,185.1,60.77Z" transform="translate(-41.927 -2.291)"/><path class="m" d="M182.505,65.241s.286-1.282-.7-1.393-1.393,1.72-.139,2.2Z" transform="translate(-42.67 -4.713)"/><path class="m" d="M182.65,70.829a4.145,4.145,0,0,1-1.667-1.659,6.49,6.49,0,0,0,1.346,4.586Z" transform="translate(-42.725 -6.431)"/><path class="n" d="M165.913,77.771l3.984,1.323a25.485,25.485,0,0,0,2.96.815c3.2.7,12.537,3.483,14.306,13.93,2.145,12.676-15.581,29.894-15.581,29.894l-20.637-4.876S136.381,71.8,165.913,77.771Z" transform="translate(-32.493 -8.782)"/><path class="c" d="M152.322,136.92s-2.786,13.1,7.1,14.842,26.864-5.976,37.214,17.413l3.643-2.145s-2.417-21.355-25.074-27.54Z" transform="translate(-33.891 -26.892)"/><path class="c" d="M153.166,145.12s12.878,20.115-9.166,39.213l2.744,3.7s23.737-10.872,21.431-41.177Z" transform="translate(-31.475 -29.381)"/><path class="o" d="M165.913,93.715s.1,5.175-6.22,11.8,2.5,19.042,2.5,19.042L150.952,123.3s-4.36-15.386-3.483-25.387,17.893-4.179,17.893-4.179Z" transform="translate(-32.492 -13.274)"/><path class="k" d="M144.749,77.387c-12.419.745-38.44,6.345-27.359,41.226l5.5-.488s-1.63-26.244,21.278-25.234a19.664,19.664,0,0,0,2.563,0c3.824-.32,12.962-1.867,9.145-9.312a11.639,11.639,0,0,0-11.123-6.192Z" transform="translate(-22.584 -8.815)"/><path class="l" d="M144.749,77.387c-12.419.745-38.44,6.345-27.359,41.226l5.5-.488s-1.63-26.244,21.278-25.234a19.664,19.664,0,0,0,2.563,0c3.824-.32,12.962-1.867,9.145-9.312a11.639,11.639,0,0,0-11.123-6.192Z" transform="translate(-22.584 -8.815)"/><path class="i" d="M122.991,136a9.925,9.925,0,0,1,0,5.349c-.857,2.487-2.675,3.092-4.27,2.25s1.518-5.043,1.518-5.043l-1-2.229Z" transform="translate(-23.665 -26.613)"/><rect class="b" width="12.433" height="12.433" transform="translate(199.685 65.967)"/><rect class="b" width="29.608" height="3.824" transform="translate(216.938 66.594)"/><rect class="b" width="24.454" height="3.824" transform="translate(216.938 73.97)"/><rect class="b" width="57.622" height="3.246" transform="translate(182.642 178.508)"/><rect class="e" width="12.899" height="12.899" transform="translate(196.44 173.681)"/><rect class="b" width="37.221" height="2.096" transform="translate(206.894 163.192)"/><rect class="e" width="8.33" height="8.33" transform="translate(229.266 160.071)"/><rect class="b" width="69.615" height="19.725" rx="9.862" transform="translate(168.795 121.708)"/><text class="p" transform="translate(188.533 135.001)"><tspan x="0" y="0">Term 3</tspan></text><rect class="b" width="69.615" height="19.725" rx="9.862" transform="translate(135.391 143.599)"/><text class="p" transform="translate(153.533 157.001)"><tspan x="0" y="0">Term 2</tspan></text><rect class="b" width="69.615" height="19.725" rx="9.862" transform="translate(101.986 165.49)"/><text class="p" transform="translate(120.533 179.001)"><tspan x="0" y="0">Term 1</tspan></text></g></svg>