<svg height="512" viewBox="0 0 64 64" width="512" xmlns="http://www.w3.org/2000/svg"><g id="Defense-Vaccine-Shield-Protection-Syring"><path d="m60 22v15.22a20.014 20.014 0 0 1 -7.72 15.79l-10.28 7.99-10.28-7.99a20.014 20.014 0 0 1 -7.72-15.79v-15.22l18-8z" fill="#ff5023"/><path d="m18 57a2.015 2.015 0 0 1 2 2 2.006 2.006 0 0 1 -2 2h-10a2.015 2.015 0 0 1 -2-2 2.006 2.006 0 0 1 2-2z" fill="#acabb1"/><path d="m20 43a2.015 2.015 0 0 1 2 2 2.006 2.006 0 0 1 -2 2h-14a2.015 2.015 0 0 1 -2-2 2.006 2.006 0 0 1 2-2z" fill="#acabb1"/><path d="m10 51h6v6h-6z" fill="#e0e0e2"/><path d="m19 31v4h-12v-11a1 1 0 0 1 1-1h10a1 1 0 0 1 1 1z" fill="#5aaae7"/><g fill="#c6c5ca"><path d="m19 39v4h-12v-8h12z"/><path d="m19 47v3a1 1 0 0 1 -1 1h-10a1 1 0 0 1 -1-1v-3z"/><path d="m17 20v3h-8v-3a1 1 0 0 1 1-1h6a1 1 0 0 1 1 1z"/></g><path d="m15 14v5h-4v-5a1 1 0 0 1 1-1h2a1 1 0 0 1 1 1z" fill="#acabb1"/><path d="m56 24.6v12.62a15.9 15.9 0 0 1 -6.18 12.63l-7.82 6.08-7.82-6.08a15.9 15.9 0 0 1 -6.18-12.63v-12.62l14-6.22z" fill="#e6e7e8"/><path d="m49 36v4h-3v3h-4v-3h-3v-4h3v-3h4v3z" fill="#d8d7da"/><path d="m47 34v4h-3v3h-4v-3h-3v-4h3v-3h4v3z" fill="#ff9811"/><path d="m10 51h6v2h-6z" fill="#d8d7da"/><path d="m12 2h2v11h-2z" fill="#c6c5ca"/><path d="m13 30h6v2h-6z" fill="#3d9ae2"/><path d="m15 26h4v2h-4z" fill="#3d9ae2"/><path d="m13 38h6v2h-6z" fill="#acabb1"/></g></svg>