<svg xmlns="http://www.w3.org/2000/svg" width="218.111" height="170.869" viewBox="0 0 218.111 170.869"><defs><style>.a{fill:#e6e6e6;opacity:0.3;}.b{fill:#0ae2b3;}.c{fill:#231f20;}.d{fill:#fff;}</style></defs><g transform="translate(-699.127 -585.574)"><path class="a" d="M202.288,68.962c23.27,7.864,59.79,18.45,60.445,46.359s-6.539,63.013-54.531,63.355c-39.84,10.371-127.709,38.717-152.887,4.038-23.779-32.687-5.95-134.68,35.6-151.682C120.045,19.116,156.834,53.6,202.288,68.962Z" transform="translate(654.467 556.999)"/><g transform="translate(664.999 557.074)"><path class="b" d="M127.467,188.791a219.843,219.843,0,0,1-34.936,5.283c-2.986.183-6.021.292-9.043.292s-6.057-.11-9.037-.292a219.99,219.99,0,0,1-34.942-5.283s-.445-14.741,8.934-24.8S73.884,153.05,83.488,153.05s25.674.9,35.052,10.939S127.467,188.791,127.467,188.791Z" transform="translate(0 -36.561)"/><path class="c" d="M114.931,161.12v36.106c-2.986.183-6.021.292-9.043.292s-6.057-.11-9.037-.292V161.12Z" transform="translate(-22.4 -39.713)"/><ellipse class="d" cx="16.447" cy="18.848" rx="16.447" ry="18.848" transform="translate(67.272 70.998)"/><path class="c" d="M101.318,116.211c-9.238,0-16.758-8.6-16.758-19.165,0-11.225,1.219-19.165,16.758-19.165s16.764,7.922,16.764,19.165C118.083,107.612,110.563,116.211,101.318,116.211Zm0-37.7c-15.009,0-16.131,7.313-16.131,18.538,0,10.22,7.24,18.538,16.131,18.538s16.137-8.318,16.137-18.538C117.455,85.875,116.328,78.508,101.318,78.508Z" transform="translate(-17.599 -7.199)"/><path class="d" d="M129.1,117.248c.8-5.021,9.141-6.258,8.727-.341a8.72,8.72,0,0,1-2.224,5.558,5.158,5.158,0,0,1-5.588,1.3" transform="translate(-34.997 -20.899)"/><path class="c" d="M131.55,124.22a4.559,4.559,0,0,1-1.871-.39.314.314,0,1,1,.256-.573,4.814,4.814,0,0,0,5.241-1.219,8.446,8.446,0,0,0,2.127-5.357c.207-2.937-1.792-3.486-2.657-3.589a5.089,5.089,0,0,0-5.442,4,.317.317,0,1,1-.609-.1,5.7,5.7,0,0,1,6.13-4.522c1.688.189,3.419,1.414,3.218,4.266a9.069,9.069,0,0,1-2.31,5.753A5.789,5.789,0,0,1,131.55,124.22Z" transform="translate(-34.79 -20.698)"/><path class="d" d="M89.4,117.248c-.8-5.021-9.141-6.258-8.726-.341a8.751,8.751,0,0,0,2.218,5.558,5.168,5.168,0,0,0,5.594,1.3" transform="translate(-16.074 -20.899)"/><path class="c" d="M86.571,124.2a5.789,5.789,0,0,1-4.065-1.761,9.08,9.08,0,0,1-2.316-5.753c-.2-2.846,1.536-4.071,3.218-4.266a5.729,5.729,0,0,1,6.137,4.522.323.323,0,0,1-.262.366.317.317,0,0,1-.36-.262,5.074,5.074,0,0,0-5.442-4c-.865.1-2.864.652-2.663,3.589a8.455,8.455,0,0,0,2.133,5.357,4.753,4.753,0,0,0,5.235,1.219.315.315,0,1,1,.262.573A4.558,4.558,0,0,1,86.571,124.2Z" transform="translate(-15.886 -20.679)"/><path class="d" d="M96.85,148.757a9.556,9.556,0,0,0,8.83,4.912,10.622,10.622,0,0,0,9.251-4.912l-.884-19.287H97.728Z" transform="translate(-22.4 -27.35)"/><path class="c" d="M105.475,153.783a10.06,10.06,0,0,1-9.141-5.095.317.317,0,0,1,0-.146l.878-19.293a.317.317,0,0,1,.317-.3h16.32a.317.317,0,0,1,.317.3l.853,19.293a.311.311,0,0,1-.037.165A11.042,11.042,0,0,1,105.475,153.783Zm-8.531-5.3c.3.609,2.566,4.668,8.531,4.668a10.421,10.421,0,0,0,8.934-4.674l-.859-18.891H97.821Z" transform="translate(-22.195 -27.147)"/><path class="c" d="M98.113,141.707a13.407,13.407,0,0,0,4.93,4.327c3.236,1.786,8.068,3.8,11.993,3.2l-.646-8.135a36.93,36.93,0,0,1-8.653.061,24.822,24.822,0,0,1-7.471-1.45C97.869,139.513,97.613,140.927,98.113,141.707Z" transform="translate(-22.785 -31.342)"/><path class="c" d="M113.346,149.413c-3.955,0-8.263-2.029-10.646-3.352a13.407,13.407,0,0,1-5.04-4.424,2.322,2.322,0,0,1-.037-2.316.488.488,0,0,1,.573-.146,24.539,24.539,0,0,0,7.368,1.42,36.2,36.2,0,0,0,8.586-.055.311.311,0,0,1,.232.067.293.293,0,0,1,.116.213l.646,8.154a.3.3,0,0,1-.262.323A9.85,9.85,0,0,1,113.346,149.413Zm-15.3-9.616a1.962,1.962,0,0,0,.128,1.542h0A12.913,12.913,0,0,0,103,145.555c2.566,1.42,7.428,3.693,11.518,3.205l-.609-7.55a37.714,37.714,0,0,1-8.41,0A25.155,25.155,0,0,1,98.044,139.8Zm-.091-.043Z" transform="translate(-22.588 -31.126)"/><path class="d" d="M103.578,126.076h1.341a11.505,11.505,0,0,0,11.457-11.505V96.35s-4,1.152-12.188,1.152S92,96.35,92,96.35v18.221a11.511,11.511,0,0,0,11.578,11.505Z" transform="translate(-20.505 -14.413)"/><path class="c" d="M116.048,95.955v18.221a11.505,11.505,0,0,1-11.505,11.505H103.25a11.511,11.511,0,0,1-11.505-11.505V95.955s4,1.152,12.188,1.152,12.188-1.152,12.188-1.152m0-.609a.548.548,0,0,0-.171,0c-.037,0-4.034,1.127-12.005,1.127s-11.962-1.115-12-1.127a.7.7,0,0,0-.786.609v18.221a12.145,12.145,0,0,0,12.09,12.133h1.341a12.151,12.151,0,0,0,12.139-12.133V95.955A.609.609,0,0,0,116.121,95.346Z" transform="translate(-20.177 -14.019)"/><path class="c" d="M68.824,199.9a.311.311,0,0,1-.311-.286l-2.5-24.376a.317.317,0,0,1,.28-.347.329.329,0,0,1,.347.28l2.5,24.376a.311.311,0,0,1-.28.341Z" transform="translate(-10.352 -45.091)"/><path class="c" d="M152.536,199.956H152.5a.311.311,0,0,1-.28-.341l2.5-24.376a.317.317,0,0,1,.609.067l-2.5,24.376A.317.317,0,0,1,152.536,199.956Z" transform="translate(-44.027 -45.149)"/><path class="d" d="M289.81,97.271c0,10.427,25.832,51.268-16.454,51.268S256.9,107.71,256.9,97.271,257.6,78.38,273.356,78.38,289.81,86.838,289.81,97.271Z" transform="translate(-81.866 -7.394)"/><path class="c" d="M273.115,148.635c-10.591,0-17.843-2.608-21.548-7.758-6.246-8.684-1.505-22.846,1.956-33.187,1.505-4.485,2.8-8.361,2.8-10.634,0-11.243,1.219-19.2,16.789-19.2s16.789,7.953,16.789,19.2c0,2.273,1.292,6.149,2.8,10.634,3.461,10.36,8.209,24.5,1.956,33.187C290.952,146.039,283.7,148.635,273.115,148.635Zm0-70.147c-15.04,0-16.161,7.349-16.161,18.568,0,2.377-1.31,6.3-2.834,10.835-3.419,10.207-8.1,24.193-2.041,32.615,3.583,4.979,10.658,7.5,21.036,7.5s17.453-2.523,21.03-7.5c6.063-8.422,1.377-22.407-2.041-32.615-1.517-4.54-2.834-8.458-2.834-10.835,0-11.188-1.121-18.556-16.155-18.556Z" transform="translate(-81.643 -7.191)"/><path class="b" d="M304.107,188.8a219.845,219.845,0,0,1-34.936,5.283c-2.986.183-6.021.292-9.043.292s-6.057-.11-9.037-.292a219.988,219.988,0,0,1-34.942-5.283s-.445-14.741,8.934-24.784,25.442-10.939,35.046-10.939,25.68.9,35.052,10.939S304.107,188.8,304.107,188.8Z" transform="translate(-68.997 -36.573)"/><path class="c" d="M291.571,161.12v36.106c-2.986.183-6.021.292-9.043.292s-6.057-.11-9.037-.292V161.12Z" transform="translate(-91.397 -39.713)"/><path class="c" d="M245.464,199.9a.311.311,0,0,1-.311-.286l-2.5-24.376a.317.317,0,0,1,.28-.347.329.329,0,0,1,.347.28l2.5,24.376a.3.3,0,0,1-.28.341Z" transform="translate(-79.349 -45.091)"/><path class="c" d="M329.176,199.906h-.037a.311.311,0,0,1-.28-.341l2.5-24.376a.323.323,0,0,1,.347-.28.317.317,0,0,1,.28.347l-2.5,24.376A.317.317,0,0,1,329.176,199.906Z" transform="translate(-113.024 -45.099)"/><path class="d" d="M305.94,117.245c.8-5.027,9.141-6.265,8.739-.335a8.726,8.726,0,0,1-2.224,5.564,5.167,5.167,0,0,1-5.6,1.31" transform="translate(-104.072 -20.897)"/><path class="c" d="M308.406,124.288a4.57,4.57,0,0,1-1.871-.384.317.317,0,1,1,.262-.573,4.849,4.849,0,0,0,5.241-1.219,8.506,8.506,0,0,0,2.139-5.369c.2-2.943-1.8-3.5-2.669-3.6a5.083,5.083,0,0,0-5.448,4.01.317.317,0,0,1-.609-.1,5.723,5.723,0,0,1,6.143-4.534c1.688.2,3.419,1.42,3.224,4.266a9.062,9.062,0,0,1-2.316,5.765A5.82,5.82,0,0,1,308.406,124.288Z" transform="translate(-103.88 -20.718)"/><path class="d" d="M266.2,117.245c-.8-5.027-9.141-6.265-8.739-.335a8.757,8.757,0,0,0,2.224,5.564,5.169,5.169,0,0,0,5.6,1.31" transform="translate(-85.13 -20.897)"/><path class="c" d="M263.342,124.273a5.832,5.832,0,0,1-4.083-1.761,9.086,9.086,0,0,1-2.31-5.765c-.2-2.846,1.53-4.071,3.218-4.266a5.736,5.736,0,0,1,6.143,4.534.3.3,0,0,1-.262.36.317.317,0,0,1-.36-.256,5.085,5.085,0,0,0-5.448-4.01c-.871.1-2.87.652-2.663,3.6a8.465,8.465,0,0,0,2.133,5.369,4.826,4.826,0,0,0,5.247,1.219.314.314,0,0,1,.256.573,4.553,4.553,0,0,1-1.871.408Z" transform="translate(-84.93 -20.703)"/><path class="d" d="M273.64,148.874s2.255,4.918,8.848,4.918c5.253,0,9.257-4.918,9.257-4.918l-.878-19.324h-16.35Z" transform="translate(-91.455 -27.382)"/><path class="c" d="M282.281,153.9a9.975,9.975,0,0,1-9.141-5.1.3.3,0,0,1-.03-.146l.884-19.324a.317.317,0,0,1,.311-.3h16.35a.317.317,0,0,1,.311.3l.884,19.324a.335.335,0,0,1-.073.213C291.617,149.073,287.625,153.9,282.281,153.9Zm-8.531-5.3c.3.609,2.566,4.668,8.531,4.668,4.656,0,8.367-4.052,8.94-4.711l-.865-18.891H274.609Z" transform="translate(-91.248 -27.179)"/><path class="c" d="M274.9,141.81a13.406,13.406,0,0,0,4.942,4.327c3.236,1.792,8.081,3.809,12.011,3.205l-.646-8.166a37.1,37.1,0,0,1-8.672.055,24.9,24.9,0,0,1-7.483-1.45C274.659,139.6,274.4,141.017,274.9,141.81Z" transform="translate(-91.841 -31.372)"/><path class="c" d="M290.16,149.565c-3.955,0-8.276-2.029-10.658-3.352a13.449,13.449,0,0,1-5.052-4.436,2.322,2.322,0,0,1-.037-2.316.487.487,0,0,1,.573-.146,24.428,24.428,0,0,0,7.38,1.42,36.034,36.034,0,0,0,8.6-.055.323.323,0,0,1,.232.067.3.3,0,0,1,.11.213l.646,8.166a.3.3,0,0,1-.256.329A10.738,10.738,0,0,1,290.16,149.565Zm-15.326-9.653a1.962,1.962,0,0,0,.128,1.542h0a13,13,0,0,0,4.832,4.223c2.572,1.42,7.447,3.7,11.536,3.205l-.609-7.563a37.782,37.782,0,0,1-8.422,0A24.992,24.992,0,0,1,274.834,139.912Zm-.091-.043Z" transform="translate(-91.643 -31.181)"/><path class="d" d="M293.262,99.863v13.26a11.517,11.517,0,0,1-11.511,11.518H280.41a11.524,11.524,0,0,1-11.53-11.518V100.546l7.252-.609.835-5.753,1.828,6.508,5.143-.683c.53-2.3,0-7.264-.073-7.489l3.687,7Z" transform="translate(-89.596 -12.917)"/><path class="c" d="M281.547,124.731h-1.341A11.853,11.853,0,0,1,268.36,112.9V100.319a.311.311,0,0,1,.292-.311l7-.609.8-5.485a.311.311,0,0,1,.286-.268.293.293,0,0,1,.323.232l1.749,6.246,4.65-.609a31.582,31.582,0,0,0-.116-7.142.324.324,0,1,1,.609-.219l3.626,6.813,5.533.366a.311.311,0,0,1,.293.311V112.9A11.847,11.847,0,0,1,281.547,124.731Zm-12.553-24.12V112.9A11.219,11.219,0,0,0,280.207,124.1h1.341A11.219,11.219,0,0,0,292.754,112.9V99.935l-5.418-.36a.323.323,0,0,1-.256-.165l-2.956-5.558a24.329,24.329,0,0,1-.091,6.009.3.3,0,0,1-.268.238l-5.143.683a.317.317,0,0,1-.347-.225l-1.414-5.076-.609,4.266a.311.311,0,0,1-.286.268Z" transform="translate(-89.393 -12.69)"/><path class="b" d="M208.669,168.2c-11.853-12.7-32.158-13.827-44.3-13.827s-32.45,1.127-44.3,13.827-11.286,31.323-11.286,31.323,28.221,7.032,55.589,7.032,55.589-7.051,55.589-7.051S220.515,180.9,208.669,168.2Z" transform="translate(-27.057 -37.077)"/><path class="c" d="M204.1,163.748l-8.093,27.965-3.333,11.524-3.339-11.542-8.087-27.947C186.728,162.121,198.624,162.121,204.1,163.748Z" transform="translate(-55.367 -40.263)"/><ellipse class="d" cx="20.786" cy="23.827" rx="20.786" ry="23.827" transform="translate(116.815 59.767)"/><path class="c" d="M186.953,107.732c-11.633,0-21.1-10.829-21.1-24.138,0-14.138,1.517-24.144,21.1-24.144s21.1,10.006,21.1,24.144C208.056,96.9,198.593,107.732,186.953,107.732Zm0-47.654c-19.05,0-20.476,9.312-20.476,23.516,0,12.962,9.19,23.51,20.476,23.51s20.476-10.549,20.476-23.51c0-14.2-1.426-23.516-20.476-23.516Z" transform="translate(-49.352)"/><path class="d" d="M222,109.019c1.012-6.344,11.548-7.922,11.024-.427a11.021,11.021,0,0,1-2.8,7.02,6.543,6.543,0,0,1-7.069,1.658" transform="translate(-71.284 -17.241)"/><path class="c" d="M225.161,117.843a5.71,5.71,0,0,1-2.328-.481.323.323,0,0,1-.158-.42.317.317,0,0,1,.414-.158,6.136,6.136,0,0,0,6.7-1.584,10.8,10.8,0,0,0,2.718-6.825c.183-2.626-1.1-4.357-3.437-4.625a6.494,6.494,0,0,0-6.965,5.125.323.323,0,0,1-.366.262.3.3,0,0,1-.256-.36c.609-3.778,4.534-6,7.654-5.649,2.1.238,4.266,1.755,4,5.29a11.391,11.391,0,0,1-2.895,7.221A7.27,7.27,0,0,1,225.161,117.843Z" transform="translate(-71.081 -17.046)"/><path class="d" d="M171.918,109.019c-1.018-6.344-11.548-7.922-11.03-.427a11.06,11.06,0,0,0,2.809,7.02,6.536,6.536,0,0,0,7.063,1.658" transform="translate(-47.406 -17.241)"/><path class="c" d="M168.31,117.843a7.252,7.252,0,0,1-5.088-2.206,11.391,11.391,0,0,1-2.895-7.221c-.25-3.534,1.9-5.052,3.992-5.29,3.132-.353,7.051,1.871,7.66,5.649a.317.317,0,1,1-.609.1,6.467,6.467,0,0,0-6.965-5.125c-2.34.268-3.62,2-3.437,4.625a10.734,10.734,0,0,0,2.718,6.825,6.151,6.151,0,0,0,6.7,1.584.311.311,0,0,1,.414.158.317.317,0,0,1-.158.42,5.71,5.71,0,0,1-2.334.481Z" transform="translate(-47.187 -17.046)"/><path class="d" d="M181.25,148.906s2.852,6.21,11.164,6.21a13.4,13.4,0,0,0,11.688-6.21l-1.109-24.376H182.359Z" transform="translate(-55.367 -25.421)"/><path class="c" d="M192.225,155.233c-8.416,0-11.42-6.332-11.45-6.393a.311.311,0,0,1,0-.146l1.109-24.376a.311.311,0,0,1,.311-.3h20.634a.311.311,0,0,1,.311.3l1.109,24.376a.262.262,0,0,1-.037.165A13.852,13.852,0,0,1,192.225,155.233Zm-10.847-6.594c.335.652,3.3,5.96,10.847,5.96a13.254,13.254,0,0,0,11.371-5.972l-1.1-24.01H182.475Z" transform="translate(-55.178 -25.222)"/><path class="c" d="M182.839,140.01a17.2,17.2,0,0,0,6.234,5.485c4.089,2.261,10.2,4.8,15.156,4.046l-.81-10.311a46.843,46.843,0,0,1-10.969.073,31.911,31.911,0,0,1-9.439-1.828C182.528,137.225,182.187,139,182.839,140.01Z" transform="translate(-55.847 -30.468)"/><path class="c" d="M202.159,149.783c-4.973,0-10.408-2.559-13.407-4.217a16.67,16.67,0,0,1-6.344-5.57,2.907,2.907,0,0,1-.049-2.834.518.518,0,0,1,.609-.158,31.9,31.9,0,0,0,9.342,1.8,45.941,45.941,0,0,0,10.872-.067.317.317,0,0,1,.232.061.329.329,0,0,1,.11.213l.817,10.311a.3.3,0,0,1-.256.323A12.731,12.731,0,0,1,202.159,149.783ZM182.792,137.6a2.438,2.438,0,0,0,.122,2.09h0a16.222,16.222,0,0,0,6.13,5.363c3.272,1.828,9.476,4.7,14.68,4.046l-.768-9.7a47.379,47.379,0,0,1-10.689,0A33.329,33.329,0,0,1,182.792,137.6ZM182.738,137.6Z" transform="translate(-55.666 -30.277)"/><path class="d" d="M189.77,120.239h1.694a14.546,14.546,0,0,0,14.546-14.546V82.67s-5.058,1.456-15.393,1.456S175.23,82.67,175.23,82.67v23.023a14.546,14.546,0,0,0,14.54,14.546Z" transform="translate(-53.015 -9.07)"/><path class="c" d="M205.608,82.263v23.023a14.546,14.546,0,0,1-14.546,14.546h-1.694a14.546,14.546,0,0,1-14.54-14.546V82.263s5.058,1.456,15.387,1.456,15.393-1.456,15.393-1.456m-30.78-.609a.652.652,0,0,0-.378.122.609.609,0,0,0-.25.506V105.3a15.186,15.186,0,0,0,15.168,15.174h1.694A15.192,15.192,0,0,0,206.236,105.3V82.263a.609.609,0,0,0-.25-.506.652.652,0,0,0-.378-.122.61.61,0,0,0-.177,0c-.049,0-5.113,1.426-15.235,1.426s-15.168-1.414-15.235-1.426a.548.548,0,0,0-.171,0Z" transform="translate(-52.613 -8.663)"/><path class="d" d="M197.488,181.405l-3.918-3.023,3.918-3.023,3.918,3.023Z" transform="translate(-60.179 -45.275)"/><path class="d" d="M201.2,199.323l-3.333,11.524L194.53,199.3l2.011-16.941.043-.353h2.559l.037.366Z" transform="translate(-60.554 -47.873)"/><path class="c" d="M145.882,213.514a.311.311,0,0,1-.311-.28l-3.163-30.817a.311.311,0,0,1,.28-.347.323.323,0,0,1,.341.28l3.163,30.817a.317.317,0,0,1-.28.347Z" transform="translate(-40.194 -47.896)"/><path class="c" d="M251.709,213.514h0a.317.317,0,0,1-.28-.347l3.163-30.817a.323.323,0,0,1,.341-.28.311.311,0,0,1,.28.347l-3.163,30.817a.311.311,0,0,1-.341.28Z" transform="translate(-82.779 -47.896)"/><path class="c" d="M108.638,199.435h0a.311.311,0,0,1-.3-.329c0-.238,1.219-24.1,14.174-33.718,11.767-8.751,30.055-10.75,30.238-10.768a.317.317,0,0,1,.061.609c-.177,0-18.282,2-29.927,10.646-12.688,9.439-13.912,33-13.918,33.242a.317.317,0,0,1-.329.317Z" transform="translate(-26.887 -37.174)"/><path class="c" d="M262.686,199.433a.317.317,0,0,1-.317-.3c0-.238-1.219-23.8-13.925-33.242-11.627-8.647-29.744-10.628-29.927-10.646a.317.317,0,1,1,.067-.609c.183,0,18.471,2.017,30.238,10.768,12.931,9.616,14.162,33.48,14.174,33.718a.323.323,0,0,1-.3.329Z" transform="translate(-69.782 -37.172)"/></g></g></svg>