<?xml version="1.0"?>
<svg xmlns="http://www.w3.org/2000/svg" id="Layer_1" data-name="Layer 1" viewBox="0 0 512 512" width="512" height="512">
<title>Face</title>
<path d="M449,263.465V208.987A35.859,35.859,0,0,0,413.2,173H373V129.342A6.518,6.518,0,0,0,366.75,123H261V84.331a27.065,27.065,0,1,0-12-.452V123H145.25a6.518,6.518,0,0,0-6.25,6.342V173H98.8A35.859,35.859,0,0,0,63,208.987v54.478a47.085,47.085,0,0,0,0,93.144v88.734A35.578,35.578,0,0,0,98.8,481H413.2A35.578,35.578,0,0,0,449,445.343V356.609a47.085,47.085,0,0,0,0-93.144ZM240.928,57.729A15.072,15.072,0,1,1,256,72.8,15.089,15.089,0,0,1,240.928,57.729ZM34.845,310.037A35.181,35.181,0,0,1,63,275.642v68.791A35.182,35.182,0,0,1,34.845,310.037ZM151,135H361v38H151ZM437,445.343A23.565,23.565,0,0,1,413.2,469H98.8A23.565,23.565,0,0,1,75,445.343V208.987A23.846,23.846,0,0,1,98.8,185H413.2A23.846,23.846,0,0,1,437,208.987Zm12-100.91V275.642a35.087,35.087,0,0,1,0,68.791Z"/>
<path d="M355,346a6,6,0,0,0-6-6H163a6,6,0,0,0-6,6v82a6,6,0,0,0,6,6H349a6,6,0,0,0,6-6Zm-93,6h36v70H262Zm-12,70H214V352h36Zm-81-70h33v70H169Zm174,70H310V352h33Z"/>
<path d="M213,246a6,6,0,0,0-6-6H154a6,6,0,0,0-6,6v53a6,6,0,0,0,6,6h53a6,6,0,0,0,6-6Zm-12,47H160V252h41Z"/>
<path d="M364,246a6,6,0,0,0-6-6H305a6,6,0,0,0-6,6v53a6,6,0,0,0,6,6h53a6,6,0,0,0,6-6Zm-12,47H311V252h41Z"/>
</svg>
