<svg width="18" height="19" viewBox="0 0 18 19" fill="none" xmlns="http://www.w3.org/2000/svg">
<g opacity="0.4">
<path d="M9 11.5C10.2426 11.5 11.25 10.4926 11.25 9.25C11.25 8.00736 10.2426 7 9 7C7.75736 7 6.75 8.00736 6.75 9.25C6.75 10.4926 7.75736 11.5 9 11.5Z" stroke="#041242" stroke-width="1.2" stroke-linecap="round" stroke-linejoin="round"/>
<path d="M14.55 11.5C14.4502 11.7262 14.4204 11.9771 14.4645 12.2204C14.5086 12.4637 14.6246 12.6882 14.7975 12.865L14.8425 12.91C14.982 13.0493 15.0926 13.2147 15.1681 13.3968C15.2436 13.5789 15.2824 13.7741 15.2824 13.9713C15.2824 14.1684 15.2436 14.3636 15.1681 14.5457C15.0926 14.7278 14.982 14.8932 14.8425 15.0325C14.7032 15.172 14.5378 15.2826 14.3557 15.3581C14.1736 15.4336 13.9784 15.4724 13.7812 15.4724C13.5841 15.4724 13.3889 15.4336 13.2068 15.3581C13.0247 15.2826 12.8593 15.172 12.72 15.0325L12.675 14.9875C12.4982 14.8146 12.2737 14.6986 12.0304 14.6545C11.7871 14.6104 11.5362 14.6402 11.31 14.74C11.0882 14.8351 10.899 14.9929 10.7657 15.1942C10.6325 15.3954 10.561 15.6312 10.56 15.8725V16C10.56 16.3978 10.402 16.7794 10.1207 17.0607C9.83936 17.342 9.45782 17.5 9.06 17.5C8.66218 17.5 8.28064 17.342 7.99934 17.0607C7.71804 16.7794 7.56 16.3978 7.56 16V15.9325C7.55419 15.6843 7.47384 15.4435 7.32938 15.2415C7.18493 15.0396 6.98305 14.8857 6.75 14.8C6.52379 14.7002 6.27286 14.6704 6.02956 14.7145C5.78626 14.7586 5.56176 14.8746 5.385 15.0475L5.34 15.0925C5.20069 15.232 5.03526 15.3426 4.85316 15.4181C4.67106 15.4936 4.47587 15.5324 4.27875 15.5324C4.08163 15.5324 3.88644 15.4936 3.70434 15.4181C3.52224 15.3426 3.35681 15.232 3.2175 15.0925C3.07804 14.9532 2.9674 14.7878 2.89191 14.6057C2.81642 14.4236 2.77757 14.2284 2.77757 14.0312C2.77757 13.8341 2.81642 13.6389 2.89191 13.4568C2.9674 13.2747 3.07804 13.1093 3.2175 12.97L3.2625 12.925C3.4354 12.7482 3.55139 12.5237 3.5955 12.2804C3.63962 12.0371 3.60984 11.7862 3.51 11.56C3.41493 11.3382 3.25707 11.149 3.05585 11.0157C2.85463 10.8825 2.61884 10.811 2.3775 10.81H2.25C1.85218 10.81 1.47064 10.652 1.18934 10.3707C0.908035 10.0894 0.75 9.70782 0.75 9.31C0.75 8.91218 0.908035 8.53064 1.18934 8.24934C1.47064 7.96804 1.85218 7.81 2.25 7.81H2.3175C2.56575 7.80419 2.8065 7.72384 3.00847 7.57938C3.21045 7.43493 3.36429 7.23305 3.45 7C3.54984 6.77379 3.57962 6.52286 3.5355 6.27956C3.49139 6.03626 3.3754 5.81176 3.2025 5.635L3.1575 5.59C3.01804 5.45069 2.9074 5.28526 2.83191 5.10316C2.75642 4.92106 2.71757 4.72587 2.71757 4.52875C2.71757 4.33163 2.75642 4.13644 2.83191 3.95434C2.9074 3.77224 3.01804 3.60681 3.1575 3.4675C3.29681 3.32804 3.46224 3.2174 3.64434 3.14191C3.82644 3.06642 4.02163 3.02757 4.21875 3.02757C4.41587 3.02757 4.61106 3.06642 4.79316 3.14191C4.97526 3.2174 5.14069 3.32804 5.28 3.4675L5.325 3.5125C5.50176 3.6854 5.72626 3.80139 5.96956 3.8455C6.21285 3.88962 6.46379 3.85984 6.69 3.76H6.75C6.97183 3.66493 7.16101 3.50707 7.29427 3.30585C7.42753 3.10463 7.49904 2.86884 7.5 2.6275V2.5C7.5 2.10218 7.65804 1.72064 7.93934 1.43934C8.22064 1.15804 8.60218 1 9 1C9.39782 1 9.77936 1.15804 10.0607 1.43934C10.342 1.72064 10.5 2.10218 10.5 2.5V2.5675C10.501 2.80884 10.5725 3.04463 10.7057 3.24585C10.839 3.44707 11.0282 3.60493 11.25 3.7C11.4762 3.79984 11.7271 3.82962 11.9704 3.7855C12.2137 3.74139 12.4382 3.6254 12.615 3.4525L12.66 3.4075C12.7993 3.26804 12.9647 3.1574 13.1468 3.08191C13.3289 3.00642 13.5241 2.96757 13.7213 2.96757C13.9184 2.96757 14.1136 3.00642 14.2957 3.08191C14.4778 3.1574 14.6432 3.26804 14.7825 3.4075C14.922 3.54681 15.0326 3.71224 15.1081 3.89434C15.1836 4.07644 15.2224 4.27163 15.2224 4.46875C15.2224 4.66587 15.1836 4.86106 15.1081 5.04316C15.0326 5.22526 14.922 5.39069 14.7825 5.53L14.7375 5.575C14.5646 5.75176 14.4486 5.97626 14.4045 6.21956C14.3604 6.46285 14.3902 6.71379 14.49 6.94V7C14.5851 7.22183 14.7429 7.41101 14.9442 7.54427C15.1454 7.67753 15.3812 7.74904 15.6225 7.75H15.75C16.1478 7.75 16.5294 7.90804 16.8107 8.18934C17.092 8.47064 17.25 8.85218 17.25 9.25C17.25 9.64782 17.092 10.0294 16.8107 10.3107C16.5294 10.592 16.1478 10.75 15.75 10.75H15.6825C15.4412 10.751 15.2054 10.8225 15.0042 10.9557C14.8029 11.089 14.6451 11.2782 14.55 11.5V11.5Z" stroke="#041242" stroke-width="1.2" stroke-linecap="round" stroke-linejoin="round"/>
</g>
</svg>
