<svg xmlns="http://www.w3.org/2000/svg" width="32" height="32" viewBox="0 0 32 32"><defs><style>.a,.b{fill:none;}.b,.c{stroke:#0c1015;stroke-linecap:round;stroke-linejoin:round;stroke-width:1.5px;}</style></defs><path class="a" d="M0,0H32V32H0Z"/><line class="b" y1="8" x2="8" transform="translate(12 12)"/><circle class="c" cx="0.667" cy="0.667" r="0.667" transform="translate(12 12)"/><circle class="c" cx="0.667" cy="0.667" r="0.667" transform="translate(18.667 18.667)"/><path class="b" d="M5.663,8.6A2.933,2.933,0,0,1,8.6,5.663H9.93A2.933,2.933,0,0,0,12,4.81l.933-.933a2.933,2.933,0,0,1,4.16,0l.933.933a2.933,2.933,0,0,0,2.067.853h1.333A2.933,2.933,0,0,1,24.356,8.6V9.93A2.933,2.933,0,0,0,25.21,12l.933.933a2.933,2.933,0,0,1,0,4.16l-.933.933a2.933,2.933,0,0,0-.853,2.067v1.333a2.933,2.933,0,0,1-2.933,2.933H20.09a2.933,2.933,0,0,0-2.067.853l-.933.933a2.933,2.933,0,0,1-4.16,0L12,25.21a2.933,2.933,0,0,0-2.067-.853H8.6a2.933,2.933,0,0,1-2.933-2.933V20.09a2.933,2.933,0,0,0-.853-2.067l-.933-.933a2.933,2.933,0,0,1,0-4.16L4.81,12A2.933,2.933,0,0,0,5.663,9.93V8.6" transform="translate(1.004 1.004)"/></svg>