<svg xmlns="http://www.w3.org/2000/svg" width="20" height="20" viewBox="0 0 20 20"><defs><style>.a,.b{fill:none;}.b{stroke:#9da3b0;stroke-linecap:round;stroke-linejoin:round;stroke-width:1.5px;}</style></defs><path class="a" d="M0,0H20V20H0Z"/><circle class="b" cx="2.5" cy="2.5" r="2.5" transform="translate(7.5 8.333)"/><path class="b" d="M4.667,6.5H6.333A1.667,1.667,0,0,0,8,4.833.833.833,0,0,1,8.833,4H10.5M18,9.833v5.833a1.667,1.667,0,0,1-1.667,1.667H4.667A1.667,1.667,0,0,1,3,15.667v-7.5A1.667,1.667,0,0,1,4.667,6.5" transform="translate(-0.5 -0.667)"/><line class="b" x2="5" transform="translate(12.5 5)"/><line class="b" y2="5" transform="translate(15 2.5)"/></svg>