<svg xmlns="http://www.w3.org/2000/svg" width="20" height="20" viewBox="0 0 20 20"><defs><style>.a,.b{fill:none;}.b{stroke:#0AE2B3;stroke-linecap:round;stroke-linejoin:round;stroke-width:1.3px;}</style></defs><path class="a" d="M0,0H20V20H0Z"/><path class="b" d="M9,4.667a1.667,1.667,0,1,1,3.333,0,5.833,5.833,0,0,1,3.333,5v2.5a3.333,3.333,0,0,0,1.667,2.5H4a3.333,3.333,0,0,0,1.667-2.5v-2.5A5.833,5.833,0,0,1,9,4.667" transform="translate(-0.667 -0.5)"/><path class="b" d="M9,17v.833a2.5,2.5,0,0,0,5,0V17" transform="translate(-1.5 -2.833)"/></svg>