<svg xmlns="http://www.w3.org/2000/svg" width="40" height="40" viewBox="0 0 40 40"><defs><style>.a{fill:#9da3b0;}</style></defs><g transform="translate(-3 -3)"><path class="a" d="M13.462,22.492a10.66,10.66,0,0,0,6.308,2.046A11,11,0,0,0,30.538,13.769a10.769,10.769,0,1,0-17.077,8.723Z" transform="translate(3.231 0)"/><path class="a" d="M32.477,16.55a13.8,13.8,0,0,1-18.954,0A20.03,20.03,0,0,0,3,34.165,1.543,1.543,0,0,0,4.538,35.7H41.462A1.543,1.543,0,0,0,43,34.165,20.03,20.03,0,0,0,32.477,16.55Z" transform="translate(0 7.296)"/></g></svg>