<svg xmlns="http://www.w3.org/2000/svg" width="20" height="20" viewBox="0 0 20 20"><defs><style>.a,.b{fill:none;}.b{stroke:#f5bd41;stroke-linecap:round;stroke-linejoin:round;stroke-width:1.5px;}</style></defs><path class="a" d="M0,0H20V20H0Z"/><path class="b" d="M2,9A8.333,8.333,0,0,0,18.667,9" transform="translate(-0.333 -1.5)"/><path class="b" d="M12,17.333A8.333,8.333,0,0,1,20.333,9" transform="translate(-2 -1.5)"/><path class="b" d="M2,9a8.333,8.333,0,0,1,8.333,8.333" transform="translate(-0.333 -1.5)"/><path class="b" d="M12,4a8.083,8.083,0,0,1,2.492,6.25" transform="translate(-2 -0.667)"/><path class="b" d="M9.008,10.25A8.083,8.083,0,0,1,11.5,4" transform="translate(-1.5 -0.667)"/></svg>