<svg xmlns="http://www.w3.org/2000/svg" width="20" height="20" viewBox="0 0 20 20"><defs><style>.a,.b{fill:none;}.b{stroke:#56ba95;stroke-linecap:round;stroke-linejoin:round;stroke-width:1.5px;}</style></defs><g transform="translate(-1100 -267)"><path class="a" d="M0,0H20V20H0Z" transform="translate(1100 267)"/><path class="b" d="M6.111,6.111h.008M6.111,3H10a1.548,1.548,0,0,1,1.1.456L16.544,8.9a1.556,1.556,0,0,1,0,2.2L11.1,16.544a1.556,1.556,0,0,1-2.2,0L3.456,11.1A1.551,1.551,0,0,1,3,10V6.111A3.111,3.111,0,0,1,6.111,3Z" transform="translate(1100.5 267.5)"/></g></svg>