<svg xmlns="http://www.w3.org/2000/svg" width="20" height="20" viewBox="0 0 20 20"><defs><style>.a{fill:none;}.b{fill:#6d56ba;stroke:#6d56ba;stroke-width:0.3px;}</style></defs><g transform="translate(-43 2)"><path class="a" d="M0,0H20V20H0Z" transform="translate(43 -2)"/><path class="b" d="M-770-6467v-1.468a4.223,4.223,0,0,1,4.219-4.219h.469v-.5a3.751,3.751,0,0,1-1.876-3.246v-2.813a3.754,3.754,0,0,1,3.75-3.75,3.754,3.754,0,0,1,3.75,3.75v2.813a3.753,3.753,0,0,1-1.874,3.246v.5h.469a4.224,4.224,0,0,1,4.219,4.219V-6467Zm7.03-3.617v2.68h5.156v-.53a3.285,3.285,0,0,0-3.28-3.282h-.744Zm-6.093,2.149v.53h5.156v-2.68l-1.131-1.132h-.744A3.286,3.286,0,0,0-769.062-6468.468Zm4.687-3.945.937.938.937-.938v-.392a3.707,3.707,0,0,1-.937.119,3.706,3.706,0,0,1-.937-.119Zm-1.874-4.024a2.816,2.816,0,0,0,2.811,2.813,2.817,2.817,0,0,0,2.813-2.813v-1.406a1.409,1.409,0,0,0-1.406-1.407,1.4,1.4,0,0,0-1,.413,4.547,4.547,0,0,1-3.215,1.463h-.008Zm0-2.813v.937h.008a3.7,3.7,0,0,0,2.553-1.187,2.33,2.33,0,0,1,1.658-.687,2.336,2.336,0,0,1,1.362.438,2.818,2.818,0,0,0-2.769-2.312A2.814,2.814,0,0,0-766.249-6479.25Zm3.749,2.813v-.937h.939v.937Zm-2.812,0v-.937h.937v.937Z" transform="translate(816 6483)"/></g></svg>