<svg width="80" height="80" xmlns="http://www.w3.org/2000/svg" xmlns:xlink="http://www.w3.org/1999/xlink"><defs><circle id="a" cx="44.557" cy="44.557" r="3.038"/></defs><g transform="translate(-5.063 -5.063)" fill="none" fill-rule="evenodd"><g transform="translate(6.076 7.089)"><path d="M39.991 0C19.044 0 2.025 17.02 2.025 37.97c0 20.942 17.02 37.98 37.966 37.98 20.948 0 37.984-17.038 37.984-37.98C77.975 17.02 60.939 0 39.99 0m0 65.219c-17.019 0-30.824-13.79-30.824-30.821C9.167 17.36 22.972 3.57 39.991 3.57c17.037 0 30.825 13.79 30.825 30.827 0 17.032-13.788 30.82-30.825 30.82" fill="#A6A6A6"/><circle fill="#FFF" cx="37.468" cy="36.456" r="33.418"/><circle fill="#FFF" cx="33.418" cy="36.456" r="33.418"/><path d="M15.19 13.706c5.807-5.356 13.658-8.643 22.3-8.643 17.885 0 32.383 14.076 32.383 31.44 0 8.682-3.624 16.542-9.484 22.231" fill="#F8F8F8"/></g><rect stroke="#979797" transform="rotate(-21 40.873 34.135)" x="40.367" y="23.451" width="1" height="21.367" rx=".5"/><rect stroke="#979797" transform="rotate(90 52.466 44.106)" x="51.959" y="35.954" width="1" height="16.304" rx=".5"/><g stroke="#979797"><g transform="translate(12.152 12.152)"><rect transform="matrix(-1 0 0 1 63.797 0)" x="31.892" y=".5" width="1" height="6.089" rx=".5"/><rect transform="matrix(-1 0 0 1 63.797 0)" x="31.892" y="57.209" width="1" height="6.089" rx=".5"/><g transform="rotate(90 16.203 47.595)"><rect transform="matrix(-1 0 0 1 1.013 0)" x=".5" y=".5" width="1" height="6.089" rx=".5"/><rect transform="matrix(-1 0 0 1 1.013 0)" x=".5" y="57.209" width="1" height="6.089" rx=".5"/></g></g><g transform="rotate(-30 60.65 15.299)"><rect transform="matrix(-1 0 0 1 63.797 0)" x="31.892" y=".5" width="1" height="6.089" rx=".5"/><rect transform="matrix(-1 0 0 1 63.797 0)" x="31.892" y="57.209" width="1" height="6.089" rx=".5"/><g transform="rotate(90 16.203 47.595)"><rect transform="matrix(-1 0 0 1 1.013 0)" x=".5" y=".5" width="1" height="6.089" rx=".5"/><rect transform="matrix(-1 0 0 1 1.013 0)" x=".5" y="57.209" width="1" height="6.089" rx=".5"/></g></g><g transform="rotate(-60 48.499 27.45)"><rect transform="matrix(-1 0 0 1 63.797 0)" x="31.892" y=".5" width="1" height="6.089" rx=".5"/><rect transform="matrix(-1 0 0 1 63.797 0)" x="31.892" y="57.209" width="1" height="6.089" rx=".5"/><g transform="rotate(90 16.203 47.595)"><rect transform="matrix(-1 0 0 1 1.013 0)" x=".5" y=".5" width="1" height="6.089" rx=".5"/><rect transform="matrix(-1 0 0 1 1.013 0)" x=".5" y="57.209" width="1" height="6.089" rx=".5"/></g></g></g><path d="M44.042 6.076c-20.947 0-37.966 17.034-37.966 37.978 0 20.938 17.019 37.971 37.966 37.971 20.947 0 37.983-17.033 37.983-37.971 0-20.944-17.036-37.978-37.983-37.978m0 68.792c-17.02 0-30.824-13.786-30.824-30.814 0-17.034 13.805-30.82 30.824-30.82 17.037 0 30.824 13.786 30.824 30.82 0 17.028-13.787 30.814-30.824 30.814" fill="#C8C8C8"/><use fill="#A6A6A6" xlink:href="#a"/><circle stroke="#A6A6A6" cx="44.557" cy="44.557" r="2.538"/><rect stroke="#7F7F7F" transform="rotate(-131 35.95 51.646)" x="35.943" y="35.943" width="1" height="31.405" rx=".5"/></g></svg>