<?xml version="1.0"?>
<svg xmlns="http://www.w3.org/2000/svg" xmlns:xlink="http://www.w3.org/1999/xlink" xmlns:svgjs="http://svgjs.com/svgjs" version="1.1" width="512" height="512" x="0" y="0" viewBox="0 0 496 496" style="enable-background:new 0 0 512 512" xml:space="preserve" class=""><g><path xmlns="http://www.w3.org/2000/svg" d="m160.007812 180.527344 19.863282-11.917969c10.105468-6.066406 21.023437-10.59375 32.464844-13.449219 11.585937-2.894531 19.671874-13.257812 19.671874-25.191406 0-13.984375-11.128906-25.335938-24.984374-25.871094.585937-2.25.984374-4.601562.984374-7.128906 0-13.769531-11.199218-24.96875-24.96875-24.96875-6.574218 0-13.007812 2.664062-17.65625 7.3125l-44.96875 44.96875c-10.574218 10.574219-16.40625 24.640625-16.40625 39.597656v53.992188c0 8.472656-2.496093 17.28125-7.222656 25.464844-9.679687 16.753906-28.175781 27.367187-48.785156 28.449218v-7.785156c0-8.824219-7.175781-16-16-16h-16c-8.824219 0-16 7.175781-16 16v96c0 8.824219 7.175781 16 16 16h16c8.824219 0 16-7.175781 16-16h70.34375c18.375 0 36.167969-5.390625 51.464844-15.585938 18.808594-12.527343 32.367187-31.460937 38.175781-53.285156l23.121094-86.730468c.589843-2.199219.894531-4.476563.894531-6.789063v-3.378906c0-14.460938-11.769531-26.230469-26.230469-26.230469-11.648437 0-22.027343 7.824219-25.234375 19.023438l-13.632812 47.730468c-4.453125-11.355468-6.886719-23.507812-6.886719-35.683594v-18.542968zm56-50.558594c0 4.582031-3.105468 8.558594-7.542968 9.671875-12.976563 3.238281-25.359375 8.375-36.824219 15.253906l-9.710937 5.824219 34.902343-40.71875h9.207031c5.496094 0 9.96875 4.472656 9.96875 9.96875zm-200.007812 230.03125v-96h16l.015625 96zm144.183594-101.753906-1.28125 4.480468c-2.894532 10.167969-12.316406 17.273438-22.894532 17.273438v16c17.6875 0 33.441407-11.871094 38.289063-28.878906l21.613281-75.6875c1.257813-4.378906 5.304688-7.433594 9.859375-7.433594 5.636719 0 10.230469 4.59375 10.230469 10.230469v3.378906c0 .894531-.121094 1.773437-.34375 2.636719l-23.128906 86.753906c-4.824219 18.070312-16.039063 33.726562-31.597656 44.105469-12.65625 8.429687-27.386719 12.894531-42.585938 12.894531h-70.34375v-56.214844c26.320312-1.113281 50.113281-14.777344 62.640625-36.449218 6.128906-10.617188 9.367187-22.183594 9.367187-33.464844v-53.992188c0-10.6875 4.167969-20.734375 11.71875-28.285156l44.96875-44.976562c1.671876-1.65625 3.984376-2.617188 6.34375-2.617188 4.945313 0 8.96875 4.023438 8.96875 9.71875 0 2.144531-.769531 4.210938-2.160156 5.832031l-45.839844 53.480469v42.03125c0 17.539062 4.152344 35.105469 11.992188 50.808594zm0 0" fill="#fd586b" data-original="#000000" style="" class=""/><path xmlns="http://www.w3.org/2000/svg" d="m240 304h256v-160h-256zm16-144h224v128h-224zm0 0" fill="#fd586b" data-original="#000000" style="" class=""/><path xmlns="http://www.w3.org/2000/svg" d="m272 208h16v-16h16v-16h-32zm0 0" fill="#fd586b" data-original="#000000" style="" class=""/><path xmlns="http://www.w3.org/2000/svg" d="m432 192h16v16h16v-32h-32zm0 0" fill="#fd586b" data-original="#000000" style="" class=""/><path xmlns="http://www.w3.org/2000/svg" d="m288 240h-16v32h32v-16h-16zm0 0" fill="#fd586b" data-original="#000000" style="" class=""/><path xmlns="http://www.w3.org/2000/svg" d="m448 256h-16v16h32v-32h-16zm0 0" fill="#fd586b" data-original="#000000" style="" class=""/><path xmlns="http://www.w3.org/2000/svg" d="m360 200h16c4.414062 0 8 3.59375 8 8h16c0-13.230469-10.769531-24-24-24v-8h-16v8c-13.230469 0-24 10.769531-24 24s10.769531 24 24 24h16c4.414062 0 8 3.585938 8 8s-3.585938 8-8 8h-16c-4.414062 0-8-3.585938-8-8h-16c0 13.230469 10.769531 24 24 24v8h16v-8c13.230469 0 24-10.769531 24-24s-10.769531-24-24-24h-16c-4.414062 0-8-3.59375-8-8s3.585938-8 8-8zm0 0" fill="#fd586b" data-original="#000000" style="" class=""/><path xmlns="http://www.w3.org/2000/svg" d="m416 0h80v16h-80zm0 0" fill="#fd586b" data-original="#000000" style="" class=""/><path xmlns="http://www.w3.org/2000/svg" d="m400 32h96v16h-96zm0 0" fill="#fd586b" data-original="#000000" style="" class=""/><path xmlns="http://www.w3.org/2000/svg" d="m288 32h96v16h-96zm0 0" fill="#fd586b" data-original="#000000" style="" class=""/><path xmlns="http://www.w3.org/2000/svg" d="m400 96h96v16h-96zm0 0" fill="#fd586b" data-original="#000000" style="" class=""/><path xmlns="http://www.w3.org/2000/svg" d="m288 96h96v16h-96zm0 0" fill="#fd586b" data-original="#000000" style="" class=""/><path xmlns="http://www.w3.org/2000/svg" d="m288 64h208v16h-208zm0 0" fill="#fd586b" data-original="#000000" style="" class=""/><path xmlns="http://www.w3.org/2000/svg" d="m416 432h80v16h-80zm0 0" fill="#fd586b" data-original="#000000" style="" class=""/><path xmlns="http://www.w3.org/2000/svg" d="m400 400h96v16h-96zm0 0" fill="#fd586b" data-original="#000000" style="" class=""/><path xmlns="http://www.w3.org/2000/svg" d="m288 400h96v16h-96zm0 0" fill="#fd586b" data-original="#000000" style="" class=""/><path xmlns="http://www.w3.org/2000/svg" d="m400 336h96v16h-96zm0 0" fill="#fd586b" data-original="#000000" style="" class=""/><path xmlns="http://www.w3.org/2000/svg" d="m288 336h96v16h-96zm0 0" fill="#fd586b" data-original="#000000" style="" class=""/><path xmlns="http://www.w3.org/2000/svg" d="m288 368h208v16h-208zm0 0" fill="#fd586b" data-original="#000000" style="" class=""/></g></svg>
