<svg xmlns="http://www.w3.org/2000/svg" viewBox="0 0 64 64" aria-labelledby="title"
aria-describedby="desc" role="img" xmlns:xlink="http://www.w3.org/1999/xlink"
width="64" height="64">
  
  <path data-name="layer2"
  d="M39 41v11a10 10 0 0 1-20 0V22a6 6 0 0 0-12 0v5" fill="none" stroke="#fff"
  stroke-linecap="round" stroke-miterlimit="10" stroke-width="3" stroke-linejoin="round"></path>
  <rect data-name="layer1" x="28" y="7" width="32" height="34" rx="5"
  ry="5" fill="none" stroke="#fff" stroke-linecap="round" stroke-miterlimit="10"
  stroke-width="3" stroke-linejoin="round"></rect>
  <path data-name="layer1" d="M38.083 7A6 6 0 0 1 44 2a6 6 0 0 1 5.917 5M47 40.977V62"
  fill="none" stroke="#fff" stroke-linecap="round" stroke-miterlimit="10"
  stroke-width="3" stroke-linejoin="round"></path>
  <rect data-name="layer2" x="4" y="27" width="6" height="12" rx="2"
  ry="2" fill="none" stroke="#fff" stroke-linecap="round" stroke-miterlimit="10"
  stroke-width="3" stroke-linejoin="round"></rect>
  <path data-name="layer2" fill="none" stroke="#fff" stroke-linecap="round"
  stroke-miterlimit="10" stroke-width="3" d="M7 39v6m31-24v6" stroke-linejoin="round"></path>
  <path data-name="layer1" fill="none" stroke="#fff" stroke-linecap="round"
  stroke-miterlimit="10" stroke-width="3" d="M53 24h-6" stroke-linejoin="round"></path>
  <path data-name="layer2" fill="none" stroke="#fff" stroke-linecap="round"
  stroke-miterlimit="10" stroke-width="3" d="M41 24h-6" stroke-linejoin="round"></path>
  <path data-name="layer1" fill="none" stroke="#fff" stroke-linecap="round"
  stroke-miterlimit="10" stroke-width="3" d="M28 15h32M28 33h32" stroke-linejoin="round"></path>
</svg>