<svg xmlns="http://www.w3.org/2000/svg" width="24" height="24" viewBox="0 0 24 24"><defs><style>.a,.b{fill:none;}.b,.c{stroke:#fff;stroke-linecap:round;stroke-linejoin:round;stroke-width:1.5px;}</style></defs><path class="a" d="M0,0H24V24H0Z"/><line class="b" y1="6" x2="6" transform="translate(9 9)"/><circle class="c" cx="0.5" cy="0.5" r="0.5" transform="translate(9 9)"/><circle class="c" cx="0.5" cy="0.5" r="0.5" transform="translate(14 14)"/><path class="b" d="M5,7.2A2.2,2.2,0,0,1,7.2,5h1a2.2,2.2,0,0,0,1.55-.64l.7-.7a2.2,2.2,0,0,1,3.12,0l.7.7A2.2,2.2,0,0,0,15.82,5h1a2.2,2.2,0,0,1,2.2,2.2v1a2.2,2.2,0,0,0,.64,1.55l.7.7a2.2,2.2,0,0,1,0,3.12l-.7.7a2.2,2.2,0,0,0-.64,1.55v1a2.2,2.2,0,0,1-2.2,2.2h-1a2.2,2.2,0,0,0-1.55.64l-.7.7a2.2,2.2,0,0,1-3.12,0l-.7-.7a2.2,2.2,0,0,0-1.55-.64h-1A2.2,2.2,0,0,1,5,16.82v-1a2.2,2.2,0,0,0-.64-1.55l-.7-.7a2.2,2.2,0,0,1,0-3.12l.7-.7A2.2,2.2,0,0,0,5,8.2v-1"/></svg>