<svg xmlns="http://www.w3.org/2000/svg" width="30" height="30" viewBox="0 0 30 30"><defs><style>.a,.b{fill:none;}.b{stroke:#0d1015;stroke-linecap:round;stroke-linejoin:round;stroke-width:1.5px;}</style></defs><path class="a" d="M0,0H30V30H0Z"/><path class="b" d="M10.125,3h8.25a1.135,1.135,0,0,1,.875.375L25.125,9.25a1.135,1.135,0,0,1,.375.875v8.25a1.135,1.135,0,0,1-.375.875L19.25,25.125a1.135,1.135,0,0,1-.875.375h-8.25a1.135,1.135,0,0,1-.875-.375L3.375,19.25A1.135,1.135,0,0,1,3,18.375v-8.25a1.135,1.135,0,0,1,.375-.875L9.25,3.375A1.135,1.135,0,0,1,10.125,3Z" transform="translate(0.75 0.75)"/><line class="b" y2="5" transform="translate(15 10)"/><line class="b" y1="1" transform="translate(15 19)"/></svg>