<svg xmlns="http://www.w3.org/2000/svg" width="30" height="30" viewBox="0 0 30 30"><defs><style>.a,.b{fill:none;}.b{stroke:#0d1015;stroke-linecap:round;stroke-linejoin:round;stroke-width:1.5px;}</style></defs><path class="a" d="M0,0H30V30H0Z"/><path class="b" d="M9.006,16.375v-10a1.875,1.875,0,1,1,3.75,0V14.5m0-8.125v-2.5a1.875,1.875,0,0,1,3.75,0V14.5m0-8.125a1.875,1.875,0,1,1,3.75,0V14.5m0-5.625a1.875,1.875,0,1,1,3.75,0V19.5a7.5,7.5,0,0,1-7.5,7.5h-2.5a8.842,8.842,0,0,1-6.25-3.75L4.381,16.688a2.125,2.125,0,1,1,3.438-2.5l1.125,2.188" transform="translate(0.994 0.5)"/></svg>