<svg xmlns="http://www.w3.org/2000/svg" width="16" height="16" viewBox="0 0 16 16"><defs><style>.a,.b{fill:none;}.b{stroke:#9da3b0;stroke-linecap:round;stroke-linejoin:round;stroke-width:1.3px;}</style></defs><path class="a" d="M0,0H16V16H0Z"/><line class="b" x2="10.667" transform="translate(2.667 4.667)"/><line class="b" y2="4" transform="translate(6.667 7.333)"/><line class="b" y2="4" transform="translate(9.333 7.333)"/><path class="b" d="M5,7l.667,8A1.333,1.333,0,0,0,7,16.333h5.333A1.333,1.333,0,0,0,13.667,15l.667-8" transform="translate(-1.667 -2.333)"/><path class="b" d="M9,5.667v-2A.667.667,0,0,1,9.667,3h2.667A.667.667,0,0,1,13,3.667v2" transform="translate(-3 -1)"/></svg>