<svg xmlns="http://www.w3.org/2000/svg" width="31.292" height="36" viewBox="0 0 31.292 36"><defs><style>.a{fill:#0ae2b3;}.a,.b,.c,.d,.e,.f{fill-rule:evenodd;}.b{fill:#068a6b;}.c{fill:#067055;}.d{fill:#07a784;}.e{fill:#08c69f;}.f{fill:#33f7cc;}</style></defs><path class="a" d="M169,429.6l3.323,1.938,3.046,1.662V426l-3.046,1.939Z" transform="translate(-169 -400.8)"/><path class="b" d="M175.369,390.6l-3.046-1.939L169,387v7.2l3.323-1.662Z" transform="translate(-169 -372.6)"/><path class="c" d="M169,403.6l3.323-1.662L175.369,400v7.2l-3.046-1.662Z" transform="translate(-169 -382)"/><path class="d" d="M169,377.6l3.323,1.661,3.046,1.938V374l-3.046,1.661Z" transform="translate(-169 -363.2)"/><path class="e" d="M175.369,364.6l-3.046,1.662L169,368.2V361l3.323,1.662Z" transform="translate(-169 -353.8)"/><path class="f" d="M175.369,338.6l-3.046-1.938L169,335v7.2l3.323-1.938Z" transform="translate(-169 -335)"/><path class="a" d="M169,351.6l3.323-1.938L175.369,348v7.2l-3.046-1.938Z" transform="translate(-169 -344.4)"/><path class="e" d="M192,426v7.2l3.046-1.662,3.323-1.938-3.323-1.661Z" transform="translate(-185.631 -400.8)"/><path class="b" d="M215,413l3.046,1.938,3.046,1.662-3.046,1.938L215,420.2V413Z" transform="translate(-202.262 -391.4)"/><path class="d" d="M198.369,420.2V413l-3.323,1.938L192,416.6l3.046,1.938Z" transform="translate(-185.631 -391.4)"/><path class="c" d="M221.092,407.2l-3.046-1.662L215,403.6l3.046-1.662L221.092,400v7.2Z" transform="translate(-202.262 -382)"/><path class="f" d="M260,387l3.046,1.661,3.046,1.939-3.046,1.938L260,394.2V387Z" transform="translate(-234.8 -372.6)"/><path class="a" d="M243.369,394.2V387l-3.046,1.661L237,390.6l3.323,1.938Z" transform="translate(-218.169 -372.6)"/><path class="d" d="M221.092,374l-3.046,1.661L215,377.6l3.046,1.661,3.046,1.938V374Z" transform="translate(-202.262 -363.2)"/><path class="e" d="M237,381.2V374l3.323,1.661,3.046,1.939-3.046,1.661Z" transform="translate(-218.169 -363.2)"/><path class="b" d="M215,368.2l3.046-1.938,3.046-1.662-3.046-1.938L215,361v7.2Z" transform="translate(-202.262 -353.8)"/><path class="c" d="M198.369,361v7.2l-3.323-1.938L192,364.6l3.046-1.938Z" transform="translate(-185.631 -353.8)"/><path class="f" d="M169,439l3.323,1.938,3.046,1.662-3.046,1.938L169,446.2V439Z" transform="translate(-169 -410.2)"/></svg>