<svg id="Icons" height="30" viewBox="0 0 74 74" width="30" xmlns="http://www.w3.org/2000/svg"><path d="m61.01 51h-47.3a1 1 0 0 1 -1-1v-5.21a1 1 0 0 1 1-1h47.3a1 1 0 0 1 1 1v5.21a1 1 0 0 1 -1 1zm-46.3-2h45.3v-3.21h-45.3z"/><path d="m61.01 45.785h-47.3a1 1 0 0 1 -1-1v-32.985a8.089 8.089 0 0 1 8.08-8.08h33.14a8.089 8.089 0 0 1 8.08 8.08v32.99a1 1 0 0 1 -1 .995zm-46.3-2h45.3v-31.985a6.087 6.087 0 0 0 -6.08-6.08h-33.14a6.087 6.087 0 0 0 -6.08 6.08z"/><path d="m13.714 51h-10.354a1 1 0 0 1 -1-1v-19.662a3.728 3.728 0 0 1 3.724-3.723h4.906a3.728 3.728 0 0 1 3.724 3.723v19.662a1 1 0 0 1 -1 1zm-9.354-2h8.354v-18.662a1.726 1.726 0 0 0 -1.724-1.723h-4.906a1.726 1.726 0 0 0 -1.724 1.723z"/><path d="m66.813 64.847h-58.906a5.553 5.553 0 0 1 -5.547-5.547v-9.3a1 1 0 0 1 1-1h68a1 1 0 0 1 1 1v9.3a5.553 5.553 0 0 1 -5.547 5.547zm-62.453-13.847v8.3a3.551 3.551 0 0 0 3.547 3.547h58.906a3.55 3.55 0 0 0 3.547-3.547v-8.3z"/><path d="m71.36 51h-10.353a1 1 0 0 1 -1-1v-19.662a3.728 3.728 0 0 1 3.723-3.723h4.907a3.728 3.728 0 0 1 3.723 3.723v19.662a1 1 0 0 1 -1 1zm-9.353-2h8.353v-18.662a1.725 1.725 0 0 0 -1.723-1.723h-4.907a1.725 1.725 0 0 0 -1.723 1.723z"/><path d="m14.873 69.217h-3.892a2.079 2.079 0 0 1 -2.081-2.077v-3.293a1 1 0 0 1 1-1h6.044a1 1 0 0 1 1 1v3.293a2.079 2.079 0 0 1 -2.071 2.077zm-3.968-4.37v2.293a.076.076 0 0 0 .076.077h3.892a.076.076 0 0 0 .076-.077v-2.293z"/><path d="m63.738 69.217h-3.89a2.079 2.079 0 0 1 -2.077-2.077v-3.293a1 1 0 0 1 1-1h6.044a1 1 0 0 1 1 1v3.293a2.079 2.079 0 0 1 -2.077 2.077zm-3.967-4.37v2.293a.076.076 0 0 0 .077.077h3.89a.076.076 0 0 0 .077-.077v-2.293z"/></svg>