<svg height="30" viewBox="0 0 512 512" width="30" xmlns="http://www.w3.org/2000/svg">
<g>
<path d="m440 144h-80v-56.81a40.05 40.05 0 0 0 32-39.19 8 8 0 0 0 -16 0 24 24 0 0 1 -48 0 8 8 0 0 0 -8-8h-48v-8a8 8 0 0 0 -8-8h-96a8 8 0 0 0 -8 8v8h-16v-24a8 8 0 0 0 -8-8h-64a8 8 0 0 0 -8 8v480a8 8 0 0 0 8 8h64a8 8 0 0 0 8-8v-440h16v8a8 8 0 0 0 8 8h96a8 8 0 0 0 8-8v-8h40.8a40.121 40.121 0 0 0 31.2 31.19v56.81h-80a8 8 0 0 0 -8 8v184a48.051 48.051 0 0 0 48 48h8v24a8 8 0 0 0 8 8h8v24a8 8 0 0 0 8 8h8v48a8 8 0 0 0 16 0v-48h8a8 8 0 0 0 8-8v-24h8a8 8 0 0 0 8-8v-24h8a48.051 48.051 0 0 0 48-48v-184a8 8 0 0 0 -8-8zm-312 344h-48v-464h48zm128-432h-80v-16h80zm104 376h-16v-16h16zm16-32h-48v-16h48zm56-64a32.042 32.042 0 0 1 -32 32h-96a32.042 32.042 0 0 1 -32-32v-176h160z"/>
<path d="m328 224v16h-16a8 8 0 0 0 -8 8v32a8 8 0 0 0 8 8h16v16a8 8 0 0 0 8 8h32a8 8 0 0 0 8-8v-16h16a8 8 0 0 0 8-8v-32a8 8 0 0 0 -8-8h-16v-16a8 8 0 0 0 -8-8h-32a8 8 0 0 0 -8 8zm16 24v-16h16v16a8 8 0 0 0 8 8h16v16h-16a8 8 0 0 0 -8 8v16h-16v-16a8 8 0 0 0 -8-8h-16v-16h16a8 8 0 0 0 8-8z"/>
</g>
</svg>