<svg id="Capa_1" enable-background="new 0 0 512 512" height="30" viewBox="0 0 512 512" width="30" xmlns="http://www.w3.org/2000/svg"><g><path d="m353.058 81.233 8.485-8.485c2.929-2.93 2.929-7.678 0-10.607-2.93-2.928-7.678-2.928-10.607 0l-8.485 8.485c-2.929 2.93-2.929 7.678 0 10.607 2.93 2.929 7.677 2.928 10.607 0z"/><path d="m441.374 169.55 8.485-8.485c2.929-2.93 2.929-7.678 0-10.607-2.93-2.928-7.678-2.928-10.607 0l-8.485 8.485c-2.929 2.93-2.929 7.678 0 10.607 2.93 2.929 7.677 2.928 10.607 0z"/><path d="m381.036 100.711c-4.135-.283-7.713 2.837-7.996 6.969-1.216 17.732 13.473 32.493 31.28 31.28 4.132-.283 7.252-3.863 6.969-7.996s-3.865-7.253-7.996-6.969c-8.699.591-15.884-6.602-15.288-15.288.283-4.133-2.837-7.713-6.969-7.996z"/><path d="m486.27 124.23-98.5-98.501c-16.593-16.591-38.654-25.729-62.12-25.729s-45.527 9.138-62.119 25.729l-194.086 194.087c-2.929 2.93-2.929 7.678 0 10.607 2.929 2.928 7.678 2.928 10.606 0l194.086-194.086c13.759-13.76 32.054-21.337 51.513-21.337s37.753 7.577 51.512 21.337l98.501 98.501c13.759 13.759 21.337 32.053 21.337 51.512 0 19.46-7.578 37.754-21.338 51.513l-237.799 237.8c-13.759 13.759-32.053 21.337-51.513 21.337-19.459 0-37.753-7.577-51.512-21.337l-98.5-98.501c-13.76-13.759-21.338-32.053-21.338-51.512s7.578-37.754 21.337-51.513l22.501-22.501c2.929-2.93 2.929-7.678 0-10.607-2.929-2.928-7.678-2.928-10.606 0l-22.502 22.501c-16.592 16.593-25.73 38.655-25.73 62.12s9.138 45.526 25.731 62.119l98.5 98.501c16.592 16.592 38.653 25.73 62.119 25.73s45.527-9.138 62.12-25.731l237.799-237.799c16.593-16.592 25.731-38.654 25.731-62.12s-9.138-45.528-25.73-62.12z"/><path d="m313.94 113.74c-18.69-7.612-41.365-3.647-55.87 12.079-17.901 19.328-19.188 50.355 1.03 70.511l56.57 56.569c19.783 19.786 51.816 19.701 71.51.011 19.605-19.645 20.073-51.542-.53-72.061-1.409-1.42-3.3-2.2-5.3-2.2s-3.89.78-5.3 2.2c-2.93 2.92-2.93 7.67 0 10.601 14.971 15.012 14.064 37.307.52 50.85-14.03 14.01-36.526 13.753-50.29-.01-11.358-11.352-18.051-18.043-22.986-22.977l50.305-50.304c.416.416.818.818 1.241 1.241 1.42 1.41 3.3 2.189 5.31 2.189 2 0 3.881-.779 5.301-2.189 2.92-2.931 2.92-7.69 0-10.61 0 0-.011 0-.011-.01-13.59-13.6-23.609-23.61-34.819-34.82-4.801-4.79-10.411-8.52-16.681-11.07zm29.051 44.661-50.305 50.305-22.976-22.986c-14.575-14.64-12.983-36.446-.65-49.689 13.909-14.883 37.217-14.353 50.96-.61 13.677 13.689 7.788 7.798 22.971 22.98z"/><path d="m206.216 198.645c-27.885 0-50.571 22.687-50.571 50.572 0 13.509 5.26 26.209 14.812 35.759l56.567 56.568c19.71 19.708 51.786 19.719 71.509.009 19.353-19.345 20.336-51.202-.524-72.063l-56.033-56.033c-9.415-9.414-22.449-14.812-35.76-14.812zm81.186 81.452c14.795 14.794 14.234 37.146.527 50.847-13.869 13.861-36.432 13.859-50.298-.007l-22.98-22.98 50.306-50.306zm-83.358 17.252-22.981-22.981c-6.718-6.717-10.418-15.649-10.418-25.151 0-19.614 15.957-35.572 35.571-35.572 9.363 0 18.531 3.798 25.153 10.419l22.98 22.98z"/><path d="m67 337.861c0 13.508 5.26 26.208 14.812 35.759l56.568 56.568c19.719 19.717 51.797 19.71 71.508.01 19.349-19.338 20.341-51.198-.524-72.063l-56.034-56.033.001.001c-9.413-9.414-22.446-14.812-35.76-14.812-27.885-.001-50.571 22.686-50.571 50.57zm131.757 30.881c14.795 14.794 14.234 37.146.527 50.847-13.869 13.862-36.433 13.858-50.298-.008l-22.98-22.98c11.603-11.603 38.694-38.695 50.305-50.305zm-56.032-56.033 22.98 22.98c-11.612 11.611-38.702 38.702-50.306 50.305l-22.981-22.98c-6.718-6.718-10.418-15.651-10.418-25.153 0-19.614 15.957-35.571 35.571-35.571 9.365 0 18.533 3.797 25.154 10.419-.001 0-.001 0 0 0z"/></g></svg>